<?xml version="1.0" encoding="UTF-8" standalone="no"?>
<!-- Created with Inkscape (http://www.inkscape.org/) -->

<svg
  height="101.00108pt"
  id="svg2"
  inkscape:export-filename="python-logo-only.png"
  inkscape:export-xdpi="232.44"
  inkscape:export-ydpi="232.44"
  width="83.371017pt"
  xmlns="http://www.w3.org/2000/svg"
  xmlns:cc="http://creativecommons.org/ns#"
  xmlns:dc="http://purl.org/dc/elements/1.1/"
  xmlns:inkscape="http://www.inkscape.org/namespaces/inkscape"
  xmlns:rdf="http://www.w3.org/1999/02/22-rdf-syntax-ns#"
  xmlns:sodipodi="http://sodipodi.sourceforge.net/DTD/sodipodi-0.dtd"
  xmlns:xlink="http://www.w3.org/1999/xlink" xmlns:xsi="http://www.w3.org/2001/XMLSchema-instance"
  xsi:schemaLocation="http://www.inkscape.org/namespaces/inkscape
http://www.inkscape.org/namespaces/inkscape
http://sodipodi.sourceforge.net/DTD/sodipodi-0.dtd">
  <metadata
    id="metadata371">
    <rdf:RDF>
      <cc:Work
        rdf:about="">
        <dc:format>image/svg+xml</dc:format>
        <dc:type
          rdf:resource="http://purl.org/dc/dcmitype/StillImage"/>
      </cc:Work>
    </rdf:RDF>
  </metadata>
  <sodipodi:namedview
    bordercolor="#666666"
    borderopacity="1.0"
    gridtolerance="10.0"
    guidetolerance="10.0"
    height="40mm"
    id="base"
    inkscape:current-layer="svg2"
    inkscape:cx="91.558698"
    inkscape:cy="47.9926"
    inkscape:deskcolor="#d1d1d1"
    inkscape:document-units="pt"
    inkscape:pagecheckerboard="0"
    inkscape:pageopacity="0.0"
    inkscape:pageshadow="2"
    inkscape:showpageshadow="2"
    inkscape:window-height="2080"
    inkscape:window-maximized="0"
    inkscape:window-width="1976"
    inkscape:window-x="1092"
    inkscape:window-y="72"
    inkscape:zoom="2.1461642"
    objecttolerance="10.0"
    pagecolor="#ffffff"
    showgrid="false"
    units="mm"
    width="210mm"/>
  <defs
    id="defs4">
    <linearGradient
      id="linearGradient2795">
      <stop
        id="stop2797"
        offset="0"
        style="stop-color:#b8b8b8;stop-opacity:0.49803922;"/>
      <stop
        id="stop2799"
        offset="1"
        style="stop-color:#7f7f7f;stop-opacity:0;"/>
    </linearGradient>
    <linearGradient
      id="linearGradient2787">
      <stop
        id="stop2789"
        offset="0"
        style="stop-color:#7f7f7f;stop-opacity:0.5;"/>
      <stop
        id="stop2791"
        offset="1"
        style="stop-color:#7f7f7f;stop-opacity:0;"/>
    </linearGradient>
    <linearGradient
      id="linearGradient3676">
      <stop
        id="stop3678"
        offset="0"
        style="stop-color:#b2b2b2;stop-opacity:0.5;"/>
      <stop
        id="stop3680"
        offset="1"
        style="stop-color:#b3b3b3;stop-opacity:0;"/>
    </linearGradient>
    <linearGradient
      id="linearGradient3236">
      <stop
        id="stop3244"
        offset="0"
        style="stop-color:#f4f4f4;stop-opacity:1"/>
      <stop
        id="stop3240"
        offset="1"
        style="stop-color:white;stop-opacity:1"/>
    </linearGradient>
    <linearGradient
      id="linearGradient4671">
      <stop
        id="stop4673"
        offset="0"
        style="stop-color:#ffd43b;stop-opacity:1;"/>
      <stop
        id="stop4675"
        offset="1"
        style="stop-color:#ffe873;stop-opacity:1"/>
    </linearGradient>
    <linearGradient
      id="linearGradient4689">
      <stop
        id="stop4691"
        offset="0"
        style="stop-color:#5a9fd4;stop-opacity:1;"/>
      <stop
        id="stop4693"
        offset="1"
        style="stop-color:#306998;stop-opacity:1;"/>
    </linearGradient>
    <linearGradient
      gradientTransform="translate(100.2702,99.61116)"
      gradientUnits="userSpaceOnUse"
      id="linearGradient2987"
      x1="224.23996"
      x2="-65.308502"
      xlink:href="#linearGradient4671"
      y1="144.75717"
      y2="144.75717"/>
    <linearGradient
      gradientTransform="translate(100.2702,99.61116)"
      gradientUnits="userSpaceOnUse"
      id="linearGradient2990"
      x1="172.94208"
      x2="26.670298"
      xlink:href="#linearGradient4689"
      y1="77.475983"
      y2="76.313133"/>
    <linearGradient
      gradientTransform="translate(100.2702,99.61116)"
      gradientUnits="userSpaceOnUse"
      id="linearGradient2587"
      inkscape:collect="always"
      x1="172.94208"
      x2="26.670298"
      xlink:href="#linearGradient4689"
      y1="77.475983"
      y2="76.313133"/>
    <linearGradient
      gradientTransform="translate(100.2702,99.61116)"
      gradientUnits="userSpaceOnUse"
      id="linearGradient2589"
      inkscape:collect="always"
      x1="224.23996"
      x2="-65.308502"
      xlink:href="#linearGradient4671"
      y1="144.75717"
      y2="144.75717"/>
    <linearGradient
      gradientTransform="translate(100.2702,99.61116)"
      gradientUnits="userSpaceOnUse"
      id="linearGradient2248"
      inkscape:collect="always"
      x1="172.94208"
      x2="26.670298"
      xlink:href="#linearGradient4689"
      y1="77.475983"
      y2="76.313133"/>
    <linearGradient
      gradientTransform="translate(100.2702,99.61116)"
      gradientUnits="userSpaceOnUse"
      id="linearGradient2250"
      inkscape:collect="always"
      x1="224.23996"
      x2="-65.308502"
      xlink:href="#linearGradient4671"
      y1="144.75717"
      y2="144.75717"/>
    <linearGradient
      gradientTransform="matrix(0.562541,0,0,0.567972,-11.5974,-7.60954)"
      gradientUnits="userSpaceOnUse"
      id="linearGradient2255"
      inkscape:collect="always"
      x1="224.23996"
      x2="-65.308502"
      xlink:href="#linearGradient4671"
      y1="144.75717"
      y2="144.75717"/>
    <linearGradient
      gradientTransform="matrix(0.562541,0,0,0.567972,-11.5974,-7.60954)"
      gradientUnits="userSpaceOnUse"
      id="linearGradient2258"
      inkscape:collect="always"
      x1="172.94208"
      x2="26.670298"
      xlink:href="#linearGradient4689"
      y1="76.176224"
      y2="76.313133"/>
    <radialGradient
      cx="61.518883"
      cy="132.28575"
      fx="61.518883"
      fy="132.28575"
      gradientTransform="matrix(1,0,0,0.177966,0,108.7434)"
      gradientUnits="userSpaceOnUse"
      id="radialGradient2801"
      inkscape:collect="always"
      r="29.036913"
      xlink:href="#linearGradient2795"/>
    <linearGradient
      gradientTransform="matrix(0.562541,0,0,0.567972,-14.99112,-11.702371)"
      gradientUnits="userSpaceOnUse"
      id="linearGradient1475"
      inkscape:collect="always"
      x1="150.96111"
      x2="112.03144"
      xlink:href="#linearGradient4671"
      y1="192.35176"
      y2="137.27299"/>
    <linearGradient
      gradientTransform="matrix(0.562541,0,0,0.567972,-14.99112,-11.702371)"
      gradientUnits="userSpaceOnUse"
      id="linearGradient1478"
      inkscape:collect="always"
      x1="26.648937"
      x2="135.66525"
      xlink:href="#linearGradient4689"
      y1="20.603781"
      y2="114.39767"/>
    <radialGradient
      cx="61.518883"
      cy="132.28575"
      fx="61.518883"
      fy="132.28575"
      gradientTransform="matrix(1.7490565e-8,-0.23994696,1.054668,3.7915457e-7,-83.7008,142.46201)"
      gradientUnits="userSpaceOnUse"
      id="radialGradient1480"
      inkscape:collect="always"
      r="29.036913"
      xlink:href="#linearGradient2795"/>
  </defs>
  <path
    d="M 54.918785,9.1927421e-4 C 50.335132,0.02221727 45.957846,0.41313697 42.106285,1.0946693 30.760069,3.0991731 28.700036,7.2947714 28.700035,15.032169 v 10.21875 h 26.8125 v 3.40625 h -26.8125 -10.0625 c -7.792459,0 -14.6157588,4.683717 -16.7499998,13.59375 -2.46181998,10.212966 -2.57101508,16.586023 0,27.25 1.9059283,7.937852 6.4575432,13.593748 14.2499998,13.59375 h 9.21875 v -12.25 c 0,-8.849902 7.657144,-16.656248 16.75,-16.65625 h 26.78125 c 7.454951,0 13.406253,-6.138164 13.40625,-13.625 v -25.53125 c 0,-7.2663386 -6.12998,-12.7247771 -13.40625,-13.9374997 C 64.281548,0.32794397 59.502438,-0.02037903 54.918785,9.1927421e-4 Z m -14.5,8.21875012579 c 2.769547,0 5.03125,2.2986456 5.03125,5.1249996 -2e-6,2.816336 -2.261703,5.09375 -5.03125,5.09375 -2.779476,-1e-6 -5.03125,-2.277415 -5.03125,-5.09375 -10e-7,-2.826353 2.251774,-5.1249996 5.03125,-5.1249996 z"
    id="path1948"
    style="fill:url(#linearGradient1478);fill-opacity:1"/>
  <path
    d="m 85.637535,28.657169 v 11.90625 c 0,9.230755 -7.825895,16.999999 -16.75,17 h -26.78125 c -7.335833,0 -13.406249,6.278483 -13.40625,13.625 v 25.531247 c 0,7.266344 6.318588,11.540324 13.40625,13.625004 8.487331,2.49561 16.626237,2.94663 26.78125,0 6.750155,-1.95439 13.406253,-5.88761 13.40625,-13.625004 V 86.500919 h -26.78125 v -3.40625 h 26.78125 13.406254 c 7.792461,0 10.696251,-5.435408 13.406241,-13.59375 2.79933,-8.398886 2.68022,-16.475776 0,-27.25 -1.92578,-7.757441 -5.60387,-13.59375 -13.406241,-13.59375 z m -15.0625,64.65625 c 2.779478,3e-6 5.03125,2.277417 5.03125,5.093747 -2e-6,2.826354 -2.251775,5.125004 -5.03125,5.125004 -2.76955,0 -5.03125,-2.29865 -5.03125,-5.125004 2e-6,-2.81633 2.261697,-5.093747 5.03125,-5.093747 z"
    id="path1950"
    style="fill:url(#linearGradient1475);fill-opacity:1"/>
  <ellipse
    cx="55.816761"
    cy="127.70079"
    id="path1894"
    rx="35.930977"
    ry="6.9673119"
    style="opacity:0.44382;fill:url(#radialGradient1480);fill-opacity:1;fill-rule:nonzero;stroke:none;stroke-width:15.4174;stroke-miterlimit:4;stroke-dasharray:none;stroke-opacity:1"/>
</svg>
