<?xml version="1.0" encoding="UTF-8"?>
<svg id="Capa_1" data-name="Capa 1" xmlns="http://www.w3.org/2000/svg" width="55" height="100" viewBox="0 0 55 100">
  <g>
    <path d="m10.59,80.11v-19.13H2.85v-3.42h19.58v3.42h-7.74v19.13h-4.09Z" style="fill: #575756; stroke-width: 0;"/>
    <path d="m25.02,80.11v-22.56h4.09v22.56h-4.09Z" style="fill: #575756; stroke-width: 0;"/>
    <path d="m44.5,80.43c-2.35,0-4.36-.47-6.03-1.42-1.67-.95-2.96-2.29-3.86-4.03-.9-1.74-1.34-3.79-1.34-6.16s.45-4.42,1.34-6.14c.9-1.73,2.18-3.07,3.86-4.02,1.67-.95,3.68-1.42,6.03-1.42,1.51,0,2.95.23,4.3.7,1.35.47,2.47,1.14,3.34,2.02l-1.34,3.26c-.96-.81-1.94-1.4-2.94-1.78-1-.37-2.08-.56-3.23-.56-2.28,0-4.02.69-5.21,2.06-1.19,1.38-1.79,3.33-1.79,5.87s.6,4.5,1.79,5.89c1.19,1.39,2.93,2.08,5.21,2.08,1.15,0,2.23-.19,3.23-.56,1-.37,1.98-.96,2.94-1.78l1.34,3.26c-.88.85-1.99,1.52-3.34,2-1.36.48-2.79.72-4.3.72Z" style="fill: #575756; stroke-width: 0;"/>
  </g>
  <g>
    <path d="m29.81,24.84c.11.12.33.18.54.09.04.09.11.17.21.21.05.02.1.03.15.03.12,0,.23-.05.35-.14.14.2.48.25.84.25.21,0,.42-.02.6-.03.1,0,.19-.01.25-.02.45-.02.77-.12,1.02-.43.23.09.84.23,1.48-.66.19-.06,1.13-.41.97-1.43.14-.13.59-.6.33-1.21.04-.13.14-.59-.08-.8-.04-.1-.25-.52-.62-.6-.22-.05-.46.05-.69.29-.03.03-.14.14-.17.24-.21.12-.3.34-.32.42-.17.09-.27.25-.31.35-.3-.06-.65.01-1.02.22-.25-.19-.55-.29-.86-.29,0,0,0,0,0,0-.41,0-.81.18-1.13.53-.41.46-.62,1.13-.56,1.76-.09,0-.18.02-.25.07-.13.09-.22.26-.23.44h0s0,0,0,0c-.18-.01-.33.04-.45.15-.2.23-.15.44-.04.55Zm4.66-3.23c.44.17.61.65.61.65l.16-.05s-.2-.56-.71-.76c0,0,0,0,0,0,.05-.1.14-.25.31-.28.17-.03.47.06.94.65l.13-.11c-.39-.49-.73-.73-1.03-.72.05-.09.13-.2.26-.25.21-.08.49,0,.84.23l.1-.14c-.32-.21-.59-.31-.83-.28.01-.02.03-.03.04-.04.19-.19.37-.27.53-.24.31.06.5.51.5.51v.02s.02.01.02.01c.16.14.08.53.04.67v.03s0,.03,0,.03c.28.6-.28,1.05-.31,1.07l-.04.03v.05c.2,1-.81,1.28-.86,1.29h-.03s-.02.03-.02.03c-.51.72-1.02.71-1.28.65.41-.66.43-1.62.03-2.39-.11-.22-.25-.4-.41-.54.38-.19.71-.23.99-.13Zm-4.49,2.79c.1-.09.24-.1.31-.1.07.01.12-.01.14-.04.02-.02.05-.06.05-.13,0-.13.07-.25.16-.31.09-.06.21-.06.29,0l.16.12-.02-.2c0-.05.01-.1.05-.13.07-.06.19-.09.3-.07.07,0,.3.04.35.21l.06.2.1-.19c.1-.2.31-.27.46-.25.15.02.26.13.29.3l.17-.03c-.04-.24-.2-.41-.43-.44-.04,0-.08,0-.12,0,.05-.26.22-.9.73-1.04.1.1.18.23.24.39.24.6.15,1.39-.22,1.84l.13.11c.41-.5.52-1.35.25-2.01-.19-.46-.52-.74-.95-.79-.34-.03-.67.12-.94.42-.25.28-.41.67-.47,1.08,0,.01,0,.06,0,.09-.02.01-.04.03-.06.04-.02.02-.03.03-.05.05-.04-.57.15-1.17.53-1.58.28-.32.64-.49,1-.48h0c.52,0,.98.32,1.26.86.38.73.35,1.64-.05,2.25-.15.3-.66.45-.94.45-.07,0-.16,0-.26.02-.41.03-1.16.1-1.3-.16l-.03-.04-.05-.13c-.12.14-.3.3-.48.24-.07-.02-.13-.1-.12-.18l.02-.19-.15.11c-.17.12-.35.09-.43,0-.08-.08-.06-.21.04-.32Zm1.25-1.01c.05-.39.2-.74.42-1,.23-.26.52-.39.8-.37.16.02.3.07.42.17-.58.23-.74,1-.77,1.21-.1.04-.19.1-.25.18-.09-.1-.24-.17-.42-.19-.06-.01-.13-.01-.2,0Z" style="fill: #575756; stroke-width: 0;"/>
    <path d="m19.72,22.71c-.17,1.02.78,1.37.97,1.43.42.58.87.72,1.19.72.21,0,.36-.06.43-.08.16.05.31.07.47.07.19,0,.38-.04.56-.11.05.05.13.09.29.09.16,0,.36-.01.53-.09.06.06.16.1.3.1.28,0,.55-.02.77-.17.05.04.11.06.2.06.41.02.84.04,1.25-.02.1,0,.17-.05.19-.13.02-.08-.02-.17-.1-.23-.02-.01-.03-.02-.05-.03-.03-.02-.06-.03-.07-.05,0,0,0-.01,0-.02,0-.02-.02-.05-.04-.07l-.03-.02c-.13-.05-.3-.07-.46-.09-.07,0-.14-.01-.21-.02-.05-.16-.23-.27-.41-.28-.02,0-.04,0-.05,0,0,0-.02-.02-.02-.03,0,0-.01-.02-.02-.03-.07-.08-.15-.12-.24-.14.05-.62-.16-1.25-.57-1.7-.31-.34-.7-.53-1.1-.53-.01,0-.02,0-.03,0-.31,0-.61.11-.86.29-.38-.2-.72-.28-1.02-.22-.04-.1-.14-.27-.31-.35-.03-.08-.11-.29-.32-.42-.03-.1-.13-.21-.17-.24-.23-.24-.46-.33-.69-.29-.37.07-.57.5-.62.6-.22.22-.12.67-.08.8-.26.61.19,1.08.33,1.21Zm5.55,1.09v.02s.05.06.09.08c.04.03.09.03.14.03.12,0,.25.09.25.19v.07s.07.01.07.01c.08.02.18.03.28.04.14.01.28.03.39.06,0,0,0,0,0,.01,0,.01.01.03.02.04.03.05.09.08.13.11.01,0,.03.02.04.02.03.02.03.04.03.04h0s-.01,0-.04,0c-.41.05-.83.03-1.23.02-.08,0-.11-.02-.11-.03l-.04-.13-.1.09c-.18.16-.45.17-.73.18-.08,0-.18-.02-.18-.06l-.02-.12-.11.07c-.14.09-.31.1-.52.11-.1,0-.16-.02-.17-.05l-.03-.1-.09.04c-.1.05-.21.08-.33.09-.41-.42-.57-1.19-.36-1.83.05-.14.13-.33.28-.49.54.15.7.87.75,1.12h-.12s0,.17,0,.17l.8-.03c.08,0,.14,0,.18.02.08.07.16.11.24.11.05,0,.1,0,.15,0,.14,0,.28,0,.35.09Zm-2.2-1.62c.11-.08.25-.15.42-.17.23-.03.48.07.7.27.32.3.52.77.51,1.22-.02-.01-.04-.03-.07-.05-.09-.07-.21-.06-.29-.06l-.51.02c-.04-.24-.2-1.01-.77-1.24Zm.4-.7s0,0,0,0c.36,0,.71.16.99.48.37.41.57,1,.52,1.57-.03,0-.05,0-.08,0-.01,0-.02,0-.03,0,0-.5-.21-1.03-.57-1.37-.26-.24-.56-.36-.84-.32-.46.05-.82.38-.99.91-.19.57-.13,1.38.3,1.9-.18,0-.37-.02-.54-.06-.4-.61-.42-1.52-.04-2.24.28-.55.74-.87,1.26-.87Zm-3.9-.01c-.04-.14-.12-.53.04-.67h.02s0-.03,0-.03c0,0,.19-.45.5-.51.17-.03.34.05.53.24.01.01.03.03.04.04-.23-.02-.51.07-.83.28l.1.14c.34-.23.62-.31.84-.23.14.05.22.16.26.25-.29-.01-.64.23-1.03.72l.13.11c.47-.6.77-.68.94-.65.16.03.26.18.31.28,0,0,0,0,0,0-.51.2-.7.73-.71.76l.16.05s.17-.48.61-.65c.28-.11.61-.06.99.13-.16.15-.29.33-.41.54-.39.77-.38,1.73.03,2.39-.26.06-.77.06-1.28-.65l-.02-.03h-.03s-1.06-.29-.86-1.3v-.05s-.03-.03-.03-.03c-.02-.02-.58-.47-.31-1.07v-.03s0-.03,0-.03Z" style="fill: #575756; stroke-width: 0;"/>
    <path d="m27.89,24.12c0,.28-.04.59-.09.9v.04s.02.03.02.03c0,0,.18.24.5.36l.1.04v-.1s.12-.8.03-1.64c1.04-.32,1.37-1.37,1.46-1.82.05-.26.04-.27,0-.3l-.04-.03-.05.02c-.89.34-1.3.99-1.49,1.49-.07-.27-.16-.5-.28-.69.86-.09,1.53-.81,1.53-1.69,0-.5-.21-.94-.56-1.25l.42-.52-.8.09-.24-.41-.41.25-.32-.26-.17.33-.72-.28.19.58c-.55.32-.81.91-.81,1.46,0,.7.43,1.47,1.35,1.66.04.05.23.34.32.94-.3-.46-.84-1-1.75-1.15h-.07s-.02.06-.02.06c-.03.07.18.55.4.88.28.43.77.95,1.49,1.03Zm.51-.67c.11-.44.44-1.22,1.35-1.63-.07.38-.35,1.46-1.39,1.76l.03-.13Zm.65-4.29l-.16.19c-.07-.05-.15-.1-.23-.15l.39-.05Zm.36,1.55c0,.69-.46,1.27-1.08,1.46,1-1.35.3-2.5-.06-2.94.66.17,1.14.77,1.14,1.48Zm-1.06-1.85l.16.27c-.13-.05-.27-.09-.42-.11l.26-.16Zm-.61.02l.16.13s-.02,0-.02,0c-.07,0-.14,0-.2.02l.07-.14Zm-.34.2c-.09.02-.17.05-.25.09l-.07-.22.33.13Zm-1.05,1.63c0-.63.38-1.31,1.19-1.49-.36.43-1.09,1.58-.08,2.95-.76-.21-1.11-.86-1.11-1.47Zm1.45-1.52s.05,0,.08,0c.04,0,.08,0,.13,0,.17.17,1.4,1.45.07,3.04-.06,0-.13.01-.19.01-.06,0-.11,0-.17-.01-1.32-1.6-.08-2.87.09-3.04Zm-.05,3.21s.07,0,.11,0c.18.25.31.6.38,1.03l.03.17v.07c.09.66.04,1.3.02,1.55-.15-.08-.25-.18-.3-.23.05-.34.08-.67.09-.97v-.08s0-.27,0-.27h0c-.04-.68-.2-1.09-.31-1.29Zm.15,1.34l.1.22h-.01c-1.09-.08-1.62-1.22-1.77-1.61,1,.23,1.48.96,1.68,1.39Z" style="fill: #575756; stroke-width: 0;"/>
    <path d="m22.09,7.99c-.07-.09-.07-.23-.03-.33.01-.03.03-.06.06-.08,0,0,0,0,.01-.01-.1.04-.24,0-.29-.1-.06-.13.02-.29.15-.34-.11.02-.2.08-.31.11-.1.04-.23.05-.31-.02-.08-.07-.1-.19-.06-.29.04-.1.11-.18.19-.26-.17.04-.32.2-.48.15-.17-.05-.18-.29-.1-.44.09-.15.24-.25.34-.39-.25.12-.52.21-.8.28-.1.02-.21.04-.28-.03-.05-.04-.05-.14,0-.18l-.39.13c-.09.03-.19.06-.28.03-.09-.03-.16-.14-.11-.21-.14.08-.29.17-.45.15-.1-.01-.17-.05-.22-.14-.06-.1-.01-.14.07-.21-.15.06-.31.25-.26.42.04.13.18.19.32.18.13-.01.25-.08.36-.15-.05.03.09.18.11.2.09.07.23.09.34.06.06-.01.13-.04.19-.07.02-.01.17-.08.17-.1,0,.08.12.11.2.11.17,0,.34,0,.51-.01-.12.11-.15.3-.08.44.08.14.26.22.42.18-.13.15-.03.41.16.47.16.05.34-.03.45-.16-.02.02-.03.04-.04.07-.01.02-.02.05-.03.07-.02.05-.03.11-.02.16,0,.05.03.09.05.13.02.04.06.07.1.08.02,0,.04.01.06.01.05,0,.1-.02.14-.05-.03.05-.06.1-.08.15-.02.05-.05.1-.05.16-.02.13.1.24.22.26.07.01.15,0,.21-.04.14-.08.22-.24.29-.39-.11.15-.36.15-.48.01Z" style="fill: #575756; stroke-width: 0;"/>
    <path d="m15.68,6.23c.11-.03.2-.09.29-.15.02-.01.06-.03.08-.01.02.02.02.05.03.08.01.13.14.22.27.23.13,0,.26-.05.37-.12,0,.02,0,.05-.01.07.05.08.16.12.26.13.1,0,.2-.03.3-.06.12-.04.26-.08.32-.19-.06.06-.14.13-.23.12-.1-.01-.15-.13-.14-.22.01-.1.08-.18.14-.25-.17.1-.35.18-.54.23-.08.02-.16.04-.24.02-.08-.02-.15-.09-.14-.17,0-.04.03-.08.06-.12.05-.05.1-.09.17-.12-.15.06-.31.12-.46.19-.11.05-.23.09-.36.09-.12,0-.25-.09-.27-.21,0-.05,0-.1.03-.14-.02.01-.04.03-.06.04-.08.06-.15.13-.2.22-.04.09-.04.2.02.28.07.08.2.1.3.07Z" style="fill: #575756; stroke-width: 0;"/>
    <path d="m23.45,3.52s-.03.01-.04.02c-.01,0-.03.01-.04.02-.06.02-.11.04-.17.03-.09,0-.19-.06-.21-.15-.01-.06,0-.13-.03-.18-.04-.05-.11-.05-.17-.04-.14.03-.43.23-.54.06-.02-.03-.02-.06-.01-.1,0-.02.01-.05.02-.07-.12.11-.25.14-.39.22-.14.07-.28.14-.42.2-.09.04-.2.06-.27-.02-.08-.1,0-.27.08-.35.08-.09.08-.09.18-.15-.37.15-.69.23-1.09.36-.4.14-.79.31-1.1.6-.05.05-.1.1-.11.16-.01.06.02.14.08.16-.44.14-.83.44-1.08.83-.05.08-.09.2-.02.26.03.03.08.03.13.03.13,0,.26-.05.37-.12-.07-.05-.09-.16-.06-.24s.09-.15.16-.21c.25-.24.55-.43.87-.55-.05.02-.11-.03-.11-.08s.03-.1.07-.14c.03-.04.06-.07.1-.11.15-.15.33-.27.51-.36.2-.1.41-.18.62-.25.03,0,.06-.02.09-.03.01,0,.08-.02.08-.03-.06.2-.08.49.21.49.29,0,.58-.13.78-.35-.06.09-.12.21-.05.3.06.08.18.08.28.05.23-.05.45-.17.62-.32-.07.09-.14.23-.06.32.01.01.02.02.03.02.05.02.11.02.16.01.08-.01.16-.04.23-.07.1-.04.19-.1.26-.18,0,0,.05-.05.04-.05Z" style="fill: #575756; stroke-width: 0;"/>
    <path d="m17.48,8.22c-.35.17-.72.3-1.1.37-.11.02-.27,0-.29-.11,0-.05.02-.1.05-.14.13-.19.31-.36.51-.47-.33.16-.69.27-1.06.33-.15.02-.35,0-.36-.16,0-.06.04-.12.08-.16.14-.17.31-.32.51-.44-.31.2-.64.36-.99.46-.14.04-.31.07-.43-.01-.08-.06-.09-.19-.05-.27-.21.12-.45.18-.69.17-.04,0-.09,0-.12-.04-.11-.1.02-.3.12-.4-.14.14-.28.28-.38.45-.05.09-.09.23,0,.29.03.02.08.02.12.02.08,0,.17,0,.25-.02.05,0,.1-.02.15-.03.06-.02.12-.04.17-.06.03-.01.15-.05.16-.08-.08.2.14.42.36.43.22,0,.42-.12.6-.24-.07.1,0,.25.11.31.11.05.25.04.37.01.22-.04.43-.11.63-.19-.08.19-.37.35-.27.53.04.08.13.11.22.13.34.06.71-.01.99-.21.06-.04.13-.09.21-.09.06,0,.11.04.17.07.12.05.26.04.36-.03-.21.02-.41-.2-.37-.4Z" style="fill: #575756; stroke-width: 0;"/>
    <path d="m12.92,9.62c-.01-.05,0-.1.02-.15,0-.02.02-.03.03-.04-.02,0-.04.02-.06.03-.02.01-.04.03-.06.04-.04.02-.08.04-.13.06-.09.04-.18.06-.27.07-.06,0-.13,0-.19,0-.03,0-.06,0-.1-.01-.03,0-.05,0-.07-.03-.02-.03-.03-.06-.04-.09,0-.03,0-.07,0-.1,0,0,0-.02.01-.03.01-.03.02-.06.04-.08.02-.02.04-.05.06-.07-.2.13-.43.23-.66.28-.04,0-.08.01-.11,0-.07-.04-.04-.15,0-.21.19-.31.44-.57.71-.82-.29.19-.55.42-.78.67-.1.1-.19.24-.15.37.04.12.18.18.3.17.12,0,.24-.07.35-.13.03-.02.06-.03.09-.05.03-.01.05-.02.08-.04-.03.09-.05.18-.04.27,0,.04.01.08.03.12.02.03.05.06.09.07.04,0,.09,0,.13-.01.06-.01.12-.03.18-.06.09-.03.18-.08.26-.13.06-.04.12-.08.17-.13,0,0,.02-.03.04-.03,0,.01,0,.03,0,.05,0,.02-.01.04-.02.06,0,.04,0,.09.01.13.02.05.05.09.1.12.02.01.04.01.07.01.03,0,.05,0,.08,0,.09,0,.17-.06.25-.11.22-.16.4-.37.51-.62-.24.17-.51.32-.79.43-.03.01-.14.05-.16,0Z" style="fill: #575756; stroke-width: 0;"/>
    <path d="m36.96,5.79c.08.07.13.11.07.21-.05.09-.12.13-.22.14-.16.02-.31-.07-.45-.15.05.08-.02.19-.11.21-.09.03-.19,0-.28-.03l-.39-.13s.05.14,0,.18c-.08.06-.19.05-.28.03-.27-.06-.54-.16-.8-.28.1.14.25.25.34.39.09.15.07.39-.1.44-.16.05-.32-.11-.48-.15.07.08.15.16.19.26.04.1.02.23-.06.29-.08.07-.21.06-.31.02-.1-.04-.2-.1-.31-.11.13.05.21.21.15.34-.05.1-.19.15-.29.1,0,0,0,0,.01.01.02.02.04.05.06.08.05.1.05.24-.03.33-.12.14-.37.13-.48-.01.07.15.15.31.29.39.06.04.14.05.21.04.12-.02.24-.13.22-.26,0-.06-.03-.11-.05-.16-.02-.05-.05-.1-.08-.15.04.03.08.05.14.05.02,0,.04,0,.06-.01.04-.02.07-.05.1-.08.03-.04.05-.09.05-.13,0-.05,0-.11-.02-.16,0-.02-.02-.05-.03-.07-.01-.02-.02-.05-.04-.07.11.13.29.2.45.16.19-.06.29-.32.16-.47.16.04.34-.03.42-.18.08-.14.05-.33-.08-.44.17,0,.34,0,.51.01.09,0,.2-.02.2-.11,0,.02.15.09.17.1.06.03.12.06.19.07.11.02.25,0,.34-.06.02-.02.16-.17.11-.2.11.07.23.14.36.15.13.01.28-.05.32-.18.05-.17-.1-.36-.26-.42Z" style="fill: #575756; stroke-width: 0;"/>
    <path d="m38.43,6.33c-.09.01-.16-.05-.23-.12.07.11.2.15.32.19.1.03.19.06.3.06.1,0,.21-.04.26-.13,0-.02,0-.05-.01-.07.11.07.24.13.37.12.13,0,.26-.1.27-.23,0-.03,0-.06.03-.08.02-.02.06,0,.08.01.09.06.19.12.29.15.11.03.23.01.3-.07.06-.08.06-.19.02-.28-.04-.09-.12-.16-.2-.22-.02-.01-.04-.03-.06-.04.02.05.03.09.03.14-.02.12-.14.2-.27.21-.12,0-.24-.04-.36-.09-.15-.06-.31-.12-.46-.19.06.03.12.07.17.12.03.03.06.07.06.12,0,.08-.06.15-.14.17-.08.02-.16,0-.24-.02-.19-.05-.37-.13-.54-.23.06.07.13.15.14.25.01.1-.04.21-.14.22Z" style="fill: #575756; stroke-width: 0;"/>
    <path d="m32.38,3.57c.08.07.17.13.26.18.07.03.15.06.23.07.05.01.12.01.16-.01.01,0,.02-.01.03-.02.08-.08.01-.22-.06-.32.18.16.39.27.62.32.1.02.22.03.28-.05.06-.09.01-.21-.05-.3.19.22.48.35.78.35.29,0,.27-.29.21-.49,0,0,.07.02.08.03.03,0,.06.02.09.03.21.07.42.15.62.25.19.09.37.21.51.36.03.03.07.07.1.11.03.04.07.09.07.14,0,.05-.06.11-.11.08.32.13.62.32.87.55.06.06.13.13.16.21.03.08.01.19-.06.24.11.07.24.12.37.12.05,0,.09,0,.13-.03.07-.06.03-.18-.02-.26-.25-.39-.64-.69-1.08-.83.06-.01.1-.09.08-.16-.01-.06-.06-.12-.11-.16-.31-.29-.7-.46-1.1-.6-.4-.14-.81-.25-1.19-.43.1.06.2.13.27.22.07.08.16.25.08.35-.07.08-.18.06-.27.02-.14-.06-.28-.13-.42-.2-.14-.07-.26-.11-.39-.22.01.02.02.04.02.07,0,.03,0,.07-.01.1-.11.18-.4-.03-.54-.06-.06-.01-.13-.01-.17.04-.04.05-.02.12-.03.18-.02.09-.12.15-.21.15-.06,0-.12-.01-.17-.03-.01,0-.03-.01-.04-.02,0,0-.03-.02-.04-.02-.02,0,.03.05.04.05Z" style="fill: #575756; stroke-width: 0;"/>
    <path d="m38.3,8.65c.06-.02.11-.06.17-.07.08,0,.14.05.21.09.28.2.65.27.99.21.09-.02.18-.05.22-.13.1-.19-.19-.34-.27-.53.2.09.41.15.63.19.12.03.26.04.37-.01.11-.05.18-.21.11-.31.18.12.38.25.6.24.22,0,.44-.22.36-.43.01.03.13.06.16.08.06.02.11.04.17.06.05.01.1.02.15.03.08.02.17.02.25.02.04,0,.08,0,.12-.02.09-.06.06-.2,0-.29-.1-.18-.24-.31-.38-.45.1.11.23.3.12.4-.03.03-.08.04-.12.04-.24.01-.48-.05-.69-.17.05.08.04.21-.05.27-.12.09-.29.06-.43.01-.35-.1-.69-.26-.99-.46.19.12.36.27.51.44.04.05.08.1.08.16,0,.15-.21.18-.36.16-.37-.06-.73-.17-1.06-.33.21.11.38.28.51.47.03.04.06.09.05.14-.02.11-.18.13-.29.11-.38-.07-.75-.19-1.1-.37.04.21-.16.42-.37.4.11.07.25.08.36.03Z" style="fill: #575756; stroke-width: 0;"/>
    <path d="m42.44,9.81c.07.05.16.1.25.11.03,0,.05,0,.08,0,.02,0,.04,0,.07-.01.05-.03.08-.07.1-.12.01-.04.02-.08.01-.13,0-.02,0-.04-.02-.06,0-.01,0-.03,0-.05.01,0,.03.02.04.03.05.05.11.09.17.13.08.05.17.1.26.13.06.02.12.04.18.06.04.01.09.02.13.01.04,0,.07-.04.09-.07.02-.03.03-.08.03-.12,0-.09-.01-.18-.04-.27.02.02.05.02.08.04.03.02.06.03.09.05.11.06.22.12.35.13.12,0,.26-.05.3-.17.04-.13-.05-.27-.15-.37-.23-.25-.49-.48-.78-.67.27.24.51.51.71.82.04.07.08.17,0,.21-.03.02-.07.01-.11,0-.24-.05-.46-.14-.66-.28.03.02.04.04.06.07.02.02.03.05.04.08,0,0,0,.02.01.03,0,.03.01.07,0,.1,0,.03-.02.07-.04.09-.02.02-.05.02-.07.03-.03,0-.06.01-.1.01-.06,0-.13,0-.19,0-.09-.01-.19-.03-.27-.07-.04-.02-.09-.04-.13-.06-.02-.01-.04-.02-.06-.04-.02-.01-.04-.03-.06-.03,0,.02.02.03.03.04.02.05.03.1.02.15-.01.05-.13.02-.16,0-.28-.11-.54-.26-.79-.43.11.24.29.46.51.62Z" style="fill: #575756; stroke-width: 0;"/>
    <path d="m27.33,15.23c-.67-.09-.88-.8-.88-.8l-.17.26c.45.64,1.04.53,1.04.53Z" style="fill: #575756; stroke-width: 0;"/>
    <path d="m25.97,4.59c-.12,0-.21.09-.21.21s.09.21.21.21.21-.09.21-.21-.09-.21-.21-.21Zm0,.3c-.05,0-.09-.04-.09-.09s.04-.09.09-.09.09.04.09.09-.04.09-.09.09Z" style="fill: #575756; stroke-width: 0;"/>
    <path d="m50.08,17.42c-.07-.1-.19-.16-.31-.15l-2.81.61-.3,1.51-.73.48c-.01-1.29-.07-2.65-.18-4.05l1.49.32,1.66-2.29c.08-.11.08-.26,0-.38-.07-.1-.18-.16-.31-.15l-2.81.61-.3,1.51-6.71,4.39c-.03-.58-.07-1.16-.12-1.76,0-.02,0-.04,0-.05.16.02.32.03.46.03.37,0,.69-.07.97-.25.93-.6,1.22-2.41,1.27-2.76v-.04s-.09-.06-.09-.06c-.17-.12-.6-.45-.72-.94.15.02.3.05.44.1.13.05.26.11.41.18.38.18.84.4,1.39.4.18,0,.37-.02.57-.08.88-.3,1.23-.74,1.25-.76l.1-.12-1.1-.1.35-1.02-.22.16s-.52.38-.76.47h-.05c-.21.08-.44.16-1.12-.11-.41-.17-.77-.23-1.08-.2-.39.05-.67.29-.91.5-.24.21-.54.47-.63.8v.04c-.02.05-.03.11-.04.16v.02s0,0,0,0c-.01.1-.01.21,0,.31.02.15.06.3.12.44.05.11.1.21.17.31,0,0,0,0,0,0-.68,0-1.61-.13-2.86-.52h0s0,0,0,0c-.91-.28-1.81-.43-2.67-.43h0c-1.23,0-2.27.28-3.12.66,0-.03,0-.05-.02-.08-.02-.07-.06-.13-.1-.19-.1-.16-.2-.33-.22-.52-.03-.21,0-.43.04-.64.05-.31.03-.59-.05-.86-.05-.17-.12-.31-.24-.43-.05-.05-.09-.1-.13-.16-.02-.02-.04-.05-.06-.07.11-.17.16-.34.16-.52,0-.02.02-.04.03-.07l.02-.02s.03-.05.05-.07c.03-.04.05-.07.08-.11.06-.1.08-.22.07-.35v-.19s.06-.04.08-.06c.1.21.27.34.49.35.21,0,.46-.11.63-.28.04.05.09.1.17.13.19.07.36-.05.42-.09.16-.11.31-.22.43-.39.06.02.12.02.17.01.21-.03.34-.25.41-.41v-.03c.05-.08.06-.09.08-.1.16-.08.23-.23.28-.36.02,0,.04,0,.06-.02.07-.03.11-.03.17.02.1.08.22.08.33.03.09.09.2.13.32.11.08-.01.15-.05.22-.1.03.02.06.04.1.06.07.03.11.08.19.18l.03.04c.16.21.33.25.44.25.09,0,.22-.03.34-.15.18.12.33.12.43.09.1-.03.25-.11.35-.33.09-.19.14-.37.15-.55.1,0,.19-.05.27-.13.03.02.05.04.07.06.04.03.07.06.1.08.19.13.4.25.61.35.07.03.15.07.24.08.09,0,.15,0,.2-.02.02.02.06.04.1.07.59.41.95.61,1.21.46.03-.02.07-.05.11-.1.34.24.7.48,1.12.63.09.03.18.03.26,0,.07-.02.12-.06.15-.1.09.06.18.13.28.2.31.23.63.46,1,.6.22.1.36.06.45,0,.11-.07.17-.19.19-.31.2.17.4.34.72.43h.02c.17.04.28,0,.35-.07.24.19.48.38.77.52.14.07.3.05.42-.04.06-.05.09-.1.11-.15.23.11.45.21.65.36.09.07.34.25.6.08.05-.04.11-.09.14-.17.13.1.25.2.39.29.12.09.48.33.74.19.06-.03.14-.1.17-.23.08.05.16.1.25.15.13.07.26.16.39.25.28.19.57.39.92.46h.02s.04,0,.05,0c.08,0,.15-.02.21-.07.08-.07.12-.17.1-.3-.05-.49-.36-.84-.65-1.16-.74-.82-1.61-1.54-2.45-2.25-.32-.27-.65-.54-.96-.81-2.13-1.86-4.35-3.55-6.76-5.17-2.12-1.42-4.27-2.19-6.38-2.29-.91-.04-1.63.07-2.2.35-1.31.68-.89,2.09-.58,3.12l.03.09c.18.56.2.95.07,1.18-.06.09-.14.15-.26.2,0,0,0-.01,0-.01l-.03-.03c-.54-.62-1.39-.58-1.64-.55-.1-.06-.19-.13-.24-.17.03-.39-.06-.75-.25-1.04-.06-.1-.14-.18-.22-.26,0,0,0,0,0,0,0,0,0-.01,0-.02-.01-.14-.07-.27-.17-.37-.12-.11-.29-.18-.48-.17-.17,0-.32.06-.43.1h-.03c-.1.05-.19.09-.26.07-.01,0-.03-.01-.05-.02.12-.67,0-1.28-.34-1.69-.62-.73-1.82-.83-2.72-.78-2.12.1-4.27.88-6.38,2.29-2.42,1.62-4.63,3.31-6.76,5.17-.31.27-.64.55-.96.81-.84.7-1.71,1.43-2.45,2.25-.28.31-.6.66-.64,1.15-.02.2.09.3.14.33.05.03.11.05.18.05.17,0,.39-.09.66-.27.16-.11.31-.2.46-.29.13-.08.26-.15.39-.24.05-.03.12-.02.15.03.04.07.1.11.14.14.23.11.54-.04,1.01-.41.05-.04.11-.03.15.01.03.04.06.06.09.09.25.16.5-.02.6-.09.17-.13.36-.22.56-.32.05-.02.1,0,.13.04.02.03.04.05.07.07.12.09.28.11.41.04.26-.12.49-.29.7-.46.02-.02.05-.04.07-.06.08.07.19.11.35.08h.02c.26-.08.44-.2.6-.34.05-.04.13-.03.16.04.03.07.08.13.15.18.09.05.23.1.43,0,.38-.15.7-.38,1.01-.61.09-.07.19-.13.28-.2.04.04.09.07.15.09.08.03.17.02.26,0,.38-.14.72-.35,1.04-.57.04-.03.1-.02.13.01.04.04.09.06.15.08.25.06.59-.14,1.09-.49.04-.03.08-.06.11-.07.05.02.11.03.2.02h.03c.27-.08.49-.22.71-.36l.12-.08s.06-.04.09-.08c.02-.01.04-.04.07-.06.06.06.13.1.2.12.04,0,.07.05.08.09.04.3.17.66.44.78.09.04.24.07.42-.03.04-.02.08-.02.12,0,.11.08.21.1.29.1.11,0,.28-.04.44-.25l.03-.04c.07-.1.12-.15.19-.18.04-.02.07-.04.1-.06.06.06.14.09.22.1.12.02.24-.02.32-.11.1.05.23.05.33-.03.06-.05.1-.06.17-.02.02,0,.04.02.06.02.04.13.11.29.28.36.02.01.03.02.07.1l.02.04c.07.16.2.37.41.41.05,0,.13,0,.2-.03,0,0,0,0,0,.01l.03.12.1-.07c.16-.1.31-.29.42-.51.05.26.15.49.29.7-.46.38-.7,1.01-.6,1.57l.02.12.1-.06c.17-.1.33-.28.45-.52.05.32.18.63.36.88-.46.48-.56,1.05-.41,1.58l.03.12.1-.07c.16-.11.29-.3.39-.53.03.16.07.31.13.45.13.3.11.37.36.56-.05.07-.09.14-.12.21-.81-.34-1.8-.59-2.96-.59h0c-.87,0-1.76.14-2.67.43h0s0,0,0,0c-1.26.39-2.18.52-2.86.52,0,0,0,0,0,0,.06-.1.12-.2.17-.31.06-.14.1-.29.12-.44.01-.1.01-.21,0-.31h0s0-.02,0-.02c0-.05-.02-.11-.03-.16v-.04c-.1-.33-.4-.59-.64-.8-.24-.21-.52-.45-.91-.5-.31-.04-.67.03-1.08.2-.67.27-.91.2-1.12.13h-.05c-.24-.1-.76-.48-.76-.48l-.22-.16.35,1.02-1.1.1.1.12s.37.46,1.25.76c.2.06.39.08.57.08.55,0,1-.22,1.39-.4.14-.07.28-.13.41-.18.15-.05.29-.09.44-.1-.12.48-.54.82-.72.94l-.09.06v.04c.05.36.34,2.16,1.28,2.76.28.18.6.25.97.25.14,0,.29-.01.44-.03-.06.61-.1,1.21-.13,1.81l-6.71-4.39-.3-1.51s-2.81-.61-2.81-.61c-.12,0-.24.05-.31.15-.08.12-.07.26,0,.38l1.66,2.29,1.49-.32c-.11,1.4-.17,2.76-.18,4.05l-.73-.48-.3-1.51s-2.81-.61-2.81-.61c-.12-.01-.24.05-.31.15-.08.12-.07.26,0,.38l1.66,2.29,1.44-.31c-1.03,7.73.13,12.99,1.28,16.05,1.19,3.14,2.58,4.63,2.81,4.86.38.44,2.86,3.14,6.71,3.14,1.66,0,3.58-.51,5.68-1.93-.66,2.15-2.34,4.69-2.36,4.72l-.09.14h.17c.76-.03,1.37.03,1.83.12l-.28,1.16c-.04.11-.03.19-.03.19,0,.06.02.19.13.29.18.16.5.2.96.13.21-.04.37-.04.5-.03l.04,1.23s0,.05,0,.07c0,.03.02.06.04.09.15.23.7.35,1.63.35s1.48-.12,1.63-.35c.04-.06.04-.12.04-.16l.04-1.23c.13-.01.29,0,.5.03.46.08.78.03.96-.13.11-.1.13-.23.13-.29,0-.03,0-.05,0-.08,0-.07-.03-.14-.05-.21-.03-.12-.06-.24-.09-.35-.03-.14-.07-.28-.1-.42-.02-.09-.04-.18-.07-.27,0,0,0-.01,0-.02.46-.09,1.07-.15,1.83-.13h.17s-.09-.13-.09-.13c-.02-.03-1.71-2.57-2.36-4.73,2.11,1.43,4.02,1.94,5.69,1.94,3.84,0,6.35-2.72,6.73-3.16.06-.06,1.51-1.49,2.78-4.84,1.15-3.05,2.31-8.31,1.28-16.05l1.44.31,1.66-2.29c.08-.11.08-.26,0-.38Zm-3.9-3.12l2.16-.47-1.3,1.79-1.09-.24.22-1.09Zm-37.28,1.32l-1.3-1.79,2.16.47.22,1.09-1.09.24Zm-1.17,3.95l-1.3-1.79,2.16.47.22,1.09-1.09.24Zm34.51-1.48l3.08-2.02c.1,1.41.16,2.78.16,4.07l-3.51,2.3c.15-1.32.23-2.75.26-4.35Zm-3.43,2.25l1.46-.96c-.07,1.61-.2,3.08-.41,4.45l-1.14.75c.11-1.34.14-2.75.08-4.24Zm-.14,4.81l1.82-1.19c-.11,2.5-.44,5.01-1.22,7.39-.39,1.22-.91,2.4-1.53,3.54-.62,1.12-1.35,2.18-2.17,3.17-.43.52-.88,1.01-1.35,1.48-.34-.33-.59-.62-.75-.81,2.42-3.02,4.6-7.49,5.2-13.58Zm-7.98,13.48c-.05-.08-.13-.1-.19-.13h-.03s-.07-.05-.07-.06c0,0,.03-.02.04-.04.02-.01.04-.03.07-.06.09-.12.09-.27,0-.4-.13-.18-.4-.28-.59-.22-.08.02-.16.06-.23.1-.04.02-.07.04-.11.05-.05.02-.18.07-.26,0-.03-.02-.05-.05-.08-.08-.03-.04-.07-.09-.12-.12-.08-.05-.17-.06-.25-.06l-.99-.06c-.13-.01-.21.03-.27.14-.02.02-.06.02-.13.02-.06,0-.12,0-.18.02-.1.03-.17.12-.22.19-.03.04-.06.09-.1.11-.09.07-.23.05-.37.03-.07,0-.13-.02-.2-.02-.18,0-.45.08-.58.25-.08.1-.1.21-.07.34.01.02.03.05.04.07,0,.01.02.03.03.04.02.05,0,.11-.05.16-.06.06-.15.07-.26.08-.12.01-.25.03-.35.12-.03.03-.05.07-.07.11-.02.03-.03.06-.05.08-.02.02-.04.03-.07.04-.03.01-.06.03-.09.04-.19.12-.19.35-.19.54,0,.09,0,.15-.01.21-1.57-1.5-3.17-3.6-4.44-6.34h1.29c.03.06.06.11.08.17.18.4.37.81.72,1.08.09.1.16.22.23.35.07.12.14.25.23.36.14.16.31.28.47.39.46.32.99.67,1.59.8.15.03.29.05.44.06.18.02.34.04.51.08.12.03.23.07.35.12.1.04.2.07.3.1.37.11.76.13,1.14.14.63.02,1.29.05,1.92-.12l.09-.02c.31-.08.63-.17.85,0,.08.07.15.17.22.28.11.18.23.37.47.39.06,0,.07,0,.07.01.01.01.01.08.01.12,0,.03,0,.07,0,.11.02.11.1.2.23.24.03,0,.07.01.1.01.11,0,.21-.05.28-.13.16-.2.08-.49-.1-.64h-.01s-.04-.04-.04-.05c0,0,0-.03.04-.1.24-.34.64-.57,1.06-.61.03,0,.06,0,.1,0,.15,0,.3-.02.43-.1l.12-.08-.13-.07c-.09-.05-.17-.1-.25-.16.31-.17.65-.23,1.02.18-.95,1.46-1.99,2.65-3,3.59-.02-.03-.03-.08-.04-.14v-.02s-.04-.07-.06-.09c-.01-.02-.03-.04-.03-.05-.01-.03-.01-.06-.01-.1,0-.03,0-.06,0-.1-.03-.17-.17-.3-.41-.38-.06-.02-.08-.04-.09-.04.02-.07.06-.15.12-.23.1-.15.21-.31.12-.52Zm-5.06-20.79c-2.7.95-4.84.29-6.09-.38.26-.07.53-.15.82-.22,2.46-.47,4.3-.07,5.28.26-.01.12-.02.23,0,.35Zm.95.1c.15.21.34.38.55.49l.11.06.02-.12c.04-.22,0-.47-.07-.72.18-.09.36-.19.54-.3.04.09.08.18.13.27l.06.11.08-.1c.07-.09.13-.19.17-.31,1.77,1.06,3.38,1.43,4.76,1.43,1.69,0,3.04-.55,3.91-1.05.01,0,.09-.05.14-.08.35.1.67.18.97.25,0,.05,0,.12,0,.14.28,2.88.23,5.49-.05,7.83h-19.87c-.3-2.39-.36-5.04-.07-7.97.31-.07.64-.16.99-.26,1.42.84,4.21,1.82,7.61.32Zm-1.67-6.05h0s-.02-.05-.02-.08c.17.15.37.27.58.32l.12.03v-.12c-.03-.25-.16-.54-.37-.79h0c-.14-.16-.36-.33-.58-.43.03-.13.04-.28.04-.44l.58.45.16.23v.47s.06.08.09.11c.02.02.03.04.05.07l.02.02s.03.05.03.07c0,.18.05.35.16.52-.02.02-.04.05-.06.07-.04.06-.09.11-.13.16-.1.11-.17.24-.22.38-.16-.12-.35-.25-.42-.29.04-.23.03-.49-.02-.76Zm.22-6.48c0,.11-.02.22-.04.34-.03.18-.1.37-.18.54-.14.27-.34.49-.53.61,0-.43.16-.86.44-1.18.1-.12.21-.22.32-.31Zm-.13-.31c-.34-.04-.62.05-.85.28,0,0,0,0-.01,0,0-.09.02-.16.05-.23.03-.06.06-.11.1-.16.08-.1.18-.19.3-.26.07-.04.15-.05.22-.05.07,0,.13.01.19.03.07.02.11.07.13.15.01.07,0,.11-.04.23,0,0,0,0-.01,0-.02,0-.05,0-.07,0Zm-.51,3.08h0c0-.07,0-.14,0-.21.15.2.35.37.58.46l.11.05v-.12c.02-.25-.07-.56-.24-.83h0c-.11-.17-.29-.36-.49-.49.23-.14.44-.38.6-.68h0c.09-.17.15-.36.19-.54.06.2.15.4.24.54.16.26.39.48.65.63-.29.51-.31,1.12-.06,1.6l.06.11.08-.09c.15-.17.25-.43.29-.72.16.32.39.59.67.77-.1.08-.19.19-.27.3-.25.33-.36.77-.3,1.18l.02.12.11-.06c.21-.11.4-.33.53-.62.06.36.21.68.43.94-.21.14-.4.32-.53.54-.15.24-.23.54-.23.83v.12s.11-.04.11-.04c.19-.07.39-.23.55-.44-.02.37.06.73.22,1.04-.11.05-.21.1-.32.18-.34.23-.58.62-.64,1.02l-.02.12.12-.02c.21-.03.43-.15.63-.34-.09.43-.04.89.13,1.26-.13.15-.24.31-.33.51-.18.37-.24.79-.19,1.19-.25-.22-.57-.47-.95-.72-.03-.1-.06-.2-.09-.27h0s-.04-.08-.07-.12c.15.06.31.09.46.09.04,0,.08,0,.12,0h.11s-.04-.12-.04-.12c-.09-.23-.31-.47-.57-.63h0s-.04-.02-.06-.03c-.01-.18-.06-.36-.27-.39-.08,0-.15,0-.23.02-.02,0-.03,0-.04,0-.01,0-.02-.02-.02-.03-.05-.15-.08-.3-.09-.45.12.09.24.16.38.2l.11.03v-.12c0-.25-.12-.55-.31-.8h0s-.06-.06-.11-.1c.02-.05.04-.09.06-.13.11-.18.22-.35.36-.51.02-.02.05-.05.08-.05-.13-.08-.22-.18-.25-.34-.02-.12-.03-.26,0-.38,0-.02.01-.04.03-.05-.09-.02-.15-.11-.18-.2-.02-.08-.03-.2-.02-.29v-.04s-.35-.53-.35-.53c0,0-.36,0-.57-.32,0,0,0-.01-.01-.02,0-.06-.01-.12-.02-.18.14.12.3.21.47.26l.11.03v-.12c-.01-.25-.13-.55-.33-.8h0c-.16-.2-.37-.36-.6-.47.11-.21.18-.48.2-.76Zm-.15-1.01c.18.11.35.3.45.45.12.19.2.41.22.59-.17-.1-.32-.24-.43-.41-.07-.1-.12-.22-.16-.34-.02-.06-.03-.12-.05-.18,0-.04-.02-.07-.02-.11Zm.99-1.75c.24.15.46.37.61.61.16.26.25.56.26.81-.23-.13-.43-.33-.57-.56-.16-.28-.27-.59-.29-.86Zm.92,1.71c.07.19.1.43.09.66-.02.23-.08.44-.18.6-.15-.39-.12-.86.09-1.26Zm.2-.05c.23.16.44.39.58.64.12.23.2.47.22.69v.1c-.46-.24-.75-.82-.8-1.42Zm.79,1.75s0,.05,0,.08c0,.04,0,.08,0,.12-.02.16-.06.32-.12.46-.09.2-.22.38-.36.49-.01-.32.09-.66.28-.92.06-.08.13-.16.2-.23Zm.89,2.86c0,.3-.05.59-.16.8h-.03c-.18-.37-.25-.81-.16-1.23.03-.14.07-.31.13-.45.13.27.21.57.22.87Zm-.09-1.27c.17.12.32.29.43.48.11.2.17.42.18.61-.25-.16-.45-.44-.54-.76-.03-.1-.06-.22-.07-.33Zm-.44,5.89c-.06.13-.14.25-.22.34-.1-.41-.05-.87.14-1.26.07-.15.15-.27.24-.39.02.11.03.22.04.33,0,.1,0,.21,0,.32-.06.14-.11.28-.15.45-.02.07-.03.14-.04.21Zm0,.58s-.01,0-.02.01c-.03-.03-.07-.07-.11-.11.04-.04.07-.08.11-.12,0,.08.01.15.02.22Zm-1.26-.17c.23.17.43.41.56.66.14.28.21.58.2.83-.33-.22-.58-.59-.68-1.02-.03-.15-.07-.32-.08-.48Zm.02.83s-.03.01-.04.02c-.03-.01-.06-.03-.09-.04.02-.04.03-.08.04-.12h0s.01-.05.02-.07c.02.07.05.14.08.21Zm.64-.33c-.16-.28-.4-.53-.66-.71,0-.11-.02-.3-.06-.49.4.27.72.55.95.77,0,.01,0,.03.01.04l.04.12.06-.05s.05.05.07.08c0,0-.01,0-.02.01-.09.05-.18.1-.27.15-.04.02-.09.05-.13.08Zm.76-.85c.06-.13.11-.27.15-.41h0c.02-.08.03-.16.04-.24.04.1.08.2.11.31.05.18.08.38.08.57,0,.31-.08.6-.2.81-.15-.31-.21-.68-.17-1.04Zm.18-1.44c.15.15.27.33.36.53.08.21.12.41.11.59-.29-.27-.47-.69-.46-1.12Zm-.14-.3c-.15-.39-.16-.86-.02-1.27.05-.15.11-.29.19-.42.03.1.06.21.08.32.03.18.04.38.02.57-.04.31-.14.59-.27.79Zm-.28-1.28c-.15.16-.32.29-.49.34.08-.31.28-.6.54-.78.09-.06.18-.11.27-.15-.02.05-.04.11-.07.17l-.02.05c-.06.13-.14.26-.24.37Zm-.02-4.34c.04.05.08.1.13.15.08.15.15.31.19.46.05.2.06.4.05.58v.07s-.01.04-.01.06c0,.04-.01.08-.02.12h-.02c-.26-.29-.42-.71-.44-1.14,0-.09,0-.18,0-.27,0-.04.01-.09.01-.13,0,0,0-.01,0-.02.03.04.06.09.09.13Zm-.04-.38c.2.05.4.14.56.27.17.14.31.32.39.5-.23-.04-.45-.16-.63-.33-.09-.16-.2-.3-.32-.43Zm.27,2.09c-.02.2-.1.43-.22.64-.12.19-.27.34-.42.43.02-.21.09-.42.2-.6.11-.18.27-.34.44-.47Zm-1.67,4.18c.19.12.35.27.45.43-.19,0-.39-.06-.56-.16-.05-.03-.09-.06-.13-.09-.11-.06-.27-.25-.26-.24-.03-.04-.07-.08-.09-.12.21.01.42.08.6.18Zm-.46-.31s0-.02.01-.02c.03-.05.07-.08.11-.1.02-.01.05-.02.07-.02s.04,0,.06.02c.02,0,.03.02.04.04,0,.02.02.03.02.05,0,.02,0,.05,0,.07,0,.01,0,.03,0,.04-.1-.03-.22-.06-.33-.08Zm-.85-5.05c.14.18.24.39.27.57-.19-.08-.36-.23-.5-.41-.06-.16-.14-.32-.23-.46-.01-.04-.03-.07-.04-.11.19.09.36.23.5.4Zm-.18,1.47c.2.08.39.24.51.37.15.17.25.37.3.56-.18-.07-.35-.19-.48-.34-.14-.16-.25-.36-.32-.58,0,0,0,0,0,0Zm.9,2.27c.14.18.23.39.26.57-.27-.12-.5-.36-.63-.66-.04-.1-.09-.21-.11-.32.19.1.36.24.49.4Zm-.03,1.69c.07.08.15.16.24.23.11.13.21.26.29.41.14.28.21.58.2.83-.33-.22-.58-.59-.68-1.02,0-.04-.02-.08-.03-.13,0-.09-.02-.19-.04-.28,0-.02,0-.05,0-.07,0,0,.02.02.03.02Zm.65,2.4c-.07.21-.17.39-.29.52-.03-.2-.01-.4.05-.59.07-.22.18-.42.3-.56.02.21,0,.43-.06.63Zm3.77.31c.76-.32,2.82-1,5.75-.43.26.07.51.14.75.21-1.54.81-3.77,1.35-6.5.23Zm7.99,8.63c-.37,2.7-1.06,5.05-1.94,7.06h-7.71v-.21l.52-1.11-.5-1.5c.26.04.53.12.79.27.05.22.3,1.13.72,1.27.15.05.33.07.52.07.36,0,.73-.08.88-.18l.1-.06-.09-.07s-.31-.22-.61-.53c-.4-.41-.39-1.19-.37-1.6,0-.03,0-.08.01-.14.06-.58.23-2.35-1.27-2.64-.32-.06-.65-.06-.97,0-.28.05-.56.14-.81.27-.21.1-.42.23-.61.37-.11.08-.24.16-.33.26-.12.12-.14.25-.16.42-.02.15-.04.29-.03.44,0,.08,0,.18.05.25.11.15.21.11.29.08.02,0,.03-.01.05-.02.03.22-.08,1.07-.2,1.83l-.03.18.16-.09s.51-.3,1.19-.39l-.5,1.5.54,1.11v.21h-7.47c-.88-2.01-1.58-4.36-1.96-7.06h19.75Zm-4.96,10.28c.07.07.14.12.22.18-.06.01-.13.02-.2.02-.03,0-.07,0-.1,0-.47.04-.91.3-1.18.68-.03.04-.1.14-.06.26.02.05.06.08.09.11h.01c.11.11.17.3.07.42-.05.06-.14.07-.2.05-.03,0-.09-.03-.1-.09,0-.03,0-.06,0-.09,0-.09,0-.18-.07-.24-.05-.04-.11-.06-.19-.06-.15-.01-.23-.15-.33-.31-.07-.12-.15-.24-.25-.32-.29-.23-.67-.12-1-.03l-.09.02c-.61.16-1.25.14-1.87.11-.37-.01-.74-.03-1.1-.13-.1-.03-.19-.06-.29-.1-.12-.04-.24-.09-.37-.12-.18-.05-.36-.07-.53-.08-.14-.02-.28-.03-.42-.06-.57-.12-1.08-.47-1.53-.77-.16-.11-.32-.22-.44-.36-.08-.1-.15-.21-.21-.33-.07-.13-.15-.27-.26-.39-.33-.26-.5-.64-.69-1.03-.02-.03-.03-.07-.05-.1h13.96c-.46,1-.97,1.92-1.5,2.75-.49-.52-.97-.33-1.3-.12l-.09.06.08.08Zm-5.71-4.55l.5-1.51c.12,0,.23,0,.36,0l.5,1.51-.5,1.06v.26h-.33v-.25l-.53-1.08Zm2.25-3.45c-.18-.4-.52-.75-.95-.82-.36-.06-.71.08-1.03.26-.26.15-.51.32-.73.52-.1.09-.2.19-.32.26-.04.03-.12.09-.17.09-.06,0-.08-.08-.08-.12,0-.18.01-.36.04-.54,0-.05.02-.11.04-.16.03-.06.09-.12.14-.16.58-.5,1.33-.85,2.1-.85.31,0,.63.06.89.23.37.24.57.67.64,1.11.07.43.03.87.01,1.31-.02.44,0,.89.16,1.3.15.37.42.68.77.87-.3.1-.62.14-.93.1-.1-.01-.21-.03-.29-.09-.1-.06-.16-.17-.22-.27-.13-.24-.23-.49-.29-.76-.01-.05-.02-.11-.06-.15-.02-.03-.06-.05-.09-.07-.41-.22-.88-.31-1.35-.29-.46.02-.92.16-1.34.35.1-.55.16-1.11.17-1.67,0-.03,0-.06,0-.09,0,0,0-.01,0-.02.01-.03.04-.06.07-.08.32-.3.68-.57,1.07-.76.29-.14.63-.24.93-.12.17.06.32.19.43.34.34.44.4,1.02.46,1.56.05,0,.11,0,.16,0-.04-.43-.08-.88-.25-1.28Zm10.5-15.05c.24-.21.48-.42.82-.46.28-.03.61.03,1,.18.73.3,1,.21,1.24.13l.05-.02c.16-.06.41-.22.59-.34l-.24.72.98.09c-.16.15-.49.39-1.04.58-.75.21-1.33-.07-1.84-.31-.15-.07-.29-.14-.42-.19-.52-.19-1.1-.16-1.57.08.12-.17.29-.32.45-.46Zm-.58.74c.29-.21.65-.31,1.02-.31.11.52.52.88.74,1.05-.17.16-.58.43-1.46.47-.1-.14-.45-.66-.3-1.21Zm-5.44.44h0c.85,0,1.73.14,2.62.42h0c2.9.89,4.2.42,4.62.07-.1.59-.41,1.95-1.16,2.43-.7.45-1.77.15-3.27-.27-.34-.09-.69-.19-1.07-.29-3.18-.61-5.36.21-6,.51-.13-.06-.26-.12-.4-.19-.03-.02-.05-.03-.08-.05-.11-.07-.22-.13-.33-.19-.09-.05-.18-.1-.27-.15,0,0-.01,0-.02-.01.67-.71,2.48-2.28,5.36-2.28Zm-3.34.3s.03.06.05.08c.02.04.05.08.05.12,0,.1-.12.13-.19.1-.13-.05-.27-.16-.37-.26-.13-.12-.45-.56-.17-.69.15-.07.29.09.37.2.1.14.18.29.27.44Zm.03-8.82c.29-.46.13-1.11-.02-1.55l-.02-.08c-.35-1.18-.55-2.12.35-2.59.49-.25,1.13-.35,1.97-.31,2.03.1,4.1.85,6.15,2.22,2.4,1.61,4.6,3.29,6.71,5.14.32.28.65.55.96.82.83.69,1.69,1.41,2.41,2.21.2.23.4.44.49.7-.19-.08-.37-.2-.56-.33-.14-.09-.28-.19-.42-.27-.27-.16-.42-.26-.65-.49-.1-.09-.25-.08-.35,0-.1.09-.12.23-.04.35.05.07.08.11.1.15-.05-.03-.11-.06-.16-.1h-.01c-.16-.11-.32-.25-.48-.38-.13-.11-.26-.22-.39-.31l-.81-.57.48.87c.03.06.06.13.09.2,0,0,0,0,0,0-.27-.2-.56-.33-.84-.46l-.11-.05c-.1-.05-.21-.04-.3.02-.07.05-.11.13-.12.22-.21-.12-.4-.27-.6-.43-.05-.04-.11-.09-.16-.13l-.2-.16-.13.22s-.02.04-.04.07c0,0,0,0,0,0-.21-.07-.36-.19-.52-.34-.08-.07-.17-.14-.26-.21-.09-.06-.2-.07-.3-.03-.1.05-.16.14-.16.25v.02c0,.06,0,.16-.01.22,0,0-.01,0-.02,0-.33-.13-.61-.33-.91-.55-.16-.12-.33-.24-.51-.35l-.19-.12-.12.19s-.03.06-.04.09c-.38-.14-.73-.39-1.07-.63l-.08-.06s-.2-.15-.35-.05c-.05.03-.12.1-.11.23-.11-.04-.3-.15-.65-.4-.06-.04-.1-.07-.12-.08-.15-.11-.27-.08-.37-.05,0,0-.01,0-.02,0-.02,0-.07-.02-.09-.04-.19-.09-.38-.2-.55-.32-.01-.01-.03-.03-.05-.05-.12-.1-.28-.24-.47-.2-.09.02-.16.07-.21.15-.11-.04-.2-.04-.28.02-.13.09-.13.24-.12.3,0,.16-.03.32-.12.51-.03.06-.05.08-.05.08,0,0-.04,0-.1-.05,0,0-.01,0-.02-.01-.04-.04-.14-.12-.27-.1-.06,0-.14.04-.2.14-.04.06-.07.07-.07.08,0,0-.03-.02-.08-.07l-.03-.03c-.08-.11-.19-.25-.37-.33,0-.01-.02-.03-.03-.05l-.03-.04c-.05-.08-.15-.13-.25-.12-.1,0-.19.07-.23.16v.02c-.05-.05-.13-.11-.23-.12-.08,0-.15.02-.19.05-.14-.08-.3-.1-.47-.05-.08-.02-.15,0-.19.02-.13.06-.16.19-.18.23-.01.05-.04.15-.07.17-.18.09-.25.24-.29.33v.02c-.04.05-.06.09-.07.12-.06-.05-.15-.07-.23-.05-.09.02-.16.08-.2.16-.06.15-.2.25-.35.36h0s-.01-.07-.02-.11c-.01-.06-.02-.14-.05-.21l-.21-.58-.23.64s-.02.07-.04.11c-.06.17-.26.32-.39.32-.03,0-.08,0-.12-.15,0-.01,0-.02,0-.04,0-.06-.02-.17-.1-.27l-.19.15c-.06-.27-.25-.55-.28-.62-.05-.12-.02-.34.12-.6s-.22-.89-.22-.89c.49-.59.22-1.35-.02-1.8.17-.08.3-.19.39-.34Zm-.94.19s.09.09.22.11c0,0,.01.01.02.02.2.24.3.48.38.78.04.16.06.33.02.49-.03.12-.1.25-.19.33-.06.06-.11.12-.18.18,0,0-.03.02-.05.03-.14.07-.39.17-.8.22,0,0-.29.21.87-.04.06.07.12.15.18.24.07.11.1.17.07.3,0,.1-.07.22-.1.31-.04.1-.07.21-.06.32.02.27.28.43.34.68.04.14,0,.29-.09.39-.03.04-.13.09-.15.13-.01.04.03.11.04.16.01.09,0,.2-.02.29-.03.09-.09.17-.18.2.02,0,.03.03.03.05.03.12.02.26,0,.38-.03.16-.12.26-.25.34.03,0,.06.02.08.05.13.16.25.33.36.51.12.19.14.46.15.68,0,.23-.03.47-.1.69,0,.01,0,.03-.02.03-.01,0-.03,0-.04,0-.08-.01-.15-.03-.23-.02-.25.03-.28.28-.28.49l-.36-.4h0s-.21.7-.88.8c0,0,.58.1,1.03-.51.03.05.06.1.09.15.08.13.19.26.31.37.11.11.24.23.38.31.01,0,.03.01.04.02-.93.51-1.57,1.11-1.9,1.46-.03-.02-.07-.04-.1-.06.01-.08.02-.17.02-.25h0c0-.16-.02-.31-.05-.46.05.05.1.1.16.14l.1.07.03-.12c.06-.23.03-.54-.09-.83h0c-.11-.26-.29-.51-.5-.68.15-.22.25-.52.29-.85h0c.01-.13.01-.26,0-.38.17.23.4.4.65.49l.11.04v-.12c0-.25-.11-.55-.3-.81h0c-.15-.21-.37-.38-.59-.49.12-.24.18-.55.17-.88h0c0-.1-.01-.19-.03-.29.12.14.26.25.42.33l.11.05v-.12c.05-.25-.02-.56-.18-.84h0c-.13-.24-.34-.45-.57-.59.02-.21,0-.44-.06-.67h0c-.02-.07-.04-.13-.07-.2.19.11.4.18.61.2h.12s-.03-.11-.03-.11c-.06-.25-.24-.5-.49-.71h0c-.2-.16-.45-.27-.69-.32-.02-.26-.1-.54-.25-.8h0c-.18-.32-.46-.6-.77-.78l-.04-.02c-.01-.28-.11-.6-.28-.89h0c-.09-.15-.2-.28-.33-.4.04.01.08.03.1.03.1.03.33.27.42.35.03.03.1.05.16.07l.02.35s.2-.33.41-.35c0,0,.5.21.56.72.03.26.04.58.09.84.01.05.02.1.06.13.04.04.09.05.14.06.31.05.65.02.93-.14.13-.08.28-.19.29-.36.01-.21-.05-.41-.12-.6-.05-.12-.1-.24-.17-.36-.03-.06-.07-.11-.11-.17-.05-.06-.11-.1-.16-.16-.01-.01-.02-.03-.03-.04.25-.02.91-.02,1.3.45Zm-1.55,6.37c.18.1.36.25.48.42.13.19.22.39.25.58-.27-.13-.5-.38-.63-.68-.04-.1-.08-.21-.11-.32Zm-.52-7.68v.05c0,.06,0,.12-.02.18-.04.17.05.28.15.37.02.02.05.04.08.05.01,0,.02.01.03.02.27.19.48.42.65.7.11.19.25.43.29.65.04.19-.12.36-.28.44-.21.11-.47.14-.71.08-.02,0-.05-.01-.07-.03-.03-.03-.03-.08-.03-.13,0-.1,0-.2,0-.3,0,0-.01-.14-.01-.14,0-.02,0-.04,0-.06v-.02c-.02-.46-.23-.83-.65-1.13-.08-.06-.18-.12-.32-.07-.03,0-.06.01-.1.02-.02,0-.03,0-.04,0-.07,0-.12,0-.16-.05-.29-.26-.61-.44-.96-.51,0,0,0,0-.01,0,.03-.18.03-.33-.02-.5.05-.03.1-.05.15-.08.05-.03.1-.08.15-.12.08-.07.17-.15.28-.15.05,0,.1,0,.14.02.04.01.08.01.12.02.1.01.2.02.29-.02.06-.02.12-.06.18-.05.05.01.09.05.13.08.04.03.09.04.14.05.08.02.15,0,.21-.03.02,0,.03-.01.05-.02.27.15.39.37.38.68Zm-1.28-1.17c.19.08.39,0,.39,0h.03c.13-.07.22-.1.31-.1.09,0,.18.02.23.07.04.04.07.09.08.12,0,.02.03.08,0,.14-.01.02-.03.04-.05.06-.08.08-.21.09-.31.04-.08-.04-.14-.12-.22-.14-.09-.02-.14.05-.22.08-.12.06-.27-.01-.4-.03-.26-.03-.44.13-.61.31-.06.07-.15.15-.25.12-.04,0-.07-.04-.1-.07-.05-.04-.1-.06-.15-.06-.1-.01-.21,0-.31-.03-.16-.06-.14-.24-.05-.36.12-.15.42-.05.55.04.03.02.06.04.09.04.04,0,.07-.01.1-.04l.06-.05c.4-.59.65-.23.84-.15Zm-2.94,6.05c-.06.02-.11.07-.16.14-.01-.02-.03-.05-.05-.09v-.03c-.05-.1-.12-.25-.3-.33-.02-.02-.05-.12-.07-.17-.01-.04-.05-.17-.17-.23-.04-.02-.11-.04-.19-.02-.16-.05-.32-.04-.47.05-.05-.03-.11-.06-.19-.05-.1,0-.17.07-.22.12v-.02c-.05-.09-.14-.15-.24-.16-.1,0-.2.04-.25.12l-.03.04s-.02.04-.03.05c-.19.08-.29.21-.37.33l-.03.03c-.04.06-.07.07-.07.07,0,0-.04-.02-.08-.08-.02-.03-.09-.13-.22-.14-.06,0-.14,0-.23.09-.07.07-.11.08-.12.08-.07-.03-.19-.32-.18-.59,0-.06,0-.21-.12-.3-.08-.05-.17-.06-.28-.02-.05-.08-.12-.13-.21-.15-.19-.04-.35.1-.47.2-.02.02-.04.04-.05.04l-.11.07c-.19.12-.36.23-.55.29,0,0,0,0-.01,0-.1-.04-.22-.06-.36.04-.03.02-.08.05-.14.1-.21.15-.38.26-.51.33-.06.03-.13,0-.15-.05-.02-.05-.05-.09-.11-.12-.15-.09-.3.03-.35.07l-.07.05c-.34.24-.69.49-1.07.63,0-.03-.02-.06-.04-.09l-.12-.19-.19.12c-.18.11-.34.23-.51.35-.3.22-.59.42-.93.56,0,0,0,0,0,0-.01-.06-.01-.17-.01-.22v-.02c0-.11-.06-.2-.16-.25-.1-.05-.21-.04-.29.03-.1.07-.18.14-.26.21-.17.15-.32.27-.53.34,0-.01-.01-.02-.02-.04-.02-.05-.04-.1-.06-.15-.03-.07-.11-.09-.16-.04-.04.03-.08.07-.12.09-.09.07-.19.14-.28.21-.17.13-.33.25-.5.35,0-.09-.05-.16-.12-.22-.09-.06-.2-.07-.3-.02l-.11.05c-.28.13-.57.26-.84.46,0,0,0,0,0,0,.02-.06.05-.13.08-.19,0,0,0-.01,0-.02.03-.11.08-.21.09-.32.03-.16-.14-.15-.24-.09l-.19.12s0,0,0,0c-.04.03-.1.08-.2.16-.39.33-.67.54-.83.63.02-.04.05-.08.1-.16.07-.11.06-.26-.04-.34-.1-.09-.24-.09-.36,0-.28.27-.59.45-.9.64-.16.09-.32.19-.48.3-.08.05-.16.1-.24.14.08-.26.28-.48.5-.71.72-.79,1.57-1.51,2.4-2.21.32-.27.65-.54.96-.82,2.12-1.85,4.32-3.53,6.71-5.14,2.05-1.37,4.12-2.12,6.16-2.22.65-.04,1.82,0,2.35.62.26.3.34.82.25,1.35-.24-.03-.46.32-.46.32-.13-.07-.27-.11-.41-.09-.24.04-.36.27-.3.5v.02s.02.06.03.1c0,.01-.02.02-.03.04-.01,0-.02.02-.04.02-.02.01-.04.02-.05.04-.03.03-.06.05-.1.08-.06.05-.12.09-.18.15-.25.27-.33.59-.22.95,0,.02.01.04.02.06.12.33.08-.21.38-.35.25-.12.48-.14.65-.13-.1.08-.2.18-.29.29-.31.35-.48.83-.48,1.29-.02,0-.04,0-.06.01h0s0,0,0,0c-.39.09-.75.44-.83.85l-.02.11h.11c.18-.01.34-.1.45-.18-.12.44-.1.9.06,1.3-.28.25-.47.6-.55.96Zm.51-.21c-.01.05-.03.1-.04.15-.07.19-.17.35-.28.47-.01,0-.03.02-.05.02-.03-.4.12-.84.41-1.15-.03.15-.03.31-.04.46,0,.02,0,.03,0,.05Zm-.02-2.27c-.1.1-.22.17-.33.21.1-.26.33-.48.58-.57,0,0,0,0,0,0-.04.06-.07.12-.11.19-.04.06-.09.12-.14.17Zm.17.24c.04-.11.08-.23.12-.34.02-.03.03-.05.05-.08,0,.02,0,.03.02.05.02.07.04.14.06.2.05.21.07.42.06.63-.02.27-.09.51-.19.71l-.05.07v-.02c-.16-.38-.18-.82-.06-1.22Zm.02,2.04c.04-.17.06-.35.05-.5h0s.03.04.05.07c.03.07.06.14.08.2.04.09.09.18.15.25.03.08.06.17.08.25.05.27.05.53,0,.76l-.11-.02c-.2-.28-.31-.64-.32-1.01Zm.17,1.31c-.03.14-.04.29-.05.44-.02.08-.04.15-.06.21-.09.21-.21.39-.34.51-.03-.42.14-.86.45-1.17,0,0,0,.01,0,.02Zm.35,2.6c-.07.22-.17.41-.29.54-.07-.41.06-.87.34-1.21.03.23,0,.49-.05.67Zm.18-.89s0,0,0-.01l-.04-.06-.02-.02c-.22-.3-.34-.69-.34-1.09,0-.02,0-.04,0-.07.03-.12.05-.26.05-.39.17.23.3.51.37.79.06.3.06.61-.01.85Zm.21,1.51c-.14-.33-.19-.74-.12-1.15.19.22.33.5.41.78.05.2.07.41.06.61v.04s-.02.12-.02.12c0,0,0,0,0,0,0,.03,0,.05-.01.08-.11-.11-.22-.28-.31-.49Zm.17,1.05c.04-.09.09-.2.15-.28,0,.08.02.16.04.24.01.14,0,.28-.02.42-.05.23-.13.43-.24.58-.08-.3-.05-.65.08-.95Zm-10.19-1.42c-.13.05-.27.12-.42.19-.51.24-1.09.52-1.84.31-.55-.18-.88-.43-1.04-.58l.98-.09-.24-.72c.18.12.43.28.59.34l.05.02c.24.08.5.16,1.24-.13.39-.16.71-.22,1-.18.34.04.58.25.82.46.16.14.33.29.45.46-.47-.24-1.05-.27-1.57-.08Zm.68.05c.37,0,.73.1,1.02.31.15.55-.2,1.07-.3,1.21-.88-.04-1.3-.32-1.46-.47.22-.16.63-.53.74-1.05Zm.38,3.67c-.75-.48-1.06-1.85-1.16-2.43.43.35,1.72.82,4.62-.07h0c.89-.28,1.77-.42,2.62-.42h0c1.13,0,2.09.24,2.88.58-.16.39-.17.83-.03,1.2l.05.12.09-.08c.18-.16.32-.44.38-.75.14.33.37.6.64.79-.16.16-.3.41-.39.68,0,.03-.01.06-.02.08-1.01-.34-2.87-.73-5.35-.26-.35.09-.68.18-.99.27,0,0,0,0,0,0h0s-.05.01-.08.02c-1.49.42-2.57.72-3.27.27Zm1.16,2.7c-.05,1.45-.02,2.87.09,4.24l-1.14-.75c-.21-1.37-.34-2.83-.41-4.45l1.46.96Zm.15,4.82c.38,3.74,1.37,7.17,2.95,10.16.65,1.23,1.41,2.39,2.25,3.43-.15.19-.4.47-.72.78-.47-.48-.93-.97-1.35-1.49-.82-.98-1.55-2.05-2.17-3.17-.62-1.13-1.14-2.32-1.53-3.54-.77-2.37-1.11-4.86-1.22-7.35l1.8,1.18Zm-6.66-9.08l3.08,2.02c.03,1.61.12,3.04.26,4.35l-3.51-2.3c0-1.3.06-2.67.16-4.07Zm2.78,24.3s-1.51-1.48-2.74-4.75c-1.12-2.98-2.24-8.1-1.27-15.63l3.69,2.41c0,.45.02.89.03,1.34.1,2.57.43,5.14,1.23,7.58.39,1.22.91,2.4,1.53,3.54.62,1.12,1.35,2.18,2.17,3.17.75.9,1.57,1.74,2.44,2.52-1.59,1.05-3.94,1.81-6.71.21-.18-.18-.31-.32-.37-.39Zm.87.85c.96.46,1.87.64,2.71.64,2.89,0,4.95-2.19,5.61-2.98.81,1,1.69,1.88,2.59,2.63-5.22,3.53-9.2,1.17-10.91-.29Zm9.04,5.33c.36-.57,1.75-2.79,2.32-4.7.36.27.71.52,1.08.74l-.57,4.45c-.3-.15-1.18-.52-2.82-.49Zm1.84.34c.55.12.86.28.96.33,0,.01,0,.03-.03.06-.05.06-.2.17-.63.21-.22.02-.38.09-.5.18l.19-.78Zm1.42,2.36s-.09.08-.12.13l-.03-.75c.08.02.14.05.18.08.12.09.13.19.13.19h0c0,.05,0,.2-.17.34Zm.18-.63c-.2-.18-.49-.21-.75-.19-.26.02-.53.08-.79.06-.1,0-.21-.03-.28-.11-.12-.12-.1-.33,0-.46.11-.13.27-.2.44-.23s.33-.04.5-.09c.16-.05.32-.15.38-.3.03-.07.04-.14.05-.21l.24-1.87c.04-.31.08-.62.12-.93l.12-.93c.02-.16.04-.31.06-.47,0-.04,0-.08.01-.12,0-.02,0-.04,0-.06,0-.02.02,0,.04,0,.07.04.14.08.2.12.03.02.07.04.1.06-.15,1.91-.3,3.82-.45,5.74Zm2.73.76s-.07-.09-.12-.13c-.13-.11-.16-.22-.17-.29v-.05s.02-.11.14-.19c.04-.03.1-.06.18-.08l-.03.75Zm1.55-1.06s-.02.03-.03.04c-.09.09-.23.12-.37.13-.25,0-.5-.05-.75-.06-.25-.01-.52.02-.71.18-.14-1.82-.29-3.65-.43-5.47,0-.08-.01-.16.02-.23.05-.12.2-.17.33-.21.17,1.38.33,2.76.5,4.14.03.23.07.49.24.65.22.19.53.16.79.23.24.06.59.33.41.61Zm-.06-.65c-.11-.09-.27-.16-.5-.18-.43-.04-.58-.15-.63-.21-.02-.03-.03-.05-.03-.06.1-.06.41-.21.96-.33l.19.78Zm1.65-1.12c-1.63-.03-2.52.34-2.82.49l-.57-4.45c.35-.22.71-.46,1.07-.74.56,1.91,1.95,4.14,2.32,4.7Zm-4.66-4.04c-.93-.46-2.02-1.19-3.13-2.23.04-.11.04-.23.04-.34,0-.17,0-.33.11-.4.02-.01.04-.02.06-.03.04-.02.08-.04.12-.07.04-.04.06-.08.09-.12.01-.03.03-.05.04-.07.05-.05.14-.06.24-.07.12-.01.26-.03.36-.13.1-.09.13-.24.08-.35-.01-.02-.02-.05-.04-.07,0-.01-.02-.03-.02-.03-.02-.06,0-.12.04-.18.1-.12.3-.2.44-.19.06,0,.12,0,.18.02.16.02.34.05.49-.06.06-.04.1-.1.14-.15.04-.06.08-.11.13-.13.03-.01.08,0,.12,0,.09,0,.2,0,.28-.09v-.02c.03-.05.05-.06.11-.05l.99.06c.06,0,.12,0,.17.04.03.02.05.05.08.08.03.04.07.08.11.12.11.07.26.08.43,0,.04-.02.08-.04.12-.06.07-.03.13-.07.2-.08.12-.04.32.03.4.15.05.07.05.13.01.18-.01.01-.02.02-.04.03-.04.03-.09.06-.11.13-.03.12.06.22.17.26h.04s.09.04.09.05c.04.11-.01.2-.11.35-.06.1-.13.2-.15.31h0s0,.02,0,.02c.02.12.15.17.21.19.08.03.27.11.29.25,0,.02,0,.05,0,.07,0,.05,0,.1.03.16.01.04.04.06.06.09.01.02.02.03.03.05.01.09.04.16.08.22-1.07.97-2.11,1.66-3,2.1Zm2.79-1.02c.86-.7,1.74-1.57,2.6-2.62.65.79,2.71,2.99,5.61,2.99.84,0,1.74-.18,2.7-.64-1.73,1.46-5.71,3.79-10.91.27Zm14.52-5.88c-1.23,3.27-2.7,4.72-2.71,4.73-.07.08-.2.22-.39.41-2.76,1.59-5.1.84-6.69-.2.87-.78,1.68-1.61,2.43-2.51.82-.98,1.55-2.05,2.17-3.17.62-1.13,1.14-2.32,1.53-3.54.8-2.44,1.13-5.02,1.23-7.58.02-.46.03-.92.04-1.38l3.66-2.4c.97,7.53-.15,12.65-1.27,15.63Zm2.94-16.05l-1.09-.24.22-1.09,2.16-.47-1.3,1.79Z" style="fill: #575756; stroke-width: 0;"/>
    <path d="m34.48,15.99c.12,0,.24.02.36.03.06,0,.11.02.14.03.05.03.07.08.07.15,0,.06,0,.12-.01.18,0,.04,0,.07,0,.09v.04c.07,0,.13.01.19.02v-.02s-.03-.04-.04-.07c0-.02,0-.05,0-.09,0-.05,0-.1.01-.14,0-.06,0-.11-.02-.14-.02-.03-.05-.05-.09-.08.05-.02.1-.05.13-.09.04-.04.06-.09.07-.15.02-.12-.03-.21-.13-.27-.06-.03-.13-.05-.22-.06-.19-.02-.37-.03-.56-.04-.03.36-.05.72-.07,1.07.05,0,.1,0,.15.01.01-.15.02-.31.03-.46Zm.04-.49c.13,0,.26.02.4.03.06,0,.1.02.13.04.06.03.08.09.07.17,0,.07-.04.12-.08.14-.05.02-.11.03-.18.02-.12-.01-.24-.02-.37-.03.01-.12.02-.24.03-.37Z" style="fill: #575756; stroke-width: 0;"/>
    <path d="m36.3,16.45c.06-.08.11-.18.13-.29.03-.14.02-.27-.04-.38-.07-.12-.18-.2-.35-.22-.16-.03-.32-.05-.48-.07-.06.35-.11.71-.16,1.06.15.02.3.04.45.07.19.03.34-.02.45-.17Zm-.72,0c.04-.27.09-.54.13-.82.1.01.19.03.28.05.13.02.22.07.26.16.04.08.05.19.02.32,0,.04-.02.07-.03.11-.03.06-.06.11-.1.15-.05.05-.1.07-.17.08-.03,0-.08,0-.13,0-.09-.01-.18-.03-.27-.04Z" style="fill: #575756; stroke-width: 0;"/>
    <path d="m37.35,16.82c-.22-.06-.44-.12-.66-.17.03-.12.06-.24.09-.35.21.05.41.1.62.16.01-.04.02-.08.04-.12-.21-.06-.41-.11-.62-.16.03-.11.05-.21.08-.32.23.05.46.11.69.18.01-.04.03-.08.04-.13-.28-.08-.56-.15-.85-.21-.08.35-.17.7-.25,1.05.27.06.53.13.8.2.01-.04.02-.08.04-.12Z" style="fill: #575756; stroke-width: 0;"/>
    <path d="m37.64,17.04c.09-.28.18-.55.27-.83.1.34.19.67.27,1.01.05.02.11.04.16.06.13-.34.26-.67.39-1-.05-.02-.1-.04-.14-.05-.1.27-.21.54-.31.82-.08-.34-.16-.67-.26-1.01-.06-.02-.12-.04-.18-.06-.11.34-.22.68-.33,1.03.05.01.09.03.14.04Z" style="fill: #575756; stroke-width: 0;"/>
    <path d="m31.92,16.5c.05,0,.1-.01.15-.02-.01-.14-.03-.29-.04-.43.13-.23.26-.46.41-.68-.06,0-.13,0-.19.01-.11.18-.21.36-.3.55-.13-.16-.26-.32-.4-.47-.06,0-.13.02-.19.03.18.19.36.38.53.58.02.14.03.29.05.43Z" style="fill: #575756; stroke-width: 0;"/>
    <path d="m33.53,16.45c.19,0,.33-.06.44-.18.09-.1.14-.23.15-.4,0-.15-.02-.27-.1-.37-.1-.12-.25-.19-.47-.19-.21,0-.37.07-.47.21-.08.11-.12.23-.11.38,0,.16.06.3.15.4.1.11.24.16.42.16Zm-.28-.89c.08-.08.18-.12.31-.12.13,0,.23.04.3.12.07.08.1.18.1.31,0,.12-.04.23-.11.32-.06.09-.16.13-.3.13-.14,0-.25-.04-.31-.12-.06-.08-.1-.18-.1-.3,0-.15.04-.26.11-.34Z" style="fill: #575756; stroke-width: 0;"/>
    <path d="m16.77,17.3c-.11-.31-.23-.61-.35-.92-.05.02-.1.04-.16.06.14.34.27.69.4,1.04.23-.08.46-.16.7-.23-.01-.04-.03-.08-.04-.13-.19.06-.37.12-.56.18Z" style="fill: #575756; stroke-width: 0;"/>
    <path d="m17.23,16.16c.12.35.23.71.34,1.06.05-.01.1-.03.15-.04-.11-.36-.21-.71-.33-1.06-.05.02-.11.03-.16.05Z" style="fill: #575756; stroke-width: 0;"/>
    <path d="m18.64,16.38s-.09-.04-.15-.04c.04-.03.06-.06.08-.08.03-.05.04-.11.02-.18-.01-.06-.04-.11-.09-.15-.08-.06-.19-.08-.33-.05-.17.04-.35.08-.52.13.11.35.21.71.31,1.07.16-.04.31-.08.47-.12.15-.03.25-.1.3-.2.04-.07.04-.13.03-.2-.02-.08-.06-.14-.12-.18Zm-.7.04c-.03-.11-.06-.22-.1-.33.1-.03.19-.05.29-.07.07-.02.13-.02.16-.02.07.01.11.05.13.12.02.07,0,.13-.05.17-.03.03-.08.05-.15.06-.1.02-.19.04-.29.07Zm.65.29c-.03.06-.09.1-.18.12-.11.03-.22.05-.33.08-.03-.13-.07-.25-.1-.38.1-.03.21-.05.31-.08.07-.02.12-.02.17-.01.08.01.13.06.15.14.01.05,0,.09-.01.13Z" style="fill: #575756; stroke-width: 0;"/>
    <path d="m19.85,16.51c-.24.03-.47.07-.71.11-.02-.12-.05-.25-.07-.37.22-.04.44-.07.66-.1,0-.04-.01-.08-.02-.13-.22.03-.44.06-.66.1-.02-.11-.05-.22-.07-.33.24-.04.49-.08.73-.11,0-.04-.01-.09-.02-.13-.3.04-.6.09-.9.14.08.36.16.73.23,1.09.28-.05.57-.1.85-.13,0-.04-.01-.09-.02-.13Z" style="fill: #575756; stroke-width: 0;"/>
    <path d="m20.32,16.56c-.02-.16-.04-.31-.06-.47.12-.01.25-.02.37-.03.07,0,.12,0,.15,0,.06.02.09.07.1.14.01.06.02.12.03.19,0,.04,0,.07.01.09l.02.04c.06,0,.13,0,.2-.01v-.03s-.05-.03-.06-.06c0-.02-.01-.05-.02-.09,0-.05-.01-.1-.02-.15,0-.06-.02-.11-.05-.14-.03-.03-.06-.05-.11-.06.05-.03.09-.06.12-.11.03-.04.04-.1.03-.17-.01-.13-.08-.21-.2-.25-.07-.02-.15-.03-.24-.02-.19.02-.39.04-.58.06.06.37.11.73.16,1.1.05,0,.1-.01.16-.02Zm.29-1.01c.06,0,.11,0,.14.01.07.02.1.08.11.16,0,.07-.01.13-.05.16-.04.03-.1.05-.18.06-.13,0-.26.02-.38.04-.02-.13-.03-.25-.05-.38.14-.01.27-.03.41-.04Z" style="fill: #575756; stroke-width: 0;"/>
    <path d="m21.5,15.49c.02.33.03.65.05.98.05,0,.11,0,.16,0,0-.33-.02-.65-.04-.98.14,0,.28,0,.43,0,0-.04,0-.09,0-.13-.35,0-.69,0-1.03.02,0,.04,0,.09.01.13.14,0,.28-.01.42-.01Z" style="fill: #575756; stroke-width: 0;"/>
    <path d="m22.18,16.46c.04-.11.09-.22.13-.33.16,0,.32.01.49.02.04.11.07.23.11.34.06,0,.12,0,.18.01-.12-.38-.26-.76-.41-1.14-.06,0-.13,0-.2,0-.16.36-.32.73-.46,1.1.05,0,.11,0,.17,0Zm.39-.93c.06.17.12.33.18.5-.13,0-.26-.01-.39-.02.07-.16.14-.32.21-.48Z" style="fill: #575756; stroke-width: 0;"/>
    <path d="m24.2,16.39c.06-.09.1-.19.11-.31.02-.15,0-.28-.09-.39-.09-.12-.22-.2-.4-.22-.18-.02-.35-.04-.52-.05-.02.37-.04.74-.07,1.11.16.02.32.03.49.05.21.02.36-.04.47-.19Zm-.78.03c.02-.28.04-.57.06-.85.1.01.21.02.31.03.14.02.24.07.29.15.06.08.08.2.06.33,0,.04-.01.07-.03.11-.02.07-.05.12-.09.16-.05.05-.1.08-.17.09-.04,0-.08,0-.14,0-.1-.01-.2-.02-.3-.03Z" style="fill: #575756; stroke-width: 0;"/>
    <path d="m29.21,35.84h-.02s0-.1,0-.1h-.16v-.28h.3v-.72h0s-.23,0-.23,0h-.07s0-.21,0-.21c0-.06-.02-.11-.07-.13-.05-.03-.11-.03-.15,0-.05.03-.07.08-.07.13v.22h-.25q-.09,0-.2,0h-.05v-.22c0-.06-.03-.11-.07-.13-.05-.03-.11-.03-.16,0-.04.03-.07.08-.07.13v.22h-.05c-.12,0-.2,0-.2,0h-.25v-.22c0-.06-.03-.11-.07-.13-.05-.03-.11-.03-.16,0-.04.03-.07.08-.07.13v.22h-.3v.72h.3v.28h-.21v.1h-.02s-.2-.26-.2-.26h-.77l.35.51.43.28h1.35s0,.01,0,.01h0s0,0,0,0h1.35s.43-.29.43-.29l.35-.51h-.77l-.2.26Zm-.56-.93h.51v.38h-.51v-.38Zm.08.55v.28h-.2v.11h-.19s0-.11,0-.11h-.13v-.28h.51Zm-.92-.55h.05c.12,0,.18-.04.2-.06.03.02.09.06.2.06h.05v.38h-.52v-.38Zm.11.55v.28h-.17v.12h-.19v-.12h-.15v-.28h.51Zm-.94-.17v-.38h.51v.38h-.51Zm2.88.46l-.16.23-.35.22h-1.3s-1.3,0-1.3,0l-.35-.22-.16-.23h.36l.2.25h.27s0-.1,0-.1h.31v.11h.53s0-.11,0-.11h.26v.12h.53v-.12h.31v.1h.27s.2-.26.2-.26h.36Z" style="fill: #575756; stroke-width: 0;"/>
    <path d="m29.21,40.65h-.02s0-.1,0-.1h-.16v-.28h.3v-.72h0s-.23,0-.23,0h-.07s0-.21,0-.21c0-.06-.02-.11-.07-.13-.05-.03-.11-.03-.15,0-.05.03-.07.08-.07.13v.22h-.25q-.09,0-.2,0h-.05v-.22c0-.06-.03-.11-.07-.13-.05-.03-.11-.03-.16,0-.04.03-.07.08-.07.13v.22h-.05c-.12,0-.2,0-.2,0h-.25v-.22c0-.06-.03-.11-.07-.13-.05-.03-.11-.03-.16,0-.04.03-.07.08-.07.13v.22h-.3v.72h.3v.28h-.21v.1h-.02s-.2-.26-.2-.26h-.77l.35.51.43.28h1.35s0,.01,0,.01h0s0,0,0,0h1.35s.43-.29.43-.29l.35-.51h-.77l-.2.26Zm-.56-.93h.51v.38h-.51v-.38Zm.08.55v.28h-.2v.11h-.19s0-.11,0-.11h-.13v-.28h.51Zm-.92-.55h.05c.12,0,.18-.04.2-.06.03.02.09.06.2.06h.05v.38h-.52v-.38Zm.11.55v.28h-.17v.12h-.19v-.12h-.15v-.28h.51Zm-.94-.17v-.38h.51v.38h-.51Zm2.88.46l-.16.23-.35.22h-1.3s-1.3,0-1.3,0l-.35-.22-.16-.23h.36l.2.25h.27s0-.1,0-.1h.31v.11h.53s0-.11,0-.11h.26v.12h.53v-.12h.31v.1h.27s.2-.26.2-.26h.36Z" style="fill: #575756; stroke-width: 0;"/>
    <path d="m25.26,14.71s0,0,0,0c0,0,0,0,0,0Z" style="fill: #575756; stroke-width: 0;"/>
  </g>
  <g>
    <rect x="14.47" y="85.28" width="3.99" height="23.04" transform="translate(-80.33 113.27) rotate(-90)" style="fill: #ffc800; stroke-width: 0;"/>
    <rect x="31.74" y="91.04" width="3.99" height="11.51" transform="translate(-63.06 130.54) rotate(-90)" style="fill: #003189; stroke-width: 0;"/>
    <rect x="43.25" y="91.04" width="3.99" height="11.51" transform="translate(-51.55 142.04) rotate(-90)" style="fill: #d80025; stroke-width: 0;"/>
  </g>
</svg>
