<?xml version="1.0" encoding="UTF-8" standalone="no"?>
<svg
  xmlns:dc="http://purl.org/dc/elements/1.1/"
  xmlns:cc="http://creativecommons.org/ns#"
  xmlns:rdf="http://www.w3.org/1999/02/22-rdf-syntax-ns#"
  xmlns="http://www.w3.org/2000/svg"
  xmlns:sodipodi="http://sodipodi.sourceforge.net/DTD/sodipodi-0.dtd"
  xmlns:inkscape="http://www.inkscape.org/namespaces/inkscape"
  id="Layer_1"
  x="0px"
  y="0px"
  width="100"
  height="49"
  viewBox="0 0 100 49">
  <title
     id="title833">Universidad Industrial de Santander logo</title>
  <metadata
    id="metadata8"><rdf:RDF><cc:Work
         rdf:about=""><dc:format>image/svg+xml</dc:format><dc:type
    rdf:resource="https://purl.org/dc/dcmitype/StillImage"></dc:type><dc:title>Universidad Industrial de Santander logo</dc:title><cc:license
    rdf:resource="https://scripts.sil.org/OFL"/><dc:date>26 dic 2019</dc:date></cc:Work><cc:License
    rdf:about="https://scripts.sil.org/OFL"><cc:permits
           rdf:resource="https://scripts.sil.org/pub/OFL/Reproduction" />
    <cc:permits
      rdf:resource="https://scripts.sil.org/pub/OFL/Distribution"/>
    <cc:permits
      rdf:resource="https://scripts.sil.org/pub/OFL/Embedding"/>
    <cc:permits
      rdf:resource="https://scripts.sil.org/pub/OFL/DerivativeWorks"/>
    <cc:requires
      rdf:resource="https://scripts.sil.org/pub/OFL/Notice"/>
    <cc:requires
      rdf:resource="https://scripts.sil.org/pub/OFL/Attribution"/>
    <cc:requires
      rdf:resource="https://scripts.sil.org/pub/OFL/ShareAlike"/>
    <cc:requires
      rdf:resource="https://scripts.sil.org/pub/OFL/DerivativeRenaming"/>
    <cc:requires
      rdf:resource="https://scripts.sil.org/pub/OFL/BundlingWhenSelling"/></cc:License></rdf:RDF></metadata>
  <defs
    id="defs6"><pattern
       y="0"
       x="0"
       height="6"
       width="6"
       patternUnits="userSpaceOnUse"
       id="EMFhbasepattern" />
    <pattern
      y="0"
      x="0"
      height="6"
      width="6"
      patternUnits="userSpaceOnUse"
      id="EMFhbasepattern-7"/></defs>
  <sodipodi:namedview
    pagecolor="#ffffff"
    bordercolor="#666666"
    borderopacity="1"
    objecttolerance="1"
    gridtolerance="1"
    guidetolerance="1"
    inkscape:pageopacity="0"
    inkscape:pageshadow="2"
    inkscape:window-width="1366"
    inkscape:window-height="705"
    id="namedview4"
    showgrid="false"
    inkscape:showpageshadow="false"
    inkscape:zoom="1"
    inkscape:cx="40.460267"
    inkscape:cy="25.255786"
    inkscape:window-x="-8"
    inkscape:window-y="-8"
    inkscape:window-maximized="1"
    inkscape:current-layer="Layer_1"><inkscape:grid
       type="xygrid"
       id="grid4166" /></sodipodi:namedview>
  <g
    id="layer103-2"
    transform="matrix(0.79031136,0,0,1.094549,-7913.6229,-867.15497)"
    style="display:inline;fill:#00ff00;fill-opacity:1;stroke:none"/>
  <g
    transform="matrix(0.14420966,0,0,0.14420966,-17.25496,-56.551802)"
    id="#f1f0f0ff"/>
  <g
    id="g26504"
    transform="matrix(0.92225394,0,0,-0.92225394,29.089464,36.081974)"/>
  <g
    id="g24"
    transform="matrix(0.45886993,0,0,0.45886993,-85.279779,-168.14906)"><g
       id="g6"><path
         style="fill:#67b83c;stroke:#67b83c;stroke-width:2.68440008"
         d="m 193.633,369.555 h 91.137 c 2.785,0 5.063,2.278 5.063,5.064 v 91.137 c 0,2.785 -2.278,5.063 -5.063,5.063 h -91.137 c -2.785,0 -5.064,-2.278 -5.064,-5.063 v -91.137 c 0,-2.786 2.279,-5.064 5.064,-5.064 z"
         id="path2"
  /><path
    style="fill:#ffffff;stroke:#67b83c;stroke-width:2.68409991"
    d="m 304.968,369.555 h 91.137 c 2.785,0 5.063,2.278 5.063,5.064 v 91.137 c 0,2.785 -2.278,5.063 -5.063,5.063 h -91.137 c -2.785,0 -5.063,-2.278 -5.063,-5.063 v -91.137 c 0,-2.786 2.278,-5.064 5.063,-5.064 z"
    id="path4"
  /></g>
    <g
      id="g14"><path
         style="fill:#67b83c;stroke:none;stroke-width:0.45886993"
         d="m 75.705078,40.542969 c -0.683716,0 -1.367283,0.04391 -2.042969,0.134765 v 33.427735 c 1.351372,0.181712 2.734566,0.181712 4.085938,0 V 40.677734 c -0.675686,-0.09086 -1.359253,-0.134765 -2.042969,-0.134765 z m -3.037109,0.302734 c -1.440393,0.291841 -2.810738,0.786046 -4.085938,1.455078 v 24.919922 h -0.99414 V 42.869141 c -1.548686,0.961791 -2.929127,2.191608 -4.085938,3.626953 v 21.792968 c 1.156811,1.435346 2.537252,2.664703 4.085938,3.626954 1.552357,0.964544 3.266624,1.656341 5.080078,2.023437 z m 6.074219,0 v 18.552735 h 5.080078 v 7.822265 h -0.994141 v -6.828125 h -4.085937 v 13.546875 c 1.812995,-0.367096 3.527262,-1.058893 5.080078,-2.023437 1.548227,-0.962251 2.93062,-2.191608 4.08789,-3.626954 V 55.3125 h -5.082031 v -7.824219 h 0.994141 v 6.830078 h 4.08789 v -7.822265 c -2.321423,-2.880327 -5.535095,-4.915281 -9.167968,-5.650391 z"
         transform="matrix(2.1792668,0,0,2.1792668,185.55337,295.11391)"
         id="path8"
    /></g>
    <g
      id="g22"><path
         style="fill:#ffffff;stroke:none;stroke-width:0.45886993"
         d="m 35.164062,45.962891 c -0.05873,0 -0.106903,0.0014 -0.144531,0.0078 -0.03717,0.0064 -0.06793,0.01472 -0.0918,0.02344 -0.02478,0.0073 -0.0416,0.0191 -0.05078,0.03516 -0.0087,0.01652 -0.01172,0.03277 -0.01172,0.04883 v 1.910156 c -0.155557,-0.163357 -0.312969,-0.286203 -0.472656,-0.371093 -0.159687,-0.08351 -0.335536,-0.125 -0.527344,-0.125 -0.231729,0 -0.436616,0.0431 -0.613281,0.128906 -0.176206,0.08764 -0.323594,0.21003 -0.443359,0.371094 -0.118389,0.159686 -0.208502,0.353972 -0.269532,0.582031 -0.05965,0.22714 -0.0918,0.482502 -0.0918,0.765625 0,0.238153 0.02558,0.465972 0.07422,0.68164 0.04864,0.215669 0.12447,0.401319 0.230469,0.560547 0.105999,0.159687 0.244281,0.28725 0.414063,0.38086 0.170699,0.09361 0.377316,0.140625 0.61914,0.140625 0.220717,0 0.423992,-0.05117 0.609375,-0.15625 0.187219,-0.104623 0.367445,-0.251317 0.539063,-0.439454 v 0.435547 c 0,0.01835 0.006,0.03564 0.01563,0.05078 0.01009,0.01331 0.02531,0.02644 0.04687,0.03516 0.02248,0.0073 0.04911,0.01448 0.08398,0.01953 0.03396,0.005 0.07602,0.0078 0.126953,0.0078 0.04864,0 0.09013,-0.0028 0.125,-0.0078 0.0335,-0.005 0.06092,-0.01219 0.08203,-0.01953 0.02019,-0.0087 0.0362,-0.02185 0.04492,-0.03516 0.0087,-0.01514 0.01172,-0.03243 0.01172,-0.05078 v -4.865234 c 0,-0.01606 -0.0042,-0.03231 -0.01563,-0.04883 -0.01101,-0.01606 -0.0283,-0.02781 -0.05078,-0.03516 -0.02111,-0.0087 -0.0513,-0.01701 -0.08984,-0.02344 -0.03854,-0.0064 -0.08936,-0.0078 -0.150391,-0.0078 z m 7.511719,0 c -0.05873,0 -0.107363,0.0014 -0.144531,0.0078 -0.03763,0.0064 -0.06794,0.01472 -0.0918,0.02344 -0.02524,0.0073 -0.04206,0.0191 -0.05078,0.03516 -0.0087,0.01652 -0.01172,0.03277 -0.01172,0.04883 v 1.910156 c -0.156016,-0.163357 -0.315381,-0.286203 -0.474609,-0.371093 -0.159687,-0.08351 -0.335536,-0.125 -0.527344,-0.125 -0.232188,0 -0.434204,0.0431 -0.611328,0.128906 -0.175747,0.08764 -0.323594,0.21003 -0.44336,0.371094 -0.118388,0.159686 -0.210454,0.353972 -0.271484,0.582031 -0.06011,0.22714 -0.08984,0.482502 -0.08984,0.765625 0,0.238153 0.02408,0.465972 0.07227,0.68164 0.0491,0.215669 0.126423,0.401319 0.232422,0.560547 0.105999,0.159687 0.244281,0.28725 0.414062,0.38086 0.170241,0.09361 0.375363,0.140625 0.617188,0.140625 0.220716,0 0.425486,-0.05117 0.611328,-0.15625 0.18676,-0.104623 0.367445,-0.251317 0.539062,-0.439454 v 0.435547 c 0,0.01835 0.0055,0.03564 0.01563,0.05078 0.01009,0.01331 0.02577,0.02644 0.04687,0.03516 0.02248,0.0073 0.04911,0.01448 0.08398,0.01953 0.0335,0.005 0.07556,0.0078 0.126953,0.0078 0.04864,0 0.09013,-0.0028 0.125,-0.0078 0.03396,-0.005 0.06046,-0.01219 0.08203,-0.01953 0.01973,-0.0087 0.0362,-0.02185 0.04492,-0.03516 0.0087,-0.01514 0.01172,-0.03243 0.01172,-0.05078 v -4.865234 c 0,-0.01606 -0.0046,-0.03231 -0.01563,-0.04883 -0.01147,-0.01606 -0.0283,-0.02781 -0.05078,-0.03516 -0.02111,-0.0087 -0.0513,-0.01701 -0.08984,-0.02344 -0.039,-0.0064 -0.08936,-0.0078 -0.150391,-0.0078 z M 17.095703,46.1875 c -0.143626,0 -0.241693,0.02673 -0.294922,0.07813 -0.05369,0.05094 -0.08008,0.146695 -0.08008,0.287109 0,0.139956 0.02581,0.233187 0.07813,0.283204 0.05231,0.05002 0.148766,0.07422 0.291016,0.07422 0.143167,0 0.241234,-0.02478 0.294922,-0.07617 0.05323,-0.05093 0.08008,-0.146812 0.08008,-0.289062 0,-0.13812 -0.02581,-0.231692 -0.07813,-0.28125 -0.05231,-0.05002 -0.149225,-0.07617 -0.291016,-0.07617 z m 14.146485,0 c -0.143627,0 -0.241235,0.02673 -0.294922,0.07813 -0.05369,0.05094 -0.08008,0.146695 -0.08008,0.287109 0,0.139956 0.02535,0.233187 0.07812,0.283204 0.05231,0.05002 0.149225,0.07422 0.291016,0.07422 0.143626,0 0.241234,-0.02478 0.294922,-0.07617 0.05369,-0.05093 0.08008,-0.146812 0.08008,-0.289062 0,-0.13812 -0.02581,-0.231692 -0.07813,-0.28125 -0.05231,-0.05002 -0.149225,-0.07617 -0.291015,-0.07617 z M 8.4414062,46.28711 c -0.063783,0 -0.1137986,0.0033 -0.1523437,0.0098 -0.039004,0.006 -0.071842,0.01277 -0.095703,0.02148 -0.024779,0.0087 -0.041145,0.01852 -0.050781,0.0332 -0.010095,0.01514 -0.015625,0.03243 -0.015625,0.05078 v 2.933594 c 0,0.289088 0.041486,0.545485 0.125,0.767578 0.082138,0.221634 0.2002531,0.405437 0.3535157,0.552734 0.1532625,0.146838 0.3384421,0.257812 0.5527343,0.333984 0.2142923,0.07434 0.4522525,0.113282 0.7128907,0.113282 0.2840398,0 0.5373308,-0.04171 0.7617178,-0.121094 0.224388,-0.0803 0.414297,-0.197959 0.570313,-0.353516 0.155557,-0.156016 0.275861,-0.346501 0.359375,-0.572265 0.08443,-0.224388 0.126953,-0.481244 0.126953,-0.767579 V 46.40237 c 0,-0.01835 -0.0066,-0.03564 -0.01758,-0.05078 -0.01009,-0.01468 -0.02692,-0.02448 -0.05078,-0.0332 -0.02203,-0.0087 -0.05578,-0.01552 -0.0957,-0.02148 -0.03992,-0.0064 -0.0897,-0.0098 -0.148438,-0.0098 -0.05965,0 -0.110469,0.0033 -0.150391,0.0098 -0.03992,0.006 -0.07242,0.01277 -0.09766,0.02148 -0.0234,0.0087 -0.04115,0.01852 -0.05078,0.0332 -0.01009,0.01514 -0.01367,0.03243 -0.01367,0.05078 v 2.890625 c 0,0.210621 -0.02581,0.396377 -0.07813,0.554687 -0.05231,0.15831 -0.127905,0.289568 -0.226562,0.396485 -0.0982,0.107375 -0.219538,0.188958 -0.361328,0.242187 -0.14225,0.05369 -0.306569,0.08008 -0.4882814,0.08008 -0.1785004,0 -0.3368424,-0.02743 -0.4804687,-0.08203 C 9.2874378,50.429311 9.1654045,50.348987 9.0644531,50.240234 8.9621251,50.131941 8.885719,49.995389 8.8320312,49.832031 8.7797201,49.668674 8.7519531,49.479105 8.7519531,49.259766 v -2.857422 c 0,-0.01835 -0.00404,-0.03564 -0.013672,-0.05078 -0.00872,-0.01468 -0.026802,-0.02448 -0.048828,-0.0332 -0.023861,-0.0087 -0.056358,-0.01552 -0.097656,-0.02148 -0.041298,-0.0064 -0.091655,-0.0098 -0.1503907,-0.0098 z m 6.0761718,1.205079 c -0.187219,0 -0.371598,0.04863 -0.554687,0.144531 -0.184466,0.0959 -0.370222,0.248586 -0.554688,0.455078 V 47.65625 c 0,-0.01973 -0.0039,-0.03701 -0.01172,-0.05078 -0.0087,-0.01239 -0.02415,-0.02414 -0.04297,-0.03516 -0.02019,-0.01101 -0.04716,-0.01781 -0.08203,-0.02148 -0.03533,-0.0037 -0.07912,-0.0059 -0.132812,-0.0059 -0.05598,0 -0.101268,0.0022 -0.134766,0.0059 -0.03487,0.0037 -0.0615,0.01047 -0.08398,0.02148 -0.02111,0.01101 -0.03758,0.02277 -0.04492,0.03516 -0.0073,0.01377 -0.01172,0.03105 -0.01172,0.05078 v 3.287109 c 0,0.01835 0.0069,0.03644 0.01563,0.04883 0.0073,0.01377 0.02301,0.02552 0.04687,0.03516 0.02203,0.01009 0.05325,0.01644 0.0918,0.02148 0.03992,0.005 0.08913,0.0078 0.146484,0.0078 0.06057,0 0.110469,-0.0028 0.150391,-0.0078 0.03854,-0.005 0.06736,-0.01139 0.08984,-0.02148 0.02111,-0.0096 0.03919,-0.02139 0.04883,-0.03516 0.01009,-0.01239 0.01367,-0.03047 0.01367,-0.04883 v -2.296875 c 0.164275,-0.20695 0.324676,-0.36528 0.476562,-0.472656 0.150969,-0.106917 0.300204,-0.160156 0.451172,-0.160156 0.117012,0 0.220032,0.02281 0.308594,0.06641 0.08994,0.04359 0.160815,0.106857 0.216797,0.189453 0.05598,0.08351 0.100456,0.182158 0.128906,0.296875 0.02983,0.113341 0.04297,0.263035 0.04297,0.451172 v 1.925781 c 0,0.01835 0.0055,0.03644 0.01563,0.04883 0.01009,0.01377 0.02577,0.02552 0.04687,0.03516 0.02248,0.01009 0.0513,0.01644 0.08984,0.02148 0.04038,0.005 0.09131,0.0078 0.152343,0.0078 0.05736,0 0.10461,-0.0028 0.144532,-0.0078 0.03854,-0.005 0.06977,-0.01139 0.0918,-0.02148 0.02248,-0.0096 0.03724,-0.02139 0.04688,-0.03516 0.01009,-0.01239 0.01562,-0.03047 0.01562,-0.04883 V 48.9375 c 0,-0.233106 -0.01925,-0.434534 -0.06055,-0.601562 -0.03992,-0.165653 -0.106986,-0.311194 -0.199219,-0.435547 -0.09223,-0.123436 -0.21369,-0.222997 -0.363281,-0.296875 -0.149592,-0.0748 -0.335348,-0.111328 -0.554688,-0.111327 z m 8.654297,0 c -0.240907,0 -0.457783,0.04149 -0.652344,0.125 -0.195478,0.08489 -0.360845,0.204394 -0.498047,0.361328 -0.138119,0.156933 -0.242987,0.349831 -0.316406,0.574218 -0.0725,0.225764 -0.111328,0.479973 -0.111328,0.761719 0,0.29643 0.03721,0.556863 0.107422,0.78125 0.07112,0.224388 0.17438,0.410379 0.3125,0.558594 0.139496,0.148215 0.310392,0.259765 0.513672,0.335937 0.203279,0.07434 0.440663,0.113282 0.710937,0.113282 0.156016,0 0.302251,-0.01267 0.439453,-0.03516 0.137202,-0.02386 0.258659,-0.04968 0.363282,-0.07813 0.104622,-0.02983 0.191617,-0.06002 0.255859,-0.08984 0.06654,-0.02983 0.105375,-0.05264 0.119141,-0.06641 0.01285,-0.01239 0.02448,-0.02771 0.0332,-0.04102 0.0087,-0.01514 0.01391,-0.03001 0.01758,-0.04883 0.0037,-0.01881 0.007,-0.0391 0.0098,-0.0625 0.0023,-0.02248 0.0039,-0.04991 0.0039,-0.08203 0,-0.04359 -0.0031,-0.0815 -0.0059,-0.111328 -0.0037,-0.03028 -0.01024,-0.05288 -0.01758,-0.07031 -0.0073,-0.01744 -0.01748,-0.03034 -0.03125,-0.03906 -0.01239,-0.0087 -0.0284,-0.01367 -0.04492,-0.01367 -0.02983,0 -0.07155,0.01291 -0.128906,0.03906 -0.05736,0.02478 -0.130647,0.05427 -0.21875,0.08594 -0.08856,0.03212 -0.195264,0.06116 -0.316406,0.08594 -0.121601,0.02616 -0.26,0.03711 -0.416016,0.03711 -0.198232,0 -0.364751,-0.02559 -0.501953,-0.08203 -0.135825,-0.05598 -0.245646,-0.137106 -0.330078,-0.242188 -0.08627,-0.104622 -0.146884,-0.229079 -0.183594,-0.375 -0.03579,-0.147297 -0.05469,-0.311051 -0.05469,-0.49414 h 2.154297 c 0.06057,0 0.114845,-0.02108 0.162109,-0.06055 0.04726,-0.03992 0.07227,-0.108598 0.07227,-0.203125 v -0.109375 c 0,-0.214292 -0.02892,-0.414002 -0.08398,-0.603516 -0.05461,-0.188136 -0.138847,-0.354644 -0.255859,-0.49414 -0.117471,-0.139497 -0.266471,-0.249894 -0.447266,-0.332031 -0.181712,-0.08397 -0.402271,-0.125 -0.660156,-0.125 z m 3.804687,0 c -0.06975,0 -0.138777,0.0099 -0.208984,0.02734 -0.06929,0.01835 -0.139236,0.05039 -0.208984,0.09766 -0.07112,0.04726 -0.146719,0.112715 -0.226563,0.195312 -0.07847,0.08214 -0.162014,0.19057 -0.251953,0.322266 V 47.65625 c 0,-0.01973 -0.0063,-0.03701 -0.01367,-0.05078 -0.0087,-0.01239 -0.0237,-0.02414 -0.04297,-0.03516 -0.01973,-0.01101 -0.04716,-0.01781 -0.08203,-0.02148 -0.03487,-0.0037 -0.07958,-0.0059 -0.132812,-0.0059 -0.05644,0 -0.10081,0.0022 -0.134766,0.0059 -0.03487,0.0037 -0.0615,0.01047 -0.08398,0.02148 -0.02111,0.01101 -0.03712,0.02277 -0.04492,0.03516 -0.0069,0.01377 -0.0098,0.03105 -0.0098,0.05078 v 3.287109 c 0,0.01835 0.005,0.03644 0.01367,0.04883 0.0073,0.01377 0.02301,0.02552 0.04687,0.03516 0.02203,0.01009 0.05325,0.01644 0.0918,0.02148 0.03992,0.005 0.08913,0.0078 0.146484,0.0078 0.06103,0 0.110469,-0.0028 0.150391,-0.0078 0.03854,-0.005 0.06931,-0.01139 0.0918,-0.02148 0.02111,-0.0096 0.03678,-0.02139 0.04687,-0.03516 0.01009,-0.01239 0.01563,-0.03047 0.01563,-0.04883 V 48.78125 c 0.08489,-0.133531 0.162674,-0.247611 0.232422,-0.339844 0.07067,-0.09223 0.138424,-0.166674 0.203125,-0.222656 0.06378,-0.05644 0.126811,-0.09528 0.185547,-0.119141 0.05874,-0.02524 0.116704,-0.03906 0.177734,-0.03906 0.05093,0 0.09807,0.0055 0.142578,0.01563 0.04359,0.01009 0.08335,0.01978 0.119141,0.03125 0.03533,0.01101 0.0653,0.02219 0.09375,0.0332 0.02753,0.01147 0.05058,0.01563 0.07031,0.01563 0.02019,0 0.03586,-0.0042 0.04687,-0.01563 0.01009,-0.01101 0.02,-0.02772 0.02734,-0.04883 0.0064,-0.02019 0.01138,-0.04877 0.01367,-0.08594 0.0023,-0.03625 0.0039,-0.08108 0.0039,-0.134765 0,-0.05598 -5.76e-4,-0.100692 -0.002,-0.132813 -0.0014,-0.03258 -0.0022,-0.05678 -0.0059,-0.07422 -0.0037,-0.01744 -0.0091,-0.0315 -0.01367,-0.04297 -0.005,-0.01101 -0.01461,-0.02277 -0.0293,-0.03516 -0.01377,-0.01101 -0.03843,-0.02231 -0.07422,-0.03516 -0.03487,-0.01239 -0.07555,-0.02311 -0.11914,-0.0332 -0.04359,-0.01009 -0.08508,-0.0154 -0.125,-0.01953 -0.03992,-0.0037 -0.07725,-0.0059 -0.109376,-0.0059 z m 2.052735,0 c -0.199609,0 -0.375799,0.02685 -0.525391,0.08008 -0.149591,0.05369 -0.273472,0.124328 -0.373047,0.21289 -0.09957,0.08856 -0.174592,0.192159 -0.224609,0.310547 -0.04956,0.118389 -0.07422,0.24261 -0.07422,0.371094 0,0.147297 0.02305,0.270378 0.07031,0.375 0.04726,0.105081 0.110986,0.195312 0.189453,0.271484 0.07755,0.07571 0.165474,0.139095 0.263672,0.191407 0.09866,0.05231 0.199488,0.09841 0.302734,0.140624 0.103705,0.0413 0.203501,0.08197 0.300781,0.119141 0.09774,0.03763 0.184747,0.08027 0.263672,0.128906 0.07709,0.04818 0.140237,0.104645 0.1875,0.167969 0.04726,0.06241 0.07227,0.142142 0.07227,0.234375 0,0.08994 -0.01728,0.168298 -0.05078,0.234375 -0.03258,0.0647 -0.07902,0.119893 -0.138672,0.16211 -0.06103,0.04222 -0.134659,0.07517 -0.216797,0.09766 -0.08351,0.02111 -0.175016,0.03125 -0.277344,0.03125 -0.135825,0 -0.256706,-0.01533 -0.361328,-0.04883 -0.104622,-0.03258 -0.195312,-0.06888 -0.271484,-0.107422 -0.07709,-0.03854 -0.141049,-0.0753 -0.19336,-0.107422 -0.05231,-0.03396 -0.09161,-0.05078 -0.11914,-0.05078 -0.01606,0 -0.03253,0.005 -0.04492,0.01367 -0.01377,0.0087 -0.02391,0.02278 -0.03125,0.04297 -0.0078,0.01973 -0.01448,0.04302 -0.01953,0.07422 -0.005,0.03258 -0.0078,0.07084 -0.0078,0.117188 0,0.07571 0.0071,0.136094 0.01953,0.179687 0.01285,0.04359 0.03106,0.07678 0.05859,0.101563 0.02616,0.02386 0.06959,0.05278 0.126953,0.08398 0.05828,0.02983 0.130412,0.05841 0.214844,0.08594 0.08351,0.02753 0.177204,0.05196 0.283203,0.07031 0.105999,0.01744 0.218349,0.02734 0.333984,0.02734 0.19089,0 0.365587,-0.02247 0.523438,-0.06836 0.158769,-0.04635 0.294403,-0.115139 0.408203,-0.205078 0.114717,-0.08994 0.203678,-0.20183 0.265625,-0.333984 0.06241,-0.130778 0.09375,-0.278861 0.09375,-0.447266 0,-0.140873 -0.025,-0.262906 -0.07227,-0.365234 -0.04772,-0.102328 -0.109951,-0.190253 -0.1875,-0.263672 -0.07847,-0.07342 -0.168579,-0.134154 -0.269531,-0.185547 -0.100951,-0.05094 -0.202936,-0.09795 -0.30664,-0.140625 -0.103246,-0.0413 -0.203278,-0.0806 -0.304688,-0.119141 -0.09958,-0.03992 -0.188535,-0.08417 -0.265625,-0.132812 -0.07847,-0.04864 -0.143225,-0.103268 -0.191406,-0.167969 -0.0491,-0.0647 -0.07227,-0.145248 -0.07227,-0.240234 0,-0.06837 0.01383,-0.130718 0.03906,-0.189453 0.0257,-0.05828 0.06326,-0.110128 0.113281,-0.152344 0.04956,-0.04222 0.114316,-0.07425 0.191406,-0.09766 0.07847,-0.02386 0.167203,-0.03516 0.269531,-0.03516 0.114718,0 0.216126,0.01337 0.304688,0.03906 0.08994,0.02753 0.166344,0.05761 0.232422,0.08789 0.0647,0.0312 0.118858,0.05783 0.160156,0.08398 0.04222,0.02753 0.07322,0.04102 0.0957,0.04102 0.01377,0 0.02817,-0.003 0.04102,-0.01172 0.01239,-0.0087 0.02253,-0.02324 0.03125,-0.04297 0.0087,-0.01881 0.01391,-0.04347 0.01758,-0.07422 0.0037,-0.02983 0.0059,-0.06658 0.0059,-0.107422 0,-0.03854 -0.0022,-0.07345 -0.0059,-0.09961 -0.0037,-0.02753 -0.008,-0.04851 -0.01172,-0.06641 -0.0037,-0.01835 -0.0089,-0.03564 -0.01758,-0.05078 -0.0087,-0.01468 -0.026,-0.03105 -0.05078,-0.05078 -0.02616,-0.02019 -0.06476,-0.04163 -0.115235,-0.06641 -0.04956,-0.02616 -0.108562,-0.05116 -0.179687,-0.07227 -0.07112,-0.02248 -0.149143,-0.04092 -0.236328,-0.05469 -0.08856,-0.01514 -0.176487,-0.02148 -0.263672,-0.02148 z m 8.736328,0 c -0.127107,0 -0.253517,0.0113 -0.376953,0.03516 -0.124354,0.0234 -0.240622,0.05106 -0.345703,0.08594 -0.104623,0.03625 -0.196006,0.07497 -0.275391,0.117188 -0.08122,0.04268 -0.137342,0.08013 -0.169922,0.111328 -0.0335,0.03258 -0.05378,0.06669 -0.0625,0.101562 -0.0087,0.03487 -0.01367,0.0835 -0.01367,0.144532 0,0.03625 0.0028,0.06978 0.0078,0.09961 0.0046,0.03166 0.0138,0.05586 0.02344,0.07422 0.01147,0.02019 0.02438,0.03483 0.03906,0.04492 0.01514,0.0092 0.03197,0.01367 0.05078,0.01367 0.02983,0 0.07316,-0.01786 0.132813,-0.05273 0.06011,-0.03625 0.133176,-0.07497 0.222656,-0.117187 0.08902,-0.04222 0.194111,-0.0814 0.3125,-0.117188 0.118388,-0.03533 0.248846,-0.05273 0.398437,-0.05273 0.13812,0 0.257036,0.01625 0.351563,0.04883 0.09499,0.03396 0.17231,0.08328 0.232422,0.148437 0.05965,0.06378 0.101374,0.144907 0.128906,0.242188 0.02616,0.09728 0.03906,0.20883 0.03906,0.335937 v 0.25586 h -0.451172 c -0.255591,0 -0.486751,0.02144 -0.691407,0.06641 -0.204656,0.04497 -0.376705,0.112269 -0.517578,0.203125 -0.140873,0.08994 -0.249999,0.204018 -0.326172,0.339844 -0.0748,0.137202 -0.111328,0.296579 -0.111328,0.482422 0,0.15831 0.02639,0.299474 0.08008,0.423828 0.05506,0.123436 0.131812,0.228185 0.230469,0.314453 0.0982,0.08489 0.217467,0.148849 0.357422,0.193359 0.139038,0.04635 0.297709,0.06836 0.470703,0.06836 0.196855,0 0.382847,-0.04402 0.558594,-0.128907 0.177124,-0.08489 0.337878,-0.204159 0.482422,-0.357421 v 0.330078 c 0,0.02891 0.006,0.05069 0.02344,0.06445 0.01744,0.01468 0.04682,0.02586 0.08398,0.0332 0.03763,0.0073 0.08707,0.01172 0.15039,0.01172 0.06516,0 0.115058,-0.0044 0.150391,-0.01172 0.0335,-0.0073 0.06126,-0.01852 0.08008,-0.0332 0.02019,-0.01377 0.0293,-0.03554 0.0293,-0.06445 v -2.21875 c 0,-0.204197 -0.02397,-0.381894 -0.07031,-0.535157 -0.04589,-0.153262 -0.120328,-0.281061 -0.222656,-0.384765 -0.101869,-0.103246 -0.234738,-0.182641 -0.40039,-0.236328 -0.166111,-0.05323 -0.366163,-0.08008 -0.601563,-0.08008 z m -20.673828,0.05078 c -0.05736,0 -0.105069,0.0032 -0.144531,0.0078 -0.039,0.005 -0.07127,0.01185 -0.09375,0.02148 -0.0234,0.0087 -0.03953,0.02242 -0.04687,0.03711 -0.0087,0.01514 -0.01367,0.02944 -0.01367,0.04687 v 3.287109 c 0,0.01835 0.005,0.03644 0.01367,0.04883 0.0073,0.01377 0.02347,0.02552 0.04687,0.03516 0.02248,0.01009 0.05475,0.01644 0.09375,0.02148 0.03946,0.005 0.08717,0.0078 0.144531,0.0078 0.06149,0 0.112422,-0.0028 0.152344,-0.0078 0.03855,-0.005 0.06736,-0.01139 0.08984,-0.02148 0.02111,-0.0096 0.03724,-0.02139 0.04687,-0.03516 0.0101,-0.01239 0.01563,-0.03047 0.01563,-0.04883 V 47.65625 c 0,-0.01744 -0.0055,-0.03173 -0.01563,-0.04687 -0.0096,-0.01468 -0.02577,-0.02839 -0.04687,-0.03711 -0.02248,-0.0096 -0.0513,-0.01644 -0.08984,-0.02148 -0.03992,-0.0046 -0.09086,-0.0078 -0.152344,-0.0078 z m 1.279297,0 c -0.05598,0 -0.102998,0.0016 -0.140625,0.0039 -0.03717,0.0028 -0.06931,0.0069 -0.0918,0.01563 -0.02386,0.0087 -0.03873,0.02001 -0.04883,0.03516 -0.0087,0.01468 -0.01367,0.03197 -0.01367,0.05078 0,0.0073 -0.0014,0.01587 0,0.02734 0.0014,0.01101 0.0058,0.0283 0.01172,0.05078 0.0064,0.02111 0.01334,0.04772 0.02344,0.07617 l 1.117188,3.121094 c 0.0096,0.02478 0.02312,0.04506 0.04102,0.0625 0.01606,0.01744 0.03911,0.03138 0.07031,0.04102 0.02983,0.01009 0.07004,0.01644 0.11914,0.02148 0.04818,0.005 0.109598,0.0078 0.181641,0.0078 0.07342,0 0.134954,-0.0022 0.183594,-0.0059 0.04864,-0.0037 0.08851,-0.0099 0.121093,-0.01953 0.0312,-0.01009 0.05621,-0.02404 0.07227,-0.04102 0.01468,-0.01744 0.02701,-0.03933 0.03711,-0.06641 l 1.121093,-3.121094 c 0.005,-0.01606 0.008,-0.03368 0.01172,-0.04883 0.0041,-0.01514 0.0084,-0.02667 0.0098,-0.03906 0.0023,-0.01239 0.0045,-0.02369 0.0059,-0.03516 9.18e-4,-0.01101 0.002,-0.02116 0.002,-0.03125 0,-0.01881 -0.0054,-0.03644 -0.01367,-0.04883 -0.0092,-0.01377 -0.02186,-0.02506 -0.04297,-0.03516 -0.02111,-0.01009 -0.05015,-0.01483 -0.08594,-0.01758 -0.03625,-0.0023 -0.08269,-0.0039 -0.138672,-0.0039 -0.06608,0 -0.118858,0.0022 -0.160156,0.0059 -0.03992,0.0037 -0.06989,0.0099 -0.09375,0.01953 -0.02248,0.0101 -0.04126,0.02197 -0.05273,0.03711 -0.01239,0.01514 -0.02034,0.0322 -0.02539,0.05469 l -0.917969,2.708985 -0.0098,0.04492 -0.01562,-0.04492 -0.925782,-2.708985 c -0.01055,-0.02248 -0.02024,-0.03955 -0.03125,-0.05469 -0.01147,-0.01514 -0.02887,-0.02701 -0.05273,-0.03711 -0.02203,-0.0096 -0.05544,-0.01586 -0.09766,-0.01953 -0.04267,-0.0037 -0.0988,-0.0059 -0.169922,-0.0059 z m 12.867187,0 c -0.05736,0 -0.106562,0.0032 -0.146484,0.0078 -0.03854,0.005 -0.06931,0.01185 -0.0918,0.02148 -0.02386,0.0087 -0.03953,0.02242 -0.04687,0.03711 -0.0087,0.01514 -0.01367,0.02944 -0.01367,0.04687 v 3.287109 c 0,0.01835 0.005,0.03644 0.01367,0.04883 0.0073,0.01377 0.02301,0.02552 0.04687,0.03516 0.02248,0.01009 0.05325,0.01644 0.0918,0.02148 0.03992,0.005 0.08913,0.0078 0.146484,0.0078 0.06103,0 0.110469,-0.0028 0.150391,-0.0078 0.03854,-0.005 0.06931,-0.01139 0.0918,-0.02148 0.02111,-0.0096 0.03678,-0.02139 0.04687,-0.03516 0.01009,-0.01239 0.01563,-0.03047 0.01563,-0.04883 V 47.65625 c 0,-0.01744 -0.0055,-0.03173 -0.01563,-0.04687 -0.01009,-0.01468 -0.02577,-0.02839 -0.04687,-0.03711 -0.02248,-0.0096 -0.05325,-0.01644 -0.0918,-0.02148 -0.03992,-0.0046 -0.08936,-0.0078 -0.150391,-0.0078 z m -8.089843,0.419922 c 0.289088,0 0.507458,0.08874 0.654296,0.269531 0.148674,0.179418 0.216786,0.429473 0.208985,0.746094 h -1.78125 c 0.005,-0.134449 0.02901,-0.263283 0.07031,-0.386719 0.0413,-0.12206 0.100068,-0.230033 0.175781,-0.322266 0.0748,-0.09223 0.167333,-0.166097 0.279297,-0.220703 0.112424,-0.05644 0.242987,-0.08594 0.392579,-0.08594 z m 10.767578,0.04687 c 0.166111,0 0.324676,0.05462 0.476562,0.160156 0.151886,0.106458 0.309758,0.258576 0.472656,0.460937 v 1.314453 c -0.09453,0.119766 -0.185099,0.220138 -0.269531,0.302735 -0.08489,0.08076 -0.168545,0.145872 -0.246094,0.197265 -0.07847,0.05093 -0.152684,0.08781 -0.226562,0.109376 -0.0748,0.02202 -0.153155,0.03516 -0.234375,0.03516 -0.156934,0 -0.287956,-0.03849 -0.392578,-0.113282 -0.104623,-0.07388 -0.18817,-0.171485 -0.251953,-0.294921 -0.06332,-0.123436 -0.108034,-0.264483 -0.132813,-0.421875 -0.02616,-0.157852 -0.03906,-0.320218 -0.03906,-0.486328 0,-0.155557 0.01372,-0.308017 0.04492,-0.458985 0.02983,-0.150968 0.07903,-0.287861 0.146484,-0.40625 0.06699,-0.119765 0.154802,-0.215643 0.261719,-0.289062 0.105999,-0.07204 0.237362,-0.109375 0.390625,-0.109375 z m 7.509765,0 c 0.165652,0 0.324218,0.05462 0.476563,0.160156 0.151886,0.106458 0.311251,0.258576 0.474609,0.460937 v 1.314453 c -0.09499,0.119766 -0.187052,0.220138 -0.271484,0.302735 -0.08489,0.08076 -0.167051,0.145872 -0.244141,0.197265 -0.07847,0.05093 -0.155096,0.08781 -0.228516,0.109376 -0.0748,0.02202 -0.151201,0.03516 -0.232421,0.03516 -0.156934,0 -0.289909,-0.03849 -0.394532,-0.113282 -0.104622,-0.07388 -0.188629,-0.171485 -0.251953,-0.294921 -0.06378,-0.123436 -0.107574,-0.264483 -0.132812,-0.421875 -0.02616,-0.157852 -0.03906,-0.320218 -0.03906,-0.486328 0,-0.155557 0.01567,-0.308017 0.04687,-0.458985 0.02983,-0.150968 0.07949,-0.287861 0.146485,-0.40625 0.06745,-0.119765 0.154343,-0.215643 0.261718,-0.289062 0.105999,-0.07204 0.23541,-0.109375 0.388672,-0.109375 z m -3.478515,1.435546 h 0.513672 v 0.697266 c -0.148215,0.165652 -0.28938,0.289297 -0.423829,0.369141 -0.135825,0.08076 -0.283096,0.121093 -0.441406,0.121093 -0.194561,0 -0.346326,-0.05139 -0.455078,-0.152343 -0.108293,-0.100952 -0.162109,-0.237045 -0.162109,-0.408203 0,-0.09958 0.01901,-0.186582 0.05664,-0.263672 0.03717,-0.07617 0.09789,-0.14266 0.177735,-0.197266 0.08122,-0.05506 0.182051,-0.0946 0.302734,-0.123047 0.122518,-0.02753 0.265989,-0.04297 0.431641,-0.04297 z m -4.609375,5.63086 c -0.05736,0 -0.10461,0.0028 -0.144532,0.0078 -0.03854,0.005 -0.07127,0.01277 -0.09375,0.02148 -0.02386,0.01009 -0.03953,0.02197 -0.04687,0.03711 -0.0087,0.01377 -0.01367,0.03105 -0.01367,0.05078 v 4.878907 c 0,0.01881 0.005,0.03644 0.01367,0.04883 0.0073,0.01377 0.02301,0.02506 0.04687,0.03516 0.02248,0.01009 0.05521,0.01644 0.09375,0.02148 0.03992,0.005 0.08717,0.0078 0.144532,0.0078 0.06103,0 0.110469,-0.0028 0.15039,-0.0078 0.039,-0.005 0.06931,-0.01139 0.0918,-0.02148 0.02111,-0.01009 0.03678,-0.02139 0.04687,-0.03516 0.01009,-0.01239 0.01563,-0.03001 0.01563,-0.04883 v -4.878907 c 0,-0.01973 -0.0055,-0.03702 -0.01563,-0.05078 -0.01009,-0.01514 -0.02577,-0.02701 -0.04687,-0.03711 -0.02249,-0.0087 -0.05279,-0.01644 -0.0918,-0.02148 -0.03992,-0.005 -0.08936,-0.0078 -0.15039,-0.0078 z M 14.4375,55.091797 c -0.05874,0 -0.106904,0.0018 -0.144531,0.0078 -0.03717,0.0064 -0.06839,0.01426 -0.0918,0.02344 -0.02524,0.0073 -0.04206,0.0191 -0.05078,0.03516 -0.0087,0.01606 -0.01172,0.03277 -0.01172,0.04883 v 1.910157 c -0.156016,-0.163358 -0.314923,-0.286662 -0.47461,-0.371094 -0.159227,-0.08351 -0.335077,-0.125 -0.527343,-0.125 -0.23173,0 -0.434663,0.04264 -0.611328,0.128906 -0.175748,0.08718 -0.323595,0.210489 -0.44336,0.371094 -0.118388,0.159686 -0.209996,0.353973 -0.271484,0.582031 -0.05965,0.226682 -0.08984,0.482502 -0.08984,0.765625 0,0.238153 0.02363,0.465972 0.07227,0.681641 0.04864,0.215668 0.126423,0.40086 0.232422,0.560547 0.10554,0.159686 0.244739,0.287708 0.414062,0.380859 0.1707,0.09361 0.375822,0.140625 0.617188,0.140625 0.221175,0 0.425485,-0.05163 0.611328,-0.15625 0.18676,-0.104622 0.366986,-0.251317 0.539062,-0.439453 v 0.435547 c 0,0.01881 0.004,0.0361 0.01367,0.05078 0.01009,0.01377 0.02772,0.02598 0.04883,0.03516 0.02248,0.0073 0.04957,0.01448 0.08399,0.01953 0.03396,0.005 0.07556,0.0078 0.126953,0.0078 0.04864,0 0.09013,-0.0028 0.125,-0.0078 0.0335,-0.005 0.06046,-0.01219 0.08203,-0.01953 0.01973,-0.0092 0.0362,-0.02139 0.04492,-0.03516 0.0087,-0.01468 0.01172,-0.03197 0.01172,-0.05078 v -4.865235 c 0,-0.01606 -0.0042,-0.03277 -0.01563,-0.04883 -0.01101,-0.01606 -0.0283,-0.02781 -0.05078,-0.03516 -0.02111,-0.0092 -0.0513,-0.01701 -0.08984,-0.02344 -0.039,-0.006 -0.08936,-0.0078 -0.150391,-0.0078 z m 24.517578,0 c -0.05828,0 -0.106904,0.0018 -0.144531,0.0078 -0.03717,0.0064 -0.06794,0.01426 -0.0918,0.02344 -0.02478,0.0073 -0.04206,0.0191 -0.05078,0.03516 -0.0087,0.01606 -0.01172,0.03277 -0.01172,0.04883 v 1.910157 c -0.156016,-0.163358 -0.314923,-0.286662 -0.474609,-0.371094 -0.159687,-0.08351 -0.335536,-0.125 -0.527344,-0.125 -0.232188,0 -0.434663,0.04264 -0.611328,0.128906 -0.176206,0.08718 -0.324053,0.210489 -0.44336,0.371094 -0.118388,0.159686 -0.210454,0.353973 -0.271484,0.582031 -0.05965,0.226682 -0.08984,0.482502 -0.08984,0.765625 0,0.238153 0.02363,0.465972 0.07227,0.681641 0.04864,0.215668 0.126423,0.40086 0.232422,0.560547 0.105999,0.159686 0.244739,0.287708 0.414062,0.380859 0.1707,0.09361 0.375822,0.140625 0.617188,0.140625 0.220716,0 0.425944,-0.05163 0.611328,-0.15625 0.187219,-0.104622 0.366986,-0.251317 0.539062,-0.439453 v 0.435547 c 0,0.01881 0.004,0.0361 0.01367,0.05078 0.01009,0.01377 0.02726,0.02598 0.04883,0.03516 0.02248,0.0073 0.04957,0.01448 0.08398,0.01953 0.03396,0.005 0.07556,0.0078 0.126953,0.0078 0.04818,0 0.09013,-0.0028 0.125,-0.0078 0.0335,-0.005 0.06046,-0.01219 0.08203,-0.01953 0.01973,-0.0092 0.03574,-0.02139 0.04492,-0.03516 0.0083,-0.01468 0.01172,-0.03197 0.01172,-0.05078 v -4.865235 c 0,-0.01606 -0.0042,-0.03277 -0.01563,-0.04883 -0.01101,-0.01606 -0.02784,-0.02781 -0.05078,-0.03516 -0.02065,-0.0092 -0.05279,-0.01701 -0.0918,-0.02344 -0.03854,-0.006 -0.08695,-0.0078 -0.148438,-0.0078 z m -10.912109,0.224609 c -0.143168,0 -0.241234,0.02673 -0.294922,0.07813 -0.05369,0.05094 -0.08008,0.146237 -0.08008,0.28711 0,0.139496 0.02731,0.233186 0.08008,0.283203 0.05231,0.04956 0.147272,0.07422 0.289062,0.07422 0.143627,0 0.241693,-0.02524 0.294922,-0.07617 0.05369,-0.05093 0.08008,-0.147272 0.08008,-0.289063 0,-0.138579 -0.02581,-0.231233 -0.07813,-0.28125 -0.05231,-0.05002 -0.149224,-0.07617 -0.291015,-0.07617 z m -21.5449221,0.09961 c -0.055982,0 -0.1046096,0.0038 -0.1445313,0.0098 -0.039922,0.0064 -0.071042,0.01127 -0.097656,0.01953 -0.024779,0.0092 -0.043675,0.02197 -0.054687,0.03711 -0.011013,0.01468 -0.015625,0.03197 -0.015625,0.05078 v 4.535156 c 0,0.01881 0.00404,0.03564 0.013672,0.05078 0.00872,0.01514 0.026002,0.02644 0.050781,0.03516 0.023861,0.0087 0.058311,0.01506 0.099609,0.02148 0.041298,0.006 0.089702,0.0098 0.1484375,0.0098 0.06103,0 0.112422,-0.0038 0.1523437,-0.0098 0.040839,-0.0064 0.071842,-0.01277 0.095703,-0.02148 0.024779,-0.0087 0.042639,-0.02001 0.052734,-0.03516 0.010095,-0.01514 0.013672,-0.03197 0.013672,-0.05078 v -4.535156 c 0,-0.01881 -0.00358,-0.0361 -0.013672,-0.05078 -0.010095,-0.01514 -0.027955,-0.02793 -0.052734,-0.03711 -0.023861,-0.0083 -0.054864,-0.01311 -0.095703,-0.01953 -0.039922,-0.006 -0.091314,-0.0098 -0.1523439,-0.0098 z m 16.5722651,0.375 c -0.05874,0 -0.107939,0.0032 -0.146484,0.0078 -0.03992,0.005 -0.07081,0.01243 -0.09375,0.02344 -0.0234,0.01101 -0.03816,0.02438 -0.04687,0.03906 -0.0087,0.01514 -0.01172,0.02944 -0.01172,0.04687 v 0.783203 h -0.457031 c -0.01881,0 -0.03667,0.003 -0.05273,0.01172 -0.01606,0.0087 -0.02943,0.02278 -0.03906,0.04297 -0.01009,0.02111 -0.01701,0.04692 -0.02344,0.07813 -0.006,0.03212 -0.0098,0.0713 -0.0098,0.117187 0,0.08719 0.01072,0.150908 0.0332,0.189453 0.02248,0.03992 0.05164,0.05859 0.08789,0.05859 h 0.460937 v 1.921875 c 0,0.19089 0.01786,0.354644 0.05273,0.494141 0.03487,0.140873 0.09237,0.255423 0.169922,0.347656 0.07847,0.09086 0.178145,0.158732 0.298828,0.205078 0.122518,0.04451 0.266341,0.06641 0.4375,0.06641 0.05598,0 0.111986,-0.002 0.167969,-0.0098 0.05644,-0.0073 0.108645,-0.01633 0.158203,-0.02734 0.05002,-0.01101 0.09622,-0.02553 0.134765,-0.04297 0.03854,-0.01652 0.06712,-0.03496 0.08594,-0.05469 0.02019,-0.01881 0.03483,-0.05096 0.04492,-0.0918 0.0087,-0.0413 0.01367,-0.09684 0.01367,-0.167969 0,-0.04359 -0.0013,-0.07955 -0.0059,-0.109375 -0.0041,-0.02891 -0.01115,-0.05092 -0.01758,-0.06836 -0.006,-0.01744 -0.01197,-0.02873 -0.02344,-0.03516 -0.01147,-0.006 -0.02277,-0.0078 -0.03516,-0.0078 -0.02019,0 -0.04163,0.0042 -0.06641,0.01563 -0.02386,0.01101 -0.05439,0.02277 -0.08789,0.03516 -0.03396,0.01101 -0.07359,0.02414 -0.117187,0.03516 -0.04359,0.0101 -0.09246,0.01563 -0.148438,0.01563 -0.172994,0 -0.293874,-0.05911 -0.361328,-0.173829 -0.06608,-0.116094 -0.09961,-0.28699 -0.09961,-0.513671 V 57.18943 h 0.84375 c 0.03625,0 0.06541,-0.01867 0.08789,-0.05859 0.02248,-0.03854 0.03125,-0.102267 0.03125,-0.189453 0,-0.04589 -0.0013,-0.08507 -0.0059,-0.117187 -0.0041,-0.0312 -0.01242,-0.05702 -0.02344,-0.07813 -0.0101,-0.02019 -0.0253,-0.03425 -0.03906,-0.04297 -0.01468,-0.0087 -0.03197,-0.01172 -0.05078,-0.01172 h -0.84375 v -0.783203 c 0,-0.01744 -0.004,-0.03173 -0.01367,-0.04687 -0.01009,-0.01468 -0.02634,-0.02805 -0.04883,-0.03906 -0.02111,-0.01101 -0.0513,-0.01839 -0.08984,-0.02344 -0.03854,-0.0046 -0.08936,-0.0078 -0.150391,-0.0078 z M 9.6542969,56.621094 c -0.1867601,0 -0.3735515,0.04817 -0.5566407,0.144531 -0.1844657,0.0959 -0.3678097,0.248128 -0.5527343,0.455078 v -0.435547 c 0,-0.01973 -0.00587,-0.03702 -0.013672,-0.05078 -0.00826,-0.01239 -0.022202,-0.02369 -0.041016,-0.03516 -0.019731,-0.01101 -0.047157,-0.01781 -0.082031,-0.02148 -0.035333,-0.0037 -0.081078,-0.0059 -0.1347656,-0.0059 -0.055982,0 -0.1012681,0.0022 -0.1347656,0.0059 -0.034874,0.0037 -0.0615,0.01047 -0.083984,0.02148 -0.021108,0.01147 -0.035168,0.02277 -0.042969,0.03516 C 8.0043768,56.748141 8,56.765425 8,56.785156 v 3.28711 c 0,0.01881 0.00495,0.03644 0.013672,0.04883 0.0078,0.01377 0.023014,0.02506 0.046875,0.03516 0.022485,0.01009 0.052793,0.01644 0.091797,0.02148 0.039463,0.005 0.089126,0.0078 0.1464843,0.0078 0.06103,0 0.110469,-0.0028 0.1503907,-0.0078 0.038545,-0.005 0.069312,-0.01139 0.091797,-0.02148 0.020649,-0.01009 0.03678,-0.02139 0.046875,-0.03516 0.010095,-0.01239 0.015625,-0.03001 0.015625,-0.04883 v -2.296875 c 0.1647343,-0.206951 0.3227235,-0.363328 0.4746094,-0.470703 0.1509682,-0.107376 0.3006625,-0.16211 0.4511719,-0.16211 0.1174707,0 0.2200318,0.02281 0.3085937,0.06641 0.089939,0.04359 0.162309,0.107316 0.21875,0.189454 0.05598,0.08351 0.09804,0.182157 0.126953,0.296874 0.02983,0.113341 0.04297,0.264989 0.04297,0.453126 v 1.923828 c 0,0.01881 0.0055,0.03644 0.01563,0.04883 0.01009,0.01377 0.02623,0.02506 0.04687,0.03516 0.02294,0.01009 0.05325,0.01644 0.0918,0.02148 0.03992,0.005 0.08936,0.0078 0.150391,0.0078 0.05782,0 0.107022,-0.0028 0.146484,-0.0078 0.039,-0.005 0.06782,-0.01139 0.08984,-0.02148 0.02294,-0.01009 0.03678,-0.02139 0.04687,-0.03516 0.0096,-0.01239 0.01563,-0.03001 0.01563,-0.04883 v -2.00586 c 0,-0.233106 -0.01925,-0.434534 -0.06055,-0.601562 -0.03992,-0.165652 -0.107445,-0.310735 -0.199219,-0.435547 -0.09223,-0.123436 -0.213689,-0.223456 -0.363281,-0.296875 -0.149591,-0.0748 -0.3333939,-0.111328 -0.5527337,-0.111328 z m 11.1484371,0 c -0.199608,0 -0.375799,0.02639 -0.52539,0.08008 -0.149592,0.05369 -0.275425,0.124787 -0.375,0.21289 -0.09957,0.08856 -0.17264,0.192159 -0.222656,0.310547 -0.05002,0.118389 -0.07617,0.242611 -0.07617,0.371094 0,0.146839 0.025,0.272331 0.07227,0.376953 0.04726,0.104623 0.109033,0.193818 0.1875,0.269532 0.07755,0.07617 0.165015,0.139095 0.263672,0.191406 0.09866,0.05185 0.199489,0.0999 0.302735,0.142578 0.103704,0.04084 0.205453,0.08002 0.302734,0.117187 0.09728,0.03763 0.184746,0.08027 0.263672,0.128907 0.07709,0.04864 0.139777,0.106139 0.1875,0.169922 0.04726,0.06241 0.07031,0.140189 0.07031,0.232421 0,0.08948 -0.01533,0.167839 -0.04883,0.234375 -0.03258,0.0647 -0.08051,0.119435 -0.140625,0.16211 -0.06103,0.04222 -0.132706,0.07517 -0.214844,0.09766 -0.08351,0.02111 -0.175015,0.03125 -0.277343,0.03125 -0.135826,0 -0.258659,-0.01533 -0.363282,-0.04883 -0.104622,-0.03258 -0.195312,-0.06888 -0.271484,-0.107422 -0.07709,-0.03854 -0.141048,-0.07484 -0.193359,-0.107422 -0.05231,-0.0335 -0.09161,-0.04883 -0.119141,-0.04883 -0.01606,0 -0.03253,0.003 -0.04492,0.01172 -0.01377,0.0087 -0.02391,0.02128 -0.03125,0.04102 -0.0078,0.02019 -0.01253,0.04497 -0.01758,0.07617 -0.005,0.03212 -0.0078,0.0713 -0.0078,0.117188 0,0.07617 0.0052,0.136095 0.01758,0.179687 0.01239,0.04405 0.03106,0.07874 0.05859,0.103516 0.02616,0.0234 0.07155,0.05083 0.128907,0.08203 0.05874,0.03029 0.127999,0.06036 0.21289,0.08789 0.08351,0.02707 0.179158,0.04955 0.285156,0.06836 0.105541,0.01744 0.21835,0.02734 0.333985,0.02734 0.19089,0 0.363174,-0.02397 0.521484,-0.07031 0.15831,-0.04589 0.296357,-0.113645 0.410157,-0.203125 0.114717,-0.08994 0.201724,-0.199876 0.263671,-0.332031 0.06241,-0.131237 0.09375,-0.281272 0.09375,-0.449219 0,-0.140873 -0.025,-0.262906 -0.07227,-0.365234 -0.04726,-0.102328 -0.108457,-0.190253 -0.185547,-0.263672 -0.07847,-0.07388 -0.16858,-0.134612 -0.269531,-0.185547 -0.100952,-0.05093 -0.203395,-0.09646 -0.306641,-0.138672 -0.103246,-0.0413 -0.205689,-0.08255 -0.306641,-0.121093 -0.09957,-0.03992 -0.188534,-0.08222 -0.265625,-0.13086 -0.07847,-0.04864 -0.140813,-0.105221 -0.189453,-0.169922 -0.04818,-0.06516 -0.07227,-0.145248 -0.07227,-0.240234 0,-0.06883 0.01233,-0.130718 0.03711,-0.189453 0.02616,-0.05828 0.06372,-0.110128 0.113281,-0.152344 0.05002,-0.04268 0.113857,-0.07379 0.191407,-0.09766 0.07847,-0.02386 0.169156,-0.03516 0.271484,-0.03516 0.114717,0 0.216125,0.01486 0.304687,0.04102 0.08994,0.02753 0.166345,0.05416 0.232422,0.08398 0.0647,0.0312 0.118858,0.06173 0.160157,0.08789 0.04222,0.02753 0.07322,0.03906 0.0957,0.03906 0.01331,0 0.02667,-0.003 0.03906,-0.01172 0.01239,-0.0087 0.02299,-0.02278 0.03125,-0.04297 0.0092,-0.01835 0.01437,-0.04302 0.01758,-0.07422 0.0041,-0.02983 0.0059,-0.06658 0.0059,-0.107422 0,-0.039 -0.0017,-0.07345 -0.0059,-0.09961 -0.0032,-0.02753 -0.0061,-0.04897 -0.0098,-0.06641 -0.0037,-0.01835 -0.01081,-0.0361 -0.01953,-0.05078 -0.0087,-0.01514 -0.026,-0.03059 -0.05078,-0.05078 -0.02615,-0.01973 -0.06326,-0.04163 -0.113281,-0.06641 -0.04956,-0.02661 -0.109022,-0.05116 -0.179688,-0.07227 -0.07112,-0.02248 -0.150637,-0.04138 -0.238281,-0.05469 -0.0881,-0.01514 -0.174533,-0.02148 -0.261719,-0.02148 z m 5.773438,0 c -0.06975,0 -0.141189,0.0099 -0.210938,0.02734 -0.06975,0.01881 -0.139236,0.04993 -0.208984,0.09766 -0.07158,0.04726 -0.144766,0.113175 -0.224609,0.195312 -0.07847,0.08214 -0.163968,0.190111 -0.253907,0.322266 v -0.478516 c 0,-0.01973 -0.0039,-0.03702 -0.01172,-0.05078 -0.0087,-0.01239 -0.02416,-0.02369 -0.04297,-0.03516 -0.02019,-0.01101 -0.04762,-0.01781 -0.08203,-0.02148 -0.03533,-0.0037 -0.07958,-0.0059 -0.132813,-0.0059 -0.05598,0 -0.101268,0.0022 -0.134765,0.0059 -0.03487,0.0037 -0.06345,0.01047 -0.08594,0.02148 -0.02111,0.01147 -0.03563,0.02277 -0.04297,0.03516 -0.0073,0.01377 -0.01172,0.03105 -0.01172,0.05078 v 3.28711 c 0,0.01881 0.005,0.03644 0.01367,0.04883 0.0078,0.01377 0.02497,0.02506 0.04883,0.03516 0.02203,0.01009 0.05279,0.01644 0.0918,0.02148 0.03946,0.005 0.08717,0.0078 0.144532,0.0078 0.06149,0 0.112422,-0.0028 0.152343,-0.0078 0.03854,-0.005 0.06736,-0.01139 0.08984,-0.02148 0.02111,-0.01009 0.03873,-0.02139 0.04883,-0.03516 0.0096,-0.01239 0.01367,-0.03001 0.01367,-0.04883 v -2.16211 c 0.08489,-0.133531 0.162674,-0.247611 0.232422,-0.339844 0.07112,-0.09223 0.138424,-0.166674 0.203125,-0.222656 0.06332,-0.05598 0.126812,-0.09528 0.185547,-0.11914 0.05873,-0.02478 0.116246,-0.03906 0.177734,-0.03906 0.05093,0 0.09956,0.006 0.144532,0.01563 0.04359,0.01009 0.0814,0.02024 0.117187,0.03125 0.03533,0.01147 0.06725,0.02219 0.0957,0.0332 0.02753,0.01101 0.05058,0.01563 0.07031,0.01563 0.02019,0 0.03586,-0.0046 0.04687,-0.01563 0.01009,-0.01101 0.02,-0.02772 0.02734,-0.04883 0.0064,-0.02019 0.01138,-0.04831 0.01367,-0.08594 0.0028,-0.03625 0.0039,-0.08108 0.0039,-0.134766 -1e-6,-0.05598 -0.001,-0.100233 -0.002,-0.132812 -0.0014,-0.03212 -0.0041,-0.05678 -0.0078,-0.07422 -0.0037,-0.01698 -0.0067,-0.03196 -0.01172,-0.04297 -0.005,-0.01147 -0.01415,-0.02277 -0.0293,-0.03516 -0.01377,-0.01147 -0.04038,-0.02277 -0.07617,-0.03516 -0.03487,-0.01239 -0.07359,-0.02311 -0.117187,-0.0332 -0.04359,-0.0096 -0.08749,-0.01586 -0.126953,-0.01953 -0.03992,-0.0037 -0.07484,-0.0059 -0.107422,-0.0059 z m 4.060547,0 c -0.127107,0 -0.251105,0.0113 -0.375,0.03516 -0.124354,0.0234 -0.240622,0.05152 -0.345703,0.08594 -0.104623,0.03625 -0.195548,0.07451 -0.275391,0.117187 -0.08122,0.04222 -0.137342,0.08013 -0.169922,0.111328 -0.0335,0.03212 -0.05378,0.06669 -0.0625,0.101563 -0.0087,0.03487 -0.01367,0.0835 -0.01367,0.144531 0,0.03625 0.0028,0.06978 0.0078,0.09961 0.005,0.0312 0.0138,0.05586 0.02344,0.07422 0.01147,0.02019 0.02392,0.03483 0.03906,0.04492 0.01468,0.0087 0.03197,0.01367 0.05078,0.01367 0.02983,0 0.07316,-0.0174 0.132813,-0.05273 0.06011,-0.03579 0.13467,-0.07497 0.224609,-0.117187 0.08856,-0.04222 0.190205,-0.08094 0.308594,-0.117188 0.118388,-0.03487 0.250799,-0.05078 0.40039,-0.05078 0.13812,0 0.256577,0.01625 0.351563,0.04883 0.09453,0.0335 0.170357,0.08178 0.230468,0.146485 0.05965,0.06378 0.103328,0.145366 0.13086,0.242187 0.02615,0.09728 0.03906,0.208831 0.03906,0.335938 v 0.255859 h -0.453125 c -0.25559,0 -0.484797,0.0219 -0.689453,0.06641 -0.204197,0.04497 -0.378658,0.112269 -0.519531,0.203125 -0.140873,0.08994 -0.248046,0.204019 -0.324219,0.339844 -0.0748,0.137202 -0.113281,0.297038 -0.113281,0.482422 0,0.15831 0.02834,0.299015 0.08203,0.423828 0.05506,0.123436 0.131812,0.228644 0.230469,0.314453 0.09866,0.08489 0.217467,0.14839 0.357422,0.193359 0.139496,0.04635 0.29725,0.06836 0.470703,0.06836 0.196855,0 0.382847,-0.04402 0.558594,-0.128906 0.177124,-0.08443 0.337878,-0.20416 0.482422,-0.357422 v 0.330078 c 0,0.02845 0.006,0.05115 0.02344,0.06445 0.01744,0.01514 0.04486,0.0254 0.08203,0.0332 0.03763,0.0073 0.08856,0.01172 0.152344,0.01172 0.0647,0 0.115517,-0.0044 0.150391,-0.01172 0.0335,-0.0078 0.06081,-0.01806 0.08008,-0.0332 0.01973,-0.01331 0.0293,-0.036 0.0293,-0.06445 v -2.216797 c 0,-0.204656 -0.02443,-0.383388 -0.07031,-0.537109 -0.04635,-0.152804 -0.120328,-0.281061 -0.222656,-0.384766 -0.101869,-0.103246 -0.234739,-0.18264 -0.400391,-0.236328 -0.166111,-0.05369 -0.368115,-0.08008 -0.603515,-0.08008 z m 11.097656,0 c -0.240907,0 -0.459736,0.04149 -0.654297,0.125 -0.195478,0.08443 -0.360386,0.203935 -0.498047,0.361328 -0.13812,0.156475 -0.242528,0.349831 -0.316406,0.574219 -0.07204,0.225764 -0.109375,0.479972 -0.109375,0.761718 0,0.29643 0.03572,0.556863 0.105469,0.78125 0.07113,0.224388 0.175874,0.410838 0.314453,0.558594 0.139496,0.148674 0.310392,0.260224 0.513672,0.335938 0.203279,0.0748 0.43871,0.113281 0.708984,0.113281 0.156016,0 0.302251,-0.01267 0.439453,-0.03516 0.137202,-0.0234 0.2582,-0.04922 0.363281,-0.07813 0.104623,-0.02983 0.1907,-0.06002 0.25586,-0.08984 0.06562,-0.03029 0.105374,-0.05264 0.11914,-0.06641 0.01285,-0.01239 0.02448,-0.02725 0.0332,-0.04102 0.0087,-0.01468 0.0154,-0.03047 0.01953,-0.04883 0.0037,-0.01881 0.0055,-0.03864 0.0078,-0.0625 0.0028,-0.02203 0.0039,-0.04945 0.0039,-0.08203 0,-0.04359 -0.0036,-0.08104 -0.0059,-0.111328 -0.0037,-0.02983 -0.01024,-0.05288 -0.01758,-0.07031 -0.0078,-0.01744 -0.01748,-0.02989 -0.03125,-0.03906 -0.01239,-0.0087 -0.02886,-0.01367 -0.04492,-0.01367 -0.02983,0 -0.07155,0.01245 -0.128906,0.03906 -0.05736,0.02478 -0.130188,0.05473 -0.21875,0.08594 -0.08856,0.03258 -0.195265,0.0607 -0.316406,0.08594 -0.12206,0.02616 -0.26,0.03711 -0.416016,0.03711 -0.198232,0 -0.362798,-0.02605 -0.5,-0.08203 -0.135825,-0.05598 -0.24714,-0.137565 -0.332031,-0.242187 -0.08581,-0.104623 -0.147343,-0.22908 -0.183594,-0.375 -0.03579,-0.146839 -0.05469,-0.311052 -0.05469,-0.494141 h 2.154296 c 0.06103,0 0.114846,-0.02063 0.16211,-0.06055 0.04772,-0.03992 0.07227,-0.108139 0.07227,-0.203125 v -0.109375 c 0,-0.214751 -0.02743,-0.414002 -0.08203,-0.603515 -0.05461,-0.188137 -0.140342,-0.352691 -0.257812,-0.492188 -0.117012,-0.139496 -0.266471,-0.251847 -0.447266,-0.333984 -0.181712,-0.08351 -0.400318,-0.125 -0.658203,-0.125 z m -25.591797,0.05078 c -0.05873,0 -0.107939,0.0022 -0.146484,0.0059 -0.03992,0.0037 -0.07047,0.01047 -0.0957,0.02148 -0.0234,0.01147 -0.04011,0.02277 -0.04883,0.03516 -0.0087,0.01377 -0.01172,0.03105 -0.01172,0.05078 v 1.994141 c 0,0.238153 0.02063,0.44177 0.06055,0.607422 0.03992,0.167028 0.105609,0.313723 0.199218,0.439453 0.09223,0.126189 0.211737,0.223456 0.361329,0.296875 0.149591,0.0725 0.335347,0.109375 0.554687,0.109375 0.187219,0 0.372516,-0.04667 0.554687,-0.142578 0.18309,-0.09453 0.366551,-0.246175 0.554688,-0.453125 v 0.435547 c 0,0.01881 0.0038,0.03644 0.0098,0.04883 0.0073,0.01377 0.02186,0.02506 0.04297,0.03516 0.02157,0.01009 0.04911,0.01644 0.08398,0.02148 0.03579,0.005 0.08074,0.0078 0.136719,0.0078 0.05139,0 0.09553,-0.0028 0.130859,-0.0078 0.03625,-0.005 0.06483,-0.01139 0.08594,-0.02148 0.02248,-0.01009 0.0362,-0.02139 0.04492,-0.03516 0.0087,-0.01239 0.01367,-0.03001 0.01367,-0.04883 v -3.28711 c 0,-0.01973 -0.0061,-0.03702 -0.01758,-0.05078 -0.01101,-0.01239 -0.02634,-0.02369 -0.04883,-0.03516 -0.02111,-0.01101 -0.05325,-0.01781 -0.0918,-0.02148 -0.039,-0.0037 -0.0858,-0.0059 -0.144531,-0.0059 -0.06103,0 -0.111269,0.0022 -0.148438,0.0059 -0.03763,0.0037 -0.07035,0.01047 -0.09375,0.02148 -0.02524,0.01147 -0.04011,0.02277 -0.04883,0.03516 -0.0087,0.01377 -0.01367,0.03105 -0.01367,0.05078 v 2.296875 c -0.168405,0.206951 -0.325594,0.363328 -0.476562,0.470703 -0.149133,0.107376 -0.298251,0.16211 -0.449219,0.16211 -0.117012,0 -0.220032,-0.02247 -0.308594,-0.06836 -0.08719,-0.04497 -0.159438,-0.107315 -0.216797,-0.189453 -0.0569,-0.08122 -0.09942,-0.179286 -0.126953,-0.294922 -0.02845,-0.116094 -0.04297,-0.271083 -0.04297,-0.46289 v -1.914063 c 0,-0.01973 -0.0055,-0.03702 -0.01562,-0.05078 -0.0101,-0.01239 -0.02439,-0.02369 -0.04688,-0.03516 -0.0234,-0.01101 -0.05475,-0.01781 -0.09375,-0.02148 -0.03855,-0.0037 -0.08821,-0.0059 -0.146484,-0.0059 z m 11.896484,0 c -0.05736,0 -0.104609,0.0028 -0.144531,0.0078 -0.03854,0.005 -0.06931,0.01139 -0.0918,0.02148 -0.02386,0.0087 -0.04149,0.02197 -0.04883,0.03711 -0.0087,0.01468 -0.01367,0.02944 -0.01367,0.04687 v 3.28711 c 0,0.01881 0.005,0.03644 0.01367,0.04883 0.0073,0.01377 0.02497,0.02506 0.04883,0.03516 0.02248,0.01009 0.05325,0.01644 0.0918,0.02148 0.03992,0.005 0.08717,0.0078 0.144531,0.0078 0.06103,0 0.112423,-0.0028 0.152344,-0.0078 0.03854,-0.005 0.06736,-0.01139 0.08984,-0.02148 0.02111,-0.01009 0.03678,-0.02139 0.04687,-0.03516 0.01009,-0.01239 0.01563,-0.03001 0.01563,-0.04883 v -3.28711 c 0,-0.01744 -0.0055,-0.03219 -0.01563,-0.04687 -0.01009,-0.01514 -0.02577,-0.02839 -0.04687,-0.03711 -0.02248,-0.01009 -0.0513,-0.01644 -0.08984,-0.02148 -0.03992,-0.005 -0.09131,-0.0078 -0.152344,-0.0078 z m 13.669922,0.419922 c 0.289088,0 0.507459,0.09069 0.654297,0.271484 0.148215,0.179418 0.218739,0.427521 0.210938,0.744141 h -1.783203 c 0.0055,-0.134449 0.02901,-0.263283 0.07031,-0.386719 0.0413,-0.122059 0.09961,-0.229574 0.175781,-0.322265 0.0748,-0.09223 0.166874,-0.168051 0.279297,-0.222657 0.112423,-0.05598 0.242987,-0.08398 0.392578,-0.08398 z m -28.519531,0.04687 c 0.165652,0 0.322724,0.05416 0.474609,0.160156 0.152345,0.105999 0.311252,0.259035 0.47461,0.460938 v 1.314453 c -0.09499,0.119765 -0.186594,0.220596 -0.271484,0.302734 -0.08443,0.08122 -0.167051,0.146331 -0.244141,0.197266 -0.07847,0.05139 -0.153143,0.08827 -0.226563,0.109375 -0.07479,0.02248 -0.153614,0.03516 -0.234375,0.03516 -0.157392,0 -0.287955,-0.03849 -0.392578,-0.113281 -0.105081,-0.07342 -0.188629,-0.171945 -0.251953,-0.294922 -0.06378,-0.123895 -0.109987,-0.264483 -0.134766,-0.421875 -0.02615,-0.15831 -0.03711,-0.320676 -0.03711,-0.486328 0,-0.156016 0.01372,-0.308016 0.04492,-0.458985 0.03028,-0.150509 0.07949,-0.285908 0.146484,-0.404297 0.06745,-0.119765 0.154344,-0.217596 0.261719,-0.291015 0.10554,-0.07204 0.237363,-0.109375 0.390625,-0.109375 z m 24.517578,0 c 0.165652,0 0.322724,0.05416 0.47461,0.160156 0.152344,0.105999 0.311251,0.259035 0.474609,0.460938 v 1.314453 c -0.09499,0.119765 -0.186593,0.220596 -0.271484,0.302734 -0.08489,0.08122 -0.166592,0.146331 -0.244141,0.197266 -0.07801,0.05139 -0.155096,0.08827 -0.228516,0.109375 -0.0748,0.02248 -0.15166,0.03516 -0.232421,0.03516 -0.156934,0 -0.289451,-0.03849 -0.394532,-0.113281 -0.104622,-0.07342 -0.186676,-0.171945 -0.25,-0.294922 -0.06378,-0.123895 -0.109986,-0.264483 -0.134765,-0.421875 -0.02616,-0.15831 -0.03906,-0.320676 -0.03906,-0.486328 0,-0.156016 0.01567,-0.308016 0.04687,-0.458985 0.03029,-0.150509 0.07903,-0.285908 0.146485,-0.404297 0.06745,-0.119765 0.154802,-0.217596 0.261718,-0.291015 0.105999,-0.07204 0.237363,-0.109375 0.390625,-0.109375 z m -6.886719,1.4375 h 0.513672 v 0.695312 c -0.148215,0.165652 -0.289379,0.289298 -0.423828,0.369141 -0.135825,0.08122 -0.283096,0.121094 -0.441406,0.121094 -0.194561,0 -0.346785,-0.05139 -0.455078,-0.152344 -0.108752,-0.100951 -0.16211,-0.237504 -0.16211,-0.408203 0,-0.09958 0.01901,-0.186582 0.05664,-0.263672 0.03717,-0.07571 0.09835,-0.14266 0.177735,-0.197266 0.08122,-0.05461 0.182051,-0.09609 0.302734,-0.125 0.122518,-0.02753 0.265988,-0.03906 0.43164,-0.03906 z m 5.527344,5.644531 c -0.05873,0 -0.107363,0.0018 -0.144531,0.0078 -0.03763,0.0064 -0.06794,0.01472 -0.0918,0.02344 -0.02524,0.0073 -0.04206,0.0191 -0.05078,0.03516 -0.0087,0.01606 -0.01172,0.03277 -0.01172,0.04883 v 1.912109 C 35.892812,66.084689 35.733447,65.959432 35.574219,65.875 35.414532,65.791027 35.238683,65.75 35.046875,65.75 c -0.232188,0 -0.434204,0.0431 -0.611328,0.128906 -0.175747,0.08764 -0.323594,0.21049 -0.443359,0.371094 -0.118389,0.159687 -0.210455,0.355926 -0.271485,0.583984 -0.06011,0.226682 -0.08984,0.481008 -0.08984,0.763672 0,0.238154 0.02363,0.465972 0.07227,0.681641 0.0491,0.21521 0.126423,0.402813 0.232422,0.5625 0.105999,0.159228 0.244281,0.285297 0.414062,0.378906 0.1707,0.09361 0.375363,0.140625 0.617188,0.140625 0.220716,0 0.425486,-0.05163 0.611328,-0.15625 0.18676,-0.104622 0.367445,-0.251316 0.539063,-0.439453 v 0.435547 c 0,0.01835 0.0036,0.03564 0.01367,0.05078 0.0101,0.01377 0.02772,0.02644 0.04883,0.03516 0.02248,0.0073 0.04911,0.01448 0.08398,0.01953 0.0335,0.0046 0.07556,0.0078 0.126953,0.0078 0.04864,0 0.09013,-0.0032 0.125,-0.0078 0.0335,-0.005 0.06046,-0.01219 0.08203,-0.01953 0.01973,-0.0087 0.03425,-0.02139 0.04297,-0.03516 0.0087,-0.01514 0.01367,-0.03243 0.01367,-0.05078 v -4.865234 c 0,-0.01606 -0.0061,-0.03277 -0.01758,-0.04883 -0.01101,-0.01606 -0.02634,-0.02781 -0.04883,-0.03516 -0.02111,-0.0087 -0.05325,-0.01701 -0.0918,-0.02344 -0.03854,-0.006 -0.08741,-0.0078 -0.148438,-0.0078 z m -22.060547,0.275391 c -0.204197,0 -0.394565,0.02892 -0.570312,0.08398 -0.177124,0.05461 -0.328548,0.133659 -0.457031,0.238281 -0.127107,0.104623 -0.226327,0.234033 -0.298828,0.388672 -0.07067,0.154639 -0.107422,0.330489 -0.107422,0.527344 0,0.193184 0.03031,0.358892 0.0918,0.496094 0.06241,0.13812 0.142613,0.257047 0.242188,0.359375 0.09957,0.101869 0.21469,0.191405 0.341797,0.267578 0.12573,0.0748 0.255141,0.144048 0.388672,0.205078 0.134908,0.06241 0.265471,0.123482 0.392578,0.183594 0.128483,0.05965 0.241763,0.124764 0.341797,0.197265 0.100033,0.07204 0.180581,0.155014 0.240234,0.25 0.06103,0.09453 0.09375,0.208266 0.09375,0.341797 0,0.124354 -0.02281,0.236704 -0.06641,0.333985 -0.04359,0.09728 -0.107316,0.178639 -0.189453,0.246093 -0.08076,0.06608 -0.178134,0.118047 -0.291016,0.154297 -0.1138,0.03579 -0.237798,0.05469 -0.375,0.05469 -0.179418,0 -0.339819,-0.02028 -0.476562,-0.0625 -0.137661,-0.04222 -0.252906,-0.08808 -0.351563,-0.136719 -0.09682,-0.04864 -0.177828,-0.0945 -0.240234,-0.136719 -0.06103,-0.0413 -0.109081,-0.06055 -0.142578,-0.06055 -0.02019,0 -0.03747,0.003 -0.05078,0.01172 -0.01514,0.0087 -0.02701,0.02393 -0.03711,0.04687 -0.0087,0.02065 -0.0169,0.04911 -0.02148,0.08398 -0.005,0.03625 -0.0078,0.07913 -0.0078,0.132813 0,0.07617 0.0058,0.136671 0.01953,0.181641 0.01377,0.04451 0.03359,0.0815 0.0625,0.111328 0.02707,0.02891 0.07789,0.06521 0.150391,0.107422 0.07204,0.0413 0.159626,0.0806 0.265625,0.11914 0.105999,0.03992 0.226879,0.0715 0.361328,0.09766 0.134908,0.02753 0.282637,0.04102 0.441406,0.04102 0.226682,0 0.437334,-0.03077 0.632813,-0.0918 0.197314,-0.06011 0.365221,-0.150801 0.509766,-0.271484 0.14592,-0.121142 0.2592,-0.266459 0.341796,-0.439453 0.08076,-0.173453 0.121094,-0.371081 0.121094,-0.591797 0,-0.188137 -0.03134,-0.349703 -0.09375,-0.488281 -0.06103,-0.136744 -0.143189,-0.256471 -0.24414,-0.357422 -0.100952,-0.100952 -0.215843,-0.188876 -0.345704,-0.263672 -0.128024,-0.07342 -0.259505,-0.142672 -0.392578,-0.205078 -0.134449,-0.06195 -0.267083,-0.122105 -0.396484,-0.183594 -0.128484,-0.05965 -0.242799,-0.127753 -0.34375,-0.201172 -0.101869,-0.0725 -0.180699,-0.156967 -0.242188,-0.251953 -0.06103,-0.09453 -0.09375,-0.206654 -0.09375,-0.337891 0,-0.09086 0.01671,-0.176016 0.04883,-0.255859 0.0312,-0.08122 0.0788,-0.151626 0.142579,-0.208984 0.06332,-0.05874 0.143412,-0.105751 0.240234,-0.140625 0.09728,-0.03625 0.211595,-0.05273 0.34375,-0.05273 0.140873,0 0.269472,0.01648 0.382813,0.05273 0.11334,0.03487 0.209454,0.07451 0.292968,0.117187 0.08214,0.04359 0.153579,0.08036 0.210938,0.115235 0.0569,0.03396 0.09884,0.05078 0.125,0.05078 0.01744,0 0.03311,-0.0055 0.04687,-0.01563 0.01285,-0.01101 0.02391,-0.0283 0.03125,-0.05078 0.0064,-0.02386 0.0115,-0.05198 0.01563,-0.08594 0.0037,-0.03487 0.0059,-0.07359 0.0059,-0.117187 0,-0.04589 -0.0031,-0.08346 -0.0059,-0.113282 -0.0023,-0.02845 -0.0047,-0.05506 -0.0098,-0.07617 -0.0037,-0.01973 -0.01024,-0.03747 -0.01758,-0.05078 -0.0073,-0.01377 -0.02301,-0.03083 -0.04687,-0.05469 -0.02203,-0.02249 -0.07111,-0.05268 -0.144531,-0.08984 -0.0725,-0.03763 -0.154438,-0.07369 -0.248047,-0.103516 -0.09315,-0.0312 -0.194782,-0.05391 -0.300781,-0.07227 -0.105999,-0.01744 -0.211784,-0.0293 -0.316407,-0.0293 z m 10.06836,0.425781 c -0.05874,0 -0.107481,8.12e-4 -0.146485,0.0059 -0.03992,0.005 -0.07081,0.01392 -0.09375,0.02539 -0.0234,0.01101 -0.0377,0.02197 -0.04687,0.03711 -0.0087,0.01468 -0.01172,0.02944 -0.01172,0.04687 v 0.783203 h -0.458985 c -0.01881,0 -0.03472,0.003 -0.05078,0.01172 -0.01606,0.0087 -0.02897,0.02278 -0.03906,0.04297 -0.01009,0.02065 -0.01701,0.04738 -0.02344,0.07813 -0.006,0.03258 -0.0098,0.07325 -0.0098,0.119141 0,0.08719 0.01072,0.150908 0.0332,0.189453 0.02248,0.03992 0.05164,0.05664 0.08789,0.05664 h 0.460938 v 1.921875 c 0,0.19089 0.01591,0.354186 0.05078,0.494141 0.03487,0.140873 0.09237,0.255423 0.169922,0.347656 0.07847,0.09086 0.178145,0.159191 0.298828,0.205078 0.122059,0.04497 0.268753,0.06836 0.439453,0.06836 0.05598,0 0.111528,-0.0039 0.167969,-0.01172 0.05598,-0.0073 0.108645,-0.01633 0.158203,-0.02734 0.05002,-0.01147 0.09622,-0.02553 0.134765,-0.04297 0.03855,-0.01606 0.06758,-0.03496 0.08594,-0.05469 0.02019,-0.01881 0.03483,-0.0505 0.04492,-0.0918 0.0087,-0.04084 0.01367,-0.0973 0.01367,-0.167969 0,-0.04359 -0.0013,-0.07909 -0.0059,-0.109375 -0.0041,-0.02845 -0.01115,-0.05092 -0.01758,-0.06836 -0.006,-0.01744 -0.01438,-0.02873 -0.02539,-0.03516 -0.01147,-0.006 -0.02081,-0.0078 -0.0332,-0.0078 -0.02019,0 -0.04163,0.0046 -0.06641,0.01563 -0.02386,0.01147 -0.05439,0.02277 -0.08789,0.03516 -0.03396,0.01147 -0.07359,0.02369 -0.117188,0.03516 -0.04359,0.0096 -0.09441,0.01563 -0.15039,0.01563 -0.172994,0 -0.291922,-0.05911 -0.359376,-0.173828 -0.06608,-0.115636 -0.09961,-0.286532 -0.09961,-0.513672 v -1.833985 h 0.84375 c 0.03625,0 0.06541,-0.01672 0.08789,-0.05664 0.02248,-0.03854 0.03125,-0.102268 0.03125,-0.189453 0,-0.04589 -0.0013,-0.08656 -0.0059,-0.119141 -0.0041,-0.03074 -0.01392,-0.05748 -0.02539,-0.07813 -0.01009,-0.02019 -0.0238,-0.03425 -0.03711,-0.04297 -0.01514,-0.0087 -0.03197,-0.01172 -0.05078,-0.01172 h -0.84375 V 65.03716 c 0,-0.01744 -0.006,-0.03219 -0.01563,-0.04687 -0.01009,-0.01514 -0.02439,-0.0261 -0.04687,-0.03711 -0.02111,-0.01147 -0.05325,-0.02034 -0.0918,-0.02539 -0.03854,-0.005 -0.08741,-0.0059 -0.148437,-0.0059 z M 17.652344,65.75 c -0.127566,0 -0.253517,0.01175 -0.376953,0.03516 -0.124354,0.02386 -0.239128,0.05106 -0.34375,0.08594 -0.105082,0.03625 -0.19796,0.07497 -0.277344,0.117187 -0.08122,0.04268 -0.137342,0.07967 -0.169922,0.111328 -0.0335,0.03212 -0.05378,0.06669 -0.0625,0.101563 -0.0083,0.03487 -0.01367,0.0835 -0.01367,0.144531 0,0.03625 0.0028,0.06978 0.0078,0.09961 0.005,0.0312 0.0138,0.05541 0.02344,0.07422 0.01147,0.01973 0.02392,0.03483 0.03906,0.04492 0.01468,0.0087 0.03197,0.01367 0.05078,0.01367 0.02983,0 0.07511,-0.01786 0.134765,-0.05273 0.06011,-0.03579 0.132718,-0.07497 0.222657,-0.117188 0.08856,-0.04222 0.192158,-0.07944 0.310547,-0.115234 0.118388,-0.03533 0.250799,-0.05273 0.40039,-0.05273 0.138579,0 0.254624,0.01475 0.34961,0.04687 0.09453,0.03396 0.17231,0.08374 0.232422,0.148438 0.05965,0.06378 0.101374,0.144907 0.128906,0.242187 0.02661,0.09728 0.04102,0.20929 0.04102,0.335938 v 0.255859 h -0.453125 c -0.25559,0 -0.487209,0.02144 -0.691406,0.06641 -0.204197,0.04497 -0.376705,0.111809 -0.517578,0.203124 -0.140414,0.08948 -0.249999,0.20356 -0.326172,0.339844 -0.0748,0.136743 -0.111328,0.29658 -0.111328,0.482422 0,0.15831 0.02685,0.299474 0.08008,0.423828 0.05506,0.123436 0.131812,0.228186 0.230469,0.314453 0.0982,0.08489 0.21942,0.14839 0.359375,0.19336 0.139496,0.04589 0.295297,0.06836 0.46875,0.06836 0.196855,0 0.3848,-0.04206 0.560547,-0.126953 0.177124,-0.08489 0.335924,-0.204159 0.480469,-0.357422 v 0.328125 c 0,0.02845 0.008,0.05069 0.02539,0.06445 0.01744,0.01468 0.04486,0.02586 0.08203,0.0332 0.03763,0.0078 0.08856,0.01172 0.152344,0.01172 0.0647,0 0.113564,-0.0039 0.148438,-0.01172 0.0335,-0.0073 0.06126,-0.01852 0.08008,-0.0332 0.01973,-0.01377 0.03125,-0.036 0.03125,-0.06445 v -2.21875 c 0,-0.204197 -0.02397,-0.381435 -0.07031,-0.535156 -0.04589,-0.153263 -0.122281,-0.28152 -0.224609,-0.384766 -0.101868,-0.103257 -0.234738,-0.183111 -0.40039,-0.23634 C 18.087795,65.77639 17.887744,65.75 17.652344,65.75 Z m 4.05664,0 c -0.187219,0 -0.373551,0.04863 -0.55664,0.144531 -0.184466,0.0959 -0.370222,0.248587 -0.554688,0.455078 v -0.435547 c 0,-0.01973 -0.0044,-0.03506 -0.01172,-0.04883 -0.0087,-0.01239 -0.02416,-0.0261 -0.04297,-0.03711 -0.01973,-0.01101 -0.04716,-0.01781 -0.08203,-0.02148 -0.03487,-0.0037 -0.07912,-0.0059 -0.132813,-0.0059 -0.05598,0 -0.100809,0.0022 -0.134766,0.0059 -0.03487,0.0037 -0.06104,0.01047 -0.08398,0.02148 -0.02111,0.01101 -0.03712,0.02472 -0.04492,0.03711 -0.0073,0.01377 -0.0098,0.0291 -0.0098,0.04883 v 3.28711 c 0,0.01835 0.005,0.03598 0.01367,0.04883 0.0073,0.01331 0.02347,0.02552 0.04687,0.03516 0.02248,0.01009 0.05325,0.01644 0.0918,0.02148 0.03992,0.0046 0.08913,0.0078 0.146485,0.0078 0.06103,0 0.110469,-0.0032 0.15039,-0.0078 0.03854,-0.005 0.06931,-0.01139 0.0918,-0.02148 0.02111,-0.0096 0.03678,-0.02185 0.04687,-0.03516 0.01009,-0.01285 0.01563,-0.03047 0.01563,-0.04883 v -2.296875 c 0.164276,-0.20695 0.322265,-0.363787 0.474609,-0.470703 0.15051,-0.107376 0.300663,-0.16211 0.451172,-0.16211 0.117471,0 0.220032,0.02281 0.308594,0.06641 0.08948,0.04359 0.162768,0.107315 0.21875,0.189453 0.05598,0.08351 0.09804,0.182616 0.126953,0.296875 0.02983,0.113799 0.04297,0.264529 0.04297,0.453125 v 1.923828 c 0,0.01835 0.004,0.03598 0.01367,0.04883 0.01009,0.01331 0.02772,0.02552 0.04883,0.03516 0.02248,0.01009 0.0513,0.01644 0.08984,0.02148 0.03992,0.0046 0.09131,0.0078 0.152344,0.0078 0.05736,0 0.105068,-0.0032 0.144531,-0.0078 0.039,-0.005 0.06931,-0.01139 0.0918,-0.02148 0.02248,-0.0096 0.03724,-0.02185 0.04687,-0.03516 0.01009,-0.01285 0.01563,-0.03047 0.01563,-0.04883 v -2.00586 c 0,-0.233105 -0.0212,-0.43258 -0.0625,-0.599609 -0.03946,-0.166111 -0.105033,-0.312687 -0.197266,-0.4375 -0.09223,-0.123436 -0.21369,-0.222997 -0.363281,-0.296875 C 22.112127,65.786532 21.928324,65.75 21.708984,65.75 Z m 5.798828,0 c -0.127106,0 -0.253517,0.01175 -0.376953,0.03516 -0.124353,0.02386 -0.238668,0.05106 -0.34375,0.08594 -0.104622,0.03625 -0.1975,0.07497 -0.277343,0.117187 -0.08076,0.04268 -0.137342,0.07967 -0.169922,0.111328 -0.0335,0.03212 -0.05183,0.06669 -0.06055,0.101563 -0.0087,0.03487 -0.01563,0.0835 -0.01563,0.144531 0,0.03625 0.0028,0.06978 0.0078,0.09961 0.005,0.0312 0.0138,0.05541 0.02344,0.07422 0.01147,0.01973 0.02392,0.03483 0.03906,0.04492 0.01468,0.0087 0.03392,0.01367 0.05273,0.01367 0.02983,0 0.07316,-0.01786 0.132812,-0.05273 0.06011,-0.03579 0.132718,-0.07497 0.222657,-0.117188 0.0881,-0.04222 0.192158,-0.07944 0.310546,-0.115234 0.118389,-0.03533 0.250799,-0.05273 0.400391,-0.05273 0.13812,0 0.254623,0.01475 0.349609,0.04687 0.09453,0.03396 0.17231,0.08374 0.232422,0.148438 0.05965,0.06378 0.101374,0.144907 0.128906,0.242187 0.02616,0.09728 0.04102,0.20929 0.04102,0.335938 v 0.255859 h -0.453125 c -0.25559,0 -0.48675,0.02144 -0.691406,0.06641 -0.204197,0.04497 -0.376705,0.111809 -0.517578,0.203124 -0.140873,0.08948 -0.25,0.20356 -0.326172,0.339844 -0.0748,0.136743 -0.111328,0.29658 -0.111328,0.482422 0,0.15831 0.02639,0.299474 0.08008,0.423828 0.05506,0.123436 0.131812,0.228186 0.230469,0.314453 0.0982,0.08489 0.219419,0.14839 0.359375,0.19336 0.139496,0.04589 0.295756,0.06836 0.46875,0.06836 0.197314,0 0.384799,-0.04206 0.560547,-0.126953 0.177123,-0.08489 0.335465,-0.204159 0.480468,-0.357422 v 0.328125 c 0,0.02845 0.008,0.05069 0.02539,0.06445 0.01744,0.01468 0.04486,0.02586 0.08203,0.0332 0.03763,0.0078 0.08856,0.01172 0.152344,0.01172 0.0647,0 0.114022,-0.0039 0.148437,-0.01172 0.03396,-0.0073 0.06081,-0.01852 0.08008,-0.0332 0.01973,-0.01377 0.03125,-0.036 0.03125,-0.06445 v -2.21875 c 0,-0.204197 -0.02443,-0.381435 -0.07031,-0.535156 -0.04635,-0.153263 -0.120328,-0.28152 -0.222656,-0.384766 -0.102311,-0.103257 -0.236675,-0.183111 -0.402327,-0.23634 C 27.943264,65.77639 27.743213,65.75 27.507812,65.75 Z m 4.056641,0 c -0.187219,0 -0.373551,0.04863 -0.556641,0.144531 -0.184465,0.0959 -0.370221,0.248587 -0.554687,0.455078 v -0.435547 c 0,-0.01973 -0.0044,-0.03506 -0.01172,-0.04883 -0.0087,-0.01239 -0.02416,-0.0261 -0.04297,-0.03711 -0.01973,-0.01101 -0.04716,-0.01781 -0.08203,-0.02148 -0.03487,-0.0037 -0.07958,-0.0059 -0.132812,-0.0059 -0.05644,0 -0.101268,0.0022 -0.134766,0.0059 -0.03487,0.0037 -0.0615,0.01047 -0.08398,0.02148 -0.02111,0.01101 -0.03712,0.02472 -0.04492,0.03711 -0.0073,0.01377 -0.0098,0.0291 -0.0098,0.04883 v 3.28711 c 0,0.01835 0.0035,0.03598 0.01172,0.04883 0.0078,0.01331 0.02497,0.02552 0.04883,0.03516 0.02248,0.01009 0.05325,0.01644 0.0918,0.02148 0.03992,0.0046 0.08913,0.0078 0.146484,0.0078 0.06103,0 0.110469,-0.0032 0.150391,-0.0078 0.03854,-0.005 0.06931,-0.01139 0.0918,-0.02148 0.02111,-0.0096 0.03678,-0.02185 0.04687,-0.03516 0.01009,-0.01285 0.01367,-0.03047 0.01367,-0.04883 v -2.296875 c 0.164734,-0.20695 0.324217,-0.363787 0.476562,-0.470703 0.15051,-0.107376 0.300663,-0.16211 0.451172,-0.16211 0.117471,0 0.220032,0.02281 0.308594,0.06641 0.08948,0.04359 0.162768,0.107315 0.21875,0.189453 0.05598,0.08351 0.09804,0.182616 0.126953,0.296875 0.02983,0.113799 0.04297,0.264529 0.04297,0.453125 v 1.923828 c 0,0.01835 0.0055,0.03598 0.01563,0.04883 0.0096,0.01331 0.02577,0.02552 0.04687,0.03516 0.02248,0.01009 0.0513,0.01644 0.08984,0.02148 0.03992,0.0046 0.09177,0.0078 0.152344,0.0078 0.05736,0 0.106563,-0.0032 0.146485,-0.0078 0.03854,-0.005 0.06736,-0.01139 0.08984,-0.02148 0.02248,-0.0096 0.03678,-0.02185 0.04687,-0.03516 0.0101,-0.01285 0.01563,-0.03047 0.01563,-0.04883 v -2.00586 c 0,-0.233105 -0.01971,-0.43258 -0.06055,-0.599609 -0.03992,-0.166111 -0.107445,-0.312687 -0.199219,-0.4375 -0.09223,-0.123436 -0.21369,-0.222997 -0.363281,-0.296875 C 31.967596,65.786532 31.783793,65.75 31.564453,65.75 Z m 7.560547,0 c -0.240448,0 -0.457783,0.04103 -0.652344,0.125 -0.195478,0.08443 -0.360845,0.204395 -0.498047,0.361328 -0.138578,0.156934 -0.242987,0.349831 -0.316406,0.574219 -0.0725,0.225764 -0.111328,0.479972 -0.111328,0.761719 0,0.296888 0.03722,0.556862 0.107422,0.78125 0.07113,0.224387 0.17438,0.410378 0.3125,0.558593 0.139496,0.148674 0.310851,0.259765 0.513672,0.335938 0.203279,0.0748 0.440204,0.113281 0.710937,0.113281 0.155557,0 0.304204,-0.01267 0.441406,-0.03516 0.136744,-0.02386 0.256706,-0.04967 0.361329,-0.07813 0.104622,-0.02983 0.191158,-0.06002 0.255859,-0.08984 0.06608,-0.02983 0.105375,-0.05264 0.119141,-0.06641 0.01239,-0.01239 0.02448,-0.02725 0.0332,-0.04102 0.0087,-0.01514 0.01391,-0.03001 0.01758,-0.04883 0.0037,-0.01881 0.0075,-0.03864 0.0098,-0.0625 0.0023,-0.02249 0.0039,-0.04991 0.0039,-0.08203 0,-0.04359 -0.0031,-0.0815 -0.0059,-0.111328 -0.0037,-0.02983 -0.01024,-0.05288 -0.01758,-0.07031 -0.0073,-0.0179 -0.01748,-0.03034 -0.03125,-0.03906 -0.01239,-0.0087 -0.02886,-0.01172 -0.04492,-0.01172 -0.03028,0 -0.07155,0.01095 -0.128906,0.03711 -0.05736,0.02478 -0.130188,0.05473 -0.21875,0.08594 -0.08856,0.03258 -0.195723,0.06116 -0.316406,0.08594 -0.12206,0.02616 -0.26,0.03711 -0.416016,0.03711 -0.197773,0 -0.363257,-0.02559 -0.5,-0.08203 -0.136284,-0.05598 -0.24714,-0.137106 -0.332031,-0.242187 -0.08581,-0.104622 -0.146884,-0.229079 -0.183594,-0.375 -0.03579,-0.147297 -0.05469,-0.310593 -0.05469,-0.494141 h 2.154297 c 0.06103,0 0.114845,-0.01867 0.162109,-0.05859 0.04726,-0.03992 0.07227,-0.110551 0.07227,-0.205079 v -0.109374 c 0,-0.214293 -0.02892,-0.414003 -0.08398,-0.603516 -0.05461,-0.188596 -0.138847,-0.352691 -0.255859,-0.492188 C 40.11541,66.069029 39.965951,65.957138 39.785156,65.875 39.602985,65.791486 39.382885,65.75 39.125,65.75 Z m 3.804688,0 c -0.06975,0 -0.139237,0.0099 -0.208985,0.02734 -0.06975,0.01835 -0.138777,0.04993 -0.208984,0.09766 -0.07113,0.04726 -0.146719,0.114669 -0.226563,0.197266 -0.07847,0.08214 -0.162014,0.188158 -0.251953,0.320312 v -0.478516 c 0,-0.01973 -0.0059,-0.03506 -0.01367,-0.04883 -0.0087,-0.01239 -0.0222,-0.0261 -0.04102,-0.03711 -0.02019,-0.01101 -0.04762,-0.01781 -0.08203,-0.02148 -0.03533,-0.0037 -0.08154,-0.0059 -0.134765,-0.0059 -0.05598,0 -0.101268,0.0022 -0.134766,0.0059 -0.03533,0.0037 -0.0615,0.01047 -0.08398,0.02148 -0.02111,0.01101 -0.03563,0.02472 -0.04297,0.03711 -0.0078,0.01377 -0.01172,0.0291 -0.01172,0.04883 v 3.28711 c 0,0.01835 0.005,0.03598 0.01367,0.04883 0.0073,0.01331 0.02347,0.02552 0.04687,0.03516 0.02249,0.01009 0.05279,0.01644 0.0918,0.02148 0.03946,0.0046 0.08913,0.0078 0.146484,0.0078 0.06149,0 0.110469,-0.0032 0.150391,-0.0078 0.03854,-0.005 0.06931,-0.01139 0.0918,-0.02148 0.02111,-0.0096 0.03724,-0.02185 0.04687,-0.03516 0.01009,-0.01285 0.01563,-0.03047 0.01563,-0.04883 v -2.16211 c 0.08489,-0.133531 0.162674,-0.24761 0.232422,-0.339843 0.07067,-0.09223 0.138424,-0.166674 0.203125,-0.222657 0.06332,-0.05644 0.124858,-0.09528 0.183594,-0.11914 0.05873,-0.02524 0.118657,-0.03906 0.179687,-0.03906 0.05094,0 0.09807,0.0055 0.142578,0.01563 0.04405,0.0101 0.08335,0.01978 0.119141,0.03125 0.03533,0.01101 0.0653,0.02173 0.09375,0.0332 0.02753,0.01101 0.05208,0.01562 0.07227,0.01562 0.02019,0 0.03391,-0.0046 0.04492,-0.01562 0.01009,-0.01147 0.02,-0.02772 0.02734,-0.04883 0.0064,-0.01973 0.01138,-0.04877 0.01367,-0.08594 0.0023,-0.03625 0.0039,-0.07958 0.0039,-0.132813 0,-0.05644 -5.76e-4,-0.102644 -0.002,-0.134765 -9.18e-4,-0.03258 -0.0022,-0.05678 -0.0059,-0.07422 -0.0037,-0.01744 -0.0086,-0.0315 -0.01367,-0.04297 -0.005,-0.01101 -0.01461,-0.02322 -0.0293,-0.03516 -0.01377,-0.01147 -0.03843,-0.02277 -0.07422,-0.03516 -0.03487,-0.01285 -0.07555,-0.02311 -0.119141,-0.0332 -0.04359,-0.0101 -0.08508,-0.01586 -0.125,-0.01953 -0.03992,-0.0041 -0.0768,-0.0059 -0.109374,-0.0059 z m -3.828126,0.470703 c 0.28863,0 0.507,0.09069 0.654297,0.271485 0.148215,0.179418 0.21828,0.42752 0.210938,0.74414 h -1.783203 c 0.005,-0.134908 0.02901,-0.263741 0.07031,-0.386719 0.0413,-0.122518 0.09961,-0.230032 0.175782,-0.322265 0.0748,-0.09223 0.166873,-0.166098 0.279296,-0.220703 0.111965,-0.05644 0.242987,-0.08594 0.392578,-0.08594 z m -4.003906,0.04687 c 0.165652,0 0.324218,0.05416 0.476563,0.160156 0.151886,0.105999 0.311251,0.259035 0.474609,0.460938 v 1.316406 c -0.09499,0.119306 -0.186593,0.218644 -0.271484,0.300781 -0.08443,0.08122 -0.167051,0.146331 -0.244141,0.197266 -0.07847,0.05093 -0.155096,0.08976 -0.228515,0.111328 -0.0748,0.02249 -0.151202,0.0332 -0.232422,0.0332 -0.156934,0 -0.289909,-0.03848 -0.394532,-0.113281 -0.104622,-0.07388 -0.188629,-0.171486 -0.251953,-0.294922 -0.06378,-0.123436 -0.107574,-0.264482 -0.132812,-0.421875 -0.02616,-0.157851 -0.03906,-0.320217 -0.03906,-0.486328 0,-0.155557 0.01521,-0.308016 0.04687,-0.458984 0.02983,-0.150969 0.07754,-0.287862 0.144531,-0.40625 0.06745,-0.119307 0.156297,-0.215644 0.263672,-0.289063 0.105999,-0.07204 0.23541,-0.109375 0.388672,-0.109375 z M 17.833984,67.70312 h 0.515625 v 0.697266 c -0.148215,0.165652 -0.291332,0.289297 -0.425781,0.36914 -0.135825,0.08076 -0.281143,0.121094 -0.439453,0.121094 -0.194561,0 -0.346785,-0.05139 -0.455078,-0.152344 -0.108752,-0.100951 -0.162109,-0.237044 -0.162109,-0.408203 0,-0.09958 0.01901,-0.186582 0.05664,-0.263672 0.03717,-0.07617 0.09594,-0.140707 0.175781,-0.195312 0.08122,-0.05506 0.182052,-0.09655 0.302735,-0.125 0.122059,-0.02753 0.265988,-0.04297 0.43164,-0.04297 z m 9.855469,0 h 0.515625 v 0.697266 c -0.148215,0.165652 -0.291332,0.289297 -0.425781,0.36914 -0.135826,0.08076 -0.281143,0.121094 -0.439453,0.121094 -0.194561,0 -0.346785,-0.05139 -0.455078,-0.152344 -0.108753,-0.100951 -0.16211,-0.237044 -0.16211,-0.408203 0,-0.09958 0.01901,-0.186582 0.05664,-0.263672 0.03717,-0.07617 0.09594,-0.140707 0.175781,-0.195312 0.08122,-0.05506 0.182052,-0.09655 0.302734,-0.125 0.122519,-0.02753 0.265989,-0.04297 0.431641,-0.04297 z"
         id="path16"
         transform="matrix(2.1792668,0,0,2.1792668,185.84739,294.52586)"
    /></g></g></svg>
