<?xml version="1.0" encoding="UTF-8" ?>
<!DOCTYPE svg PUBLIC "-//W3C//DTD SVG 1.1//EN" "http://www.w3.org/Graphics/SVG/1.1/DTD/svg11.dtd">
<svg width="276pt" height="256pt" viewBox="0 0 276 256" version="1.1" xmlns="http://www.w3.org/2000/svg">
<g id="#0a66c2ff">
<path fill="#0a66c2" opacity="1.00" d=" M 18.74 0.00 L 237.17 0.00 C 242.81 0.20 248.40 2.72 251.86 7.25 C 255.03 11.06 256.12 16.11 256.01 20.97 C 255.95 93.00 256.07 165.03 255.95 237.06 C 256.15 247.12 247.29 255.97 237.26 256.00 L 18.82 256.00 C 8.79 256.02 0.02 247.26 0.00 237.23 L 0.00 18.84 C -0.03 8.81 8.72 0.03 18.74 0.00 M 52.45 35.61 C 44.65 37.07 37.94 43.15 35.89 50.84 C 33.63 58.81 36.01 68.07 42.41 73.49 C 49.86 80.09 61.82 80.61 69.89 74.82 C 80.95 67.46 81.99 49.73 72.09 40.96 C 66.92 36.11 59.36 34.21 52.45 35.61 M 158.97 93.85 C 148.23 97.09 138.06 103.50 131.99 113.12 C 132.01 107.41 131.99 101.71 132.00 96.00 C 120.00 96.00 108.00 96.00 96.00 96.00 C 96.00 136.67 96.00 177.33 96.00 218.00 C 108.67 218.00 121.33 218.00 134.00 218.00 C 134.00 196.66 134.00 175.31 133.99 153.97 C 133.17 142.03 140.81 129.68 152.69 126.69 C 159.80 124.72 168.15 126.17 173.39 131.62 C 178.58 136.98 179.92 144.82 179.99 152.00 C 180.02 174.00 179.99 196.00 180.00 218.00 C 192.67 218.00 205.33 218.00 218.00 218.00 C 217.98 193.00 218.04 167.99 217.97 142.99 C 217.97 129.26 214.20 114.75 204.20 104.85 C 192.66 93.22 174.53 89.35 158.97 93.85 M 38.00 96.00 C 38.00 136.67 38.00 177.33 38.00 218.00 C 50.67 218.00 63.33 218.00 76.00 218.00 C 76.00 177.33 76.00 136.67 76.00 96.00 C 63.33 96.00 50.67 96.00 38.00 96.00 Z" />
</g>
</svg>
