<?xml version="1.0" encoding="UTF-8" ?>
<!DOCTYPE svg PUBLIC "-//W3C//DTD SVG 1.1//EN" "http://www.w3.org/Graphics/SVG/1.1/DTD/svg11.dtd">
<svg width="396pt" height="428pt" viewBox="0 0 396 428" version="1.1" xmlns="http://www.w3.org/2000/svg">
<g id="#ffffffff">
</g>
<g id="#383c45ff">
<path fill="#383c45" opacity="1.00" d=" M 82.71 0.00 L 355.79 0.00 L 351.04 0.61 C 358.34 0.49 366.02 -0.51 373.10 1.95 C 383.42 5.27 391.82 14.01 394.60 24.51 C 396.10 29.53 395.56 34.84 396.00 40.00 L 396.00 391.49 C 395.94 398.56 394.85 405.87 390.98 411.93 C 385.89 420.37 376.84 426.20 367.07 427.43 C 361.50 427.57 350.36 427.86 344.79 428.00 L 77.76 428.00 C 73.62 427.84 65.33 427.51 61.19 427.34 C 49.67 425.80 39.33 417.67 35.18 406.81 C 31.55 397.80 33.45 387.93 32.93 378.50 C 23.93 378.46 14.92 378.51 5.92 378.48 C 2.89 378.69 0.14 375.98 0.23 372.97 C 0.18 370.00 2.91 367.37 5.87 367.56 C 14.90 367.52 23.93 367.54 32.96 367.56 C 32.97 265.57 32.98 163.59 32.95 61.60 C 23.96 61.54 14.97 61.60 5.98 61.57 C 3.31 61.74 0.68 59.69 0.33 57.02 C -0.37 53.77 2.53 50.44 5.84 50.64 C 14.88 50.60 23.91 50.61 32.95 50.65 C 33.13 43.42 32.67 36.16 33.20 28.95 C 34.80 14.20 47.68 1.74 62.44 0.51 C 67.51 0.38 77.64 0.13 82.71 0.00 M 44.00 30.93 C 43.73 37.49 43.90 44.07 43.90 50.63 C 59.28 50.64 74.66 50.60 90.04 50.64 C 93.32 50.40 96.20 53.61 95.66 56.83 C 95.35 59.57 92.75 61.74 90.00 61.58 C 74.63 61.59 59.27 61.51 43.90 61.60 C 43.83 163.59 43.90 265.57 43.87 367.56 C 59.28 367.55 74.69 367.53 90.11 367.57 C 92.48 367.46 94.89 369.10 95.44 371.44 C 96.67 374.80 93.68 378.77 90.08 378.48 C 74.68 378.52 59.29 378.52 43.89 378.47 C 43.90 384.66 43.74 390.85 43.98 397.04 C 44.81 408.04 55.04 417.17 66.09 416.72 C 165.07 416.72 264.06 416.75 363.05 416.70 C 374.61 416.96 385.01 406.67 384.82 395.10 C 384.86 274.40 384.86 153.69 384.82 32.99 C 385.06 21.35 374.64 11.03 363.01 11.29 C 264.00 11.29 164.99 11.27 65.97 11.27 C 55.03 10.95 44.81 19.98 44.00 30.93 Z" />
<path fill="#383c45" opacity="1.00" d=" M 201.51 110.32 C 212.85 105.77 225.67 105.18 237.46 108.30 C 251.19 111.97 263.50 120.88 271.10 132.92 C 280.48 147.26 282.78 165.92 277.33 182.15 C 272.74 195.77 263.05 207.91 250.20 214.52 C 250.74 216.03 252.57 215.68 253.74 216.31 C 270.74 222.56 285.78 234.04 296.28 248.81 C 307.25 264.17 313.25 283.05 312.96 301.93 C 312.68 304.83 309.83 307.00 306.98 306.71 C 250.64 306.69 194.30 306.71 137.96 306.70 C 135.13 306.95 132.45 304.73 132.13 301.92 C 131.87 282.10 138.46 262.27 150.52 246.53 C 161.76 231.70 177.70 220.39 195.51 214.96 C 182.89 208.45 173.09 196.90 168.25 183.60 C 163.40 170.09 163.76 154.75 169.42 141.53 C 175.33 127.37 187.20 115.87 201.51 110.32 M 218.37 117.48 C 207.91 118.38 197.80 122.94 190.28 130.27 C 180.83 139.08 175.51 152.07 175.81 164.97 C 175.95 177.47 181.54 189.76 190.69 198.25 C 200.55 207.55 214.66 212.19 228.11 210.43 C 239.48 209.19 250.24 203.44 257.71 194.81 C 266.30 185.19 270.50 171.80 269.00 159.00 C 267.72 146.25 260.84 134.16 250.50 126.59 C 241.41 119.71 229.71 116.43 218.37 117.48 M 167.69 243.70 C 153.41 257.18 144.56 276.13 143.20 295.71 C 196.11 295.84 249.04 295.85 301.96 295.70 C 300.96 284.50 297.94 273.42 292.53 263.52 C 282.43 244.61 264.33 230.09 243.57 224.59 C 217.24 217.04 187.33 224.63 167.69 243.70 Z" />
</g>
</svg>
