<?xml version="1.0" encoding="utf-8"?>
<!-- Generator: Adobe Illustrator 28.1.0, SVG Export Plug-In . SVG Version: 6.00 Build 0)  -->
<svg version="1.1" id="Layer_1" xmlns="http://www.w3.org/2000/svg" x="0px" y="0px"
     viewBox="0 0 1024 1024" style="enable-background:new 0 0 1024 1024;" xml:space="preserve">
<style type="text/css">
	.st0{font-family:'Impact';}
	.st1{font-size:29px;}
</style>
<g id="_x23_f6f3e5ff">
</g>
<path d="M421,78.8c10.4,17.5,20.9,34.9,32.2,51.9c4.1,6.5,9.4,12.4,11.8,19.8c0.4-0.1,1.3-0.2,1.8-0.3c-0.1,0.7-0.1,2.1-0.2,2.8
	c3.2,7.8,6,15.7,10,23.2c1.4,2.3,2.3,5.2,4.5,6.8c0.9-5.4,2.3-10.7,3.9-15.9c1-3.4,1.9-6.7,3-10.1c1.8-6.6,2.7-13.4,4-20
	c0.2-2.7,0.1-5.4,0.2-8.1c-1.6-2.8-3.2-5.7-4.2-8.8c1.4,2.9,2.5,6.1,5.1,8.2c0.5-1.5,1-3.1,1.7-4.6c-0.2,1.8-0.6,3.5-1.2,5.1
	c0.1,5.4-0.7,10.8-1.7,16.1c-0.4,3.4-1.1,6.7-2,10c-1.9,8.1-4.1,16-6,24.1c-0.3,2-0.4,4-1.1,6c-0.6,6.7-0.4,13.4-0.4,20.1
	c0.1,9.6,1.3,19.4,5.5,28.2c0.2,0.5,0.7,1.5,0.9,2c0.2,0.5,0.7,1.5,1,2c2.1,3.6,4,7.4,6.1,11c2.8,5.7,5.2,12.3,10.5,16.2
	c0.3-9.7,2.3-19.2,4.4-28.6c0.8-2.8,5.2-6.4,1.2-8.7c0.6,0.2,1.8,0.7,2.4,0.9c-0.5-42.1,0.3-84.2-0.6-126.3
	c-2.7-0.8-5.4-2.1-6.5-4.8c-2.2-4.4,0.3-10.9,5.5-11.4c5.7-1.3,10.5,5.5,8.3,10.6c-0.9,3-3.7,4.5-6.4,5.7
	c0.6,34.1,0.5,68.2,0.5,102.2c0,7.8,0.5,15.5,0.1,23.2c5.9-8.1,11.4-16.6,16.7-25.3c6.3-10.3,10.7-21.6,15.2-32.8
	c5.4-14.2,10.5-28.5,14.7-43c-2.7,10.6-6,21-9.6,31.3c-2.1,7-4.6,13.8-7.4,20.5c-6.3,18.7-17.8,35-28.7,51.3
	c-2.2,2.8-1.3,6.5-1.5,9.8c-0.1,10.7,0.5,21.5-1,32.1c-0.8,7.1,1.2,14,1.9,21c0.9,9,2,18,2.3,27c0.6,1.7,0.9,3.4,0.9,5.2
	c1,3.2,2.2,6.4,4.1,9.2c0.7,0,1.5,0.1,2.2,0.1c3.6-7.5,9-14,14.2-20.4c1.7-2.6,3.4-5.3,4.9-8c0.2-0.5,0.7-1.6,1-2.1
	c2.7-5.6,5.6-11.2,8-17c2.3-4.9,4.4-9.8,6-14.9c0.4-1,0.7-2,1-3c0.2-1.4,0.5-2.7,1-4.1c2.2-9.3,4.8-18.6,7.1-28
	c1.5-11.6,2.8-23.2,2.4-34.9c-0.4,0.3-1.2,0.9-1.6,1.1l0.8-2.6c0.4,0.7,0.8,1.4,1.2,2.1c1.2-10.3-0.5-20.6,0.8-30.9
	c-0.1-6.3,0.4-12.6-0.3-18.8c0.2,0,0.6,0.1,0.8,0.2c-0.3,7.5-0.6,15.1,0.3,22.5c-0.2,1-0.6,1.9-1,2.8c0.2,17.2-0.2,34.4-1.5,51.6
	c-0.5,4.2-1,8.5-2.1,12.6c-1.2,8.9-5.1,17.4-4.7,26.5c9.9-7.9,18-17.8,27.9-25.7c-4.5,5.7-10.2,10.1-15,15.5
	c-4.8,4.9-9.6,9.9-14,15.1c-6.4,10.7-10.5,22.6-16.2,33.7c-3.6,8.8-11,15.1-16,23.1c-4.8,8.9-3,19.3-2.2,28.8
	c1.3,9.3,0.8,18.7,1.5,28c0.5,5.6,0.2,11.3,1.9,16.6c-0.9,6.4,1.9,12.8,4.4,18.5c0.8,1.1,1.6,2.2,2.3,3.4c2.8,0.1,5.2-1.5,7.2-3.3
	c6-6,9.9-13.6,14-20.9c-0.2-0.2-0.6-0.6-0.8-0.8c3.2-1.4,3.8-5.5,5.8-8.1c-0.2-0.3-0.6-0.8-0.8-1c0.4,0,1.2,0.1,1.6,0.2
	c3.7-8.3,9.1-15.8,12.4-24.3c2.5-6.2,0.1-12.8-0.5-19.2c-2.2-15,3.1-29.8,10.5-42.6c5.1-9.2,10.6-18.2,13.9-28.3
	c4.1-13,3.3-26.7,3.6-40.1c0.9-8.6,0.1-17.4,1.4-25.9c0.5-9.7,0.3-19.4,0-29.2c-2-21-3.2-42.1-4.8-63.2c-1.1-0.4-2.2-0.8-3.3-1.2
	c-1.7-1.9-3.5-4-3.6-6.7c-0.7-4.6,3.8-9.1,8.4-8.3c4.7,0.5,7.7,6.1,5.9,10.4c-0.6,2.9-3.4,4.6-6.2,5c0.9,23.3,4.4,46.5,5.5,69.8
	c0.3,2.4,0.4,4.8,0.6,7.2l1.2-0.9c7.5-15.1,14.8-30.3,24-44.4c1.3-1.7,1.7-3.8,2.1-5.8c1.9-11.4,4.4-22.7,7.3-33.9
	c1.3-6.2,3.2-12.4,3.4-18.9c-0.2,6.7-1.9,13.3-3,19.9c-0.2,1.2,1.3,2.3,0.8,3.4c-3.5,2.7-3.5,7.5-4.5,11.4c-1.7,7.3-2.3,14.8-4,22.1
	c-4.8,8.8-10.2,17.3-14.6,26.3c-3.8,7-7,14.4-10.6,21.5c-1.9,4.1-1.2,8.7-1.9,13.1c-0.4,12.7-0.7,25.4-0.4,38.1
	c0.2,13.1-0.3,26.7-5.5,38.9c-4.4,12.6-12.8,23.4-17,36.1c-2.4,7.7-4,15.9-3.1,24c0.9,1.5,1.9,3,3.2,4.3c4.1,1.4,8.4-0.4,12.1-2
	c13-7.9,26.5-16.3,35.1-29.2c2.7-4.1,6.3-7.5,8.2-12.1c0.6-5.1-2.1-10-2-15.2c0.8,3.2,1.9,6.4,2.2,9.7l1.1-0.2l0,1.6
	c2.3-0.2,3.4-2.1,4.6-3.8c0.5-6-0.2-12.2,0.9-18.1c0.2-6,0.2-12,0.4-18.1c1.3-12.6,0.5-25.4,2.4-38c2-10.2,5.7-20,7.8-30.2
	c0.4-2.2,0.2-4.6-1.3-6.4c-2.5-4.5-5.3-8.8-7.4-13.5c3.1,4.9,5.7,10.1,8.8,15c1.1,1.5,0.6,3.5,0.5,5.2c-2.5,10.3-5.7,20.4-7.7,30.8
	c-0.2,6.7-1.2,13.4-1.1,20.1c0,17.3-2.2,34.7,0.1,52c6-4.7,11.5-10.1,16-16.3c2.8-4,4.9-8.3,7.5-12.4c1-2,2-4,3-6.1
	c0.2-1.7,0.4-3.4,1-5c0.7-9.7,1.5-19.5,2.9-29.1c0.4-4.7,0.4-9.4,1-14.1c0.4-7.7-0.1-15.3,0.4-23c0.4,9.2,0.3,18.4,0.1,27.6
	c7.3-12,14.5-24.2,22.1-36.1c3.2-4.8,6.4-9.5,9.3-14.5c3.9-5,6.1-11,9.8-16.1c-11.5,21.5-25.7,41.3-37.1,62.9
	c-0.6,1.4-1.2,2.7-1.9,4.1c-2.3,8.1-1.9,16.6-3,24.9c-0.4,5.3-0.7,10.6-0.3,15.9c2.7-1.2,5.2-2.9,7.6-4.5
	c7.5-5.8,16.2-10.3,21.9-18.1c6.6-7.1,13.1-14.5,20.1-21.3c-4,5.3-9.1,9.8-13.3,14.9c-4.9,4.9-8.8,10.6-13.8,15.3
	c-7,5.2-14,10.6-20.9,16.1c-5.9,4.7-9.4,11.6-13,18.1c-3,5.7-7.8,10.1-12.2,14.6c-6.8,6.4-12.4,13.8-17.3,21.7
	c-1.1,1.8-1.9,3.9-2.3,6c3.3-0.3,5.9-2.5,8.6-4.2c8.8-5.5,17.2-11.8,25.9-17.5c7.7-4.8,15.5-9.2,23.5-13.5
	c8.4-4.4,17.6-7.8,24.5-14.6c11.4-11,20.7-23.9,30.8-36.1c6.1-7.9,12.8-15.3,19.1-23.1c0.3,0,0.9,0,1.2,0c1-4.9,4.7-8.9,7.9-12.6
	c-3,4.1-6.8,8.1-7.7,13.3c4.8-3.2,9.6-6.5,14.5-9.4c4.1-2.5,7.7-5.8,12.1-7.9c-8.7,6.3-17.8,11.8-26.6,18c-1.5,0.9-2.6,2.2-3.7,3.5
	c-13.6,15.6-25.2,32.7-38.8,48.3c-2.2,2.8-5.3,4.9-6.6,8.2l0.6,0.4c10.3-2.3,19-8.6,28.3-13.3c6.8-3.9,13.6-7.8,20.1-12.2
	c0.2-0.3,0.6-0.9,0.8-1.1c1.7-0.9,3.6-1.6,5-3.1c0.7-2.1,2-4.6,0.3-6.5l1.2,0.6c-0.3-8.6,2.2-17.3,0.2-25.8c0.2-0.2,0.8-0.6,1-0.8
	c0.4,9.6-1.1,19.1-1,28.7c-0.1,1.9-0.7,3.7-1.3,5.4c-2.3,1.4-1.7,4.4-1.8,6.6c0.3,8.9,0.2,17.8,0,26.7c-0.1-9.6,0-19.2-0.2-28.8
	c0-1.1-0.1-3.8-1.9-2.8c-4.9,3.2-9.7,6.6-14.8,9.5c-12.2,7.3-24.3,15.2-37.7,20.3c-29.2,12.4-55.9,29.9-81.4,48.6
	c-11.5,8.1-23.4,15.9-34.5,24.5c-7.4,5.6-13.9,12.4-19.1,20c-4.7,7.1-9.6,14.2-13.3,21.9c-5.4,11.1-10.9,22.3-14.3,34.2
	c-1.6,4.9-1.9,10-1.5,15.1c1.2,3.6,3.8,6.3,7.2,8.1c12.7,0.8,25.4-1.3,38.1-1.6c4.6,0,8.8-2.1,13.1-3.5c10.7-4.9,22.2-8.9,30.6-17.4
	c10.7-11.6,20.6-24,30.2-36.6c-3.6,5.9-8.4,11.1-12.4,16.7c-5.7,7.9-12.5,14.9-18.4,22.7c7.2-0.7,14.2-2.8,20.8-5.7
	c4.4-1.9,9.3-3.8,12.2-7.8c9.7-12.9,19.9-25.5,29-38.8c5.7-9.4,10.3-19.5,16-28.9c5.3-10.2,11.7-19.8,17.1-29.9
	c2.4-3.8,0.4-8.2,0-12.3c0.8,2.9,1.5,5.8,2.2,8.7c4.4-3.5,9.4-5.9,13.8-9.4c13.4-10.5,26.3-21.7,38.3-33.8
	c8.5-7.9,15.4-17.3,23.5-25.6c-11.1,13.8-23.3,26.8-36.2,39.1c-11.3,10-22.2,20.8-35.2,28.8c-4.2,2.6-5.9,7.5-8.5,11.4
	c-6,10.4-11.9,20.9-17.9,31.3c-3.4,6.2-7.1,12.4-9.1,19.3c4.7-3.1,9.9-5.1,14.8-7.9c8-4.6,16.4-8.5,25.1-11.7c4-1.7,8-3.5,12-5
	c1-0.4,2-0.7,3-1c1.9-0.7,3.8-1.7,5.9-1.7c4.7,0.2,8.7-2.7,13-4.4c8.3-3.5,16.4-7.5,24.3-11.8c5.9-3.8,11.9-7.3,17.6-11.4
	c1.3-0.8,1.9-2.3,2.7-3.5c6-9.3,11-19.1,15.3-29.2c-3.8,10.2-9.2,19.8-14.7,29.2c-0.5,0.9-0.8,1.9-0.8,3c-8.6,5.9-17,12.1-26.4,16.7
	c-8.7,4.7-17.8,8.4-26.7,12.8c0.5,7.1,0.3,14.2,0.6,21.2c3.2-0.7,6.2-1.9,9.3-2.9c12.5-3.4,25.2-5.4,37.9-8c2.6-0.9,5.4-1.4,8.1-2
	c4-1.2,8-2.5,12-3.9c5.8-2.8,12.1-4.8,17.5-8.6c8.3-6,16-12.9,24.6-18.5c4.8-3,9.4-6.6,14.6-8.9c-11.4,6.9-22.3,14.5-32.5,23.1
	c-2.3,1.9-4.9,3.3-6.5,5.8c1.9,0.1,3.8,0.2,5.7,0.3l0.1-0.8c2.9-0.1,5.7-0.2,8.6-0.4c4.5-1.4,9.2-0.4,13.8-1.3
	c3.6-0.7,7.3-1.5,11-1.6c-3.7,0.6-7.5,1-11.1,2.3c1.4,0.8,2.8,1.6,4.2,2.3c-4.8-2.4-10.1-1.4-15.2-1.2c-4.2,1.3-8.7,1.1-13,2.2
	c-10.1,1.7-18.8,7.6-28.7,10.3c-17.1,5.7-35.4,6.2-52.3,12.6c-9.3,3.2-18.4,7.2-27,11.9c-6.1,3.8-12.8,6.9-18.2,11.8
	c-3.6,2.7-6.8,5.8-10.2,8.6c-8,7-16,14.1-24.6,20.5c-9.1,7.6-17.3,16.1-26,24.1c-4.7,4.4-10.2,7.9-15.9,10.8
	c-1.4,0.8-3.2,1.1-3.9,2.7c3,0.1,6,0,8.9,0.9c8.4,0.3,16.7,1.8,25.1,2.1c10.2-0.1,19.5-5,27.4-10.9c6.3-4.2,11.8-9.5,17.9-14.1
	c4.7-3.6,9.2-7.5,13.8-11.3c8-6.2,16.4-11.7,25-17c2.2-1.3,4.5-2.7,6.9-3.6c14.1-1.1,28.1,1.9,42.2,2.8c1-0.4,2-0.8,3-1.1
	c10.2-4.3,20.2-9,30.4-13.4c3.1-0.9,4.1-4.1,5.3-6.7c-0.7,2.1-1.6,4.2-2.7,6.1c0.7,0.1,2.2,0.3,2.9,0.4c-1.7,0-3.5-0.6-5.1,0.4
	c-4.3,2.1-8.8,3.9-13.1,5.8c-0.1,0.5-0.3,1.4-0.4,1.8c-0.2-0.3-0.6-0.8-0.8-1c-3.8,1.6-7.6,3.3-11.3,5.2c-0.2,0.5-0.7,1.4-0.9,1.8
	c-0.2-0.2-0.6-0.7-0.8-0.9c-4.3,3-9.5,3.6-14.5,2.4c-11.6-1-23.5-2.6-35.1-1.1c-16,8.4-30.6,19.5-43.9,31.8
	c4.1-1.5,8.5-1.2,12.9-1.3c4.1,0,8.2-0.9,12.3-0.5c1.4-2.3,3.3-4.3,5.6-5.8c2,0,4,0,6.1,0.1c2.3,1.6,4.4,3.9,4.5,6.9
	c0.5,4.1-3.1,8.6-7.5,7.8c-4.7,0.4-8.6-4.1-8.5-8.7c-6.9,0.7-13.8,1.4-20.8,1.4c-3.1,1.2-6.5,1.7-9,4.1c-6,5.5-12.7,10.2-19.7,14.3
	c-5.1,2.8-10.2,6.1-16.2,6.9c-9.3,1.5-18.5-1.3-27.8-1.3c-4-0.3-8.1,0.2-11.9-0.8c-15.7-0.9-31.9,1.8-47.3-2.6
	c-8.2-2.3-16-7.8-24.9-6.5c-4.7,1.4-8.8,4.6-11.6,8.5c-2.5,3.4-2.7,9,0.9,11.8c5.9,3,12.9,3.6,18.6,7.2c5.4,3.6,9.8,8.8,15.6,11.7
	c-0.5,0.6-1,1.3-1.4,1.9c-2.2-1.7-4.4-3.3-6.5-5c-2.6-1.4-4.9-3.4-7.3-5c2.2,3.2,6.3,4.3,8.8,7.2c2.6,0.5,3.9,4.1,6.8,3.2
	c-1.2,1.6,1,2.3,1.8,3.2c1.3,1.1,2.8,1.9,4.5,2.4c-2.2-1.5-4.5-2.8-6.3-4.6c0.4-0.6,0.7-1.2,1.1-1.8c9.2,9.4,22.3,13.1,34.6,16.4
	c4.1,1.3,8.3,2.3,12.5,3.4c7.9,0.9,15.7-0.6,23.2-2.9c3.3-1.5,6.6-3,10-4.5c-1.1-0.5-2.2-1-3.3-1.6c2.3,0.3,4.8,0.8,7.1-0.3
	c6.3-2.5,12-6.2,18.2-8.8c7-3.1,13.2-7.7,20.1-10.9c11.5-5.9,23.5-10.7,35.9-14.1c1-0.3,2-0.7,3-1c1.1-0.3,2.2-0.6,3.3-0.8
	c0.8-2.2,1.9-4.5,4.1-5.7c2.4-1.7,5.5-1.1,8.2-1.2l-0.2,1.1c5.9,1.2,5.7,11,0.6,13.4c-5.1,3-11.4-0.5-13-5.9
	c-19.7,6.2-39.8,13.1-56,26.2c0,0.3,0,1,0,1.4c4.5,1.9,9.1,3.7,13.6,5.6c5.7,2.1,11.3,4.2,17.1,6c11.6,1.7,21.9-4.9,32.2-9
	c2.6-1.2,5.2-2.2,8-3.1c2.3-0.8,4.6-1.5,6.9-2.1c12.7-3.7,26.1-3.9,39-6.9c12.1-3.7,24.2-7.4,36-12c2-0.7,4-1.3,6.1-1.9
	c2-0.9,4-1.8,6.3-2.1c0.8-3.7,1.4-7.7,4.3-10.4c3.2-3.1,8.2-2.8,12.3-2.2c3.4,1.9,6.5,5.4,6.6,9.5c0.4,5-3.1,10.1-7.9,11.6
	c-3.1,0.4-6.6,0.7-9.3-1.2c-1.9-1.3-3.4-3.1-4.9-4.8c-9.3,1.3-17.9,5.4-26.8,8.2c-4.6,1.5-9.2,3-13.8,4.5c-3.7,1-7.4,2.3-11.2,3
	c-2.6,0.5-5.4,0.7-7.6,2.2c-3.5-0.1-7-0.1-10.4,0.7c-10.1,2-20.5,3.6-30,7.9c-8.7,3.6-16.9,8.6-26.1,11c-5.2,1.3-10.8,0.8-15.8-1
	c-2-0.6-4-1.3-6-2.1c-3.6-1.4-7.3-2.7-11-3.9c-1.4-0.3-2.7-0.6-4-1c-5.7-1.5-11.6-1.4-17.3-0.1c-6.6,2.1-12.6,5.6-19.1,8.1
	c-9,3.8-18.7,5.8-28.4,5.8c0.2,1-0.1,2.3,0.6,3.2c2.9,4,5.8,8.1,9.6,11.4c5.2,5.1,12,7.8,18.5,10.7c2,0.6,3.9,1.3,5.8,2.1
	c13.7,3.5,27.8,0.5,41-3.3c11.3-3.1,22.8-5.5,34.1-8.8c1.4-0.3,2.7-0.7,4.1-1c1.3-0.4,2.6-0.7,3.9-1c1-0.4,2-0.7,3-1
	c1.6-0.7,3.3-1.4,5-2c3-1.4,6-2.9,9.1-4c6.4-2.4,13-4.6,18.9-8.2c2.9-1.8,5.9-3.4,9-4.8c-3.8,2.2-7.9,4-11.2,6.9
	c1.4,0.3,2.8,0.7,4.2,1c2.7,0.4,5.5,1,8.1,2c1.3,0.3,2.7,0.5,4,1.1c2.7,0.4,5.4,0,8,1c3.2,0.4,6.5-0.5,9.5,0.8
	c-5.1,0.3-10.3,0-15.4,0.1c1.3,1.7,2.1,3.8,2.8,5.8c-1.6-2.1-2.6-4.6-4.5-6.4c-3.9-1.5-8.3-1.4-12.2-2.7c-1.7-0.1-3.5-0.1-5.2,0
	c-9.5,2.4-18.6,6.4-27.5,10.7c-0.1,0.3-0.2,1-0.3,1.4c5.1,5.6,10.8,10.5,16.3,15.6c6.2,5.7,12.7,12,21.5,12.9
	c7.4,0.3,14.7,1.1,22.1,0.9c8.3-0.1,17,1,24.9-2.1c5.2-2,10.6-3.2,15.9-4.9c-6.8,2.5-14,4-20.5,7.1c-9.4,0.6-18.9,0.5-28.3,0.5
	c-7.4-0.4-15.2,0.4-22-3c-4.8-2.2-8.6-5.9-12.5-9.3c-5.9-5.5-11.6-11.2-17.8-16.4c-0.9-0.5-1.8-0.9-2.7-1.4
	c-21.2,4.2-41.7,10.8-62.7,15.9l0.5,1.3l-1.4-0.5l-0.2,1c-7.7-1.4-15.9,1.2-23.3-2c-7.5-3.4-15.3-6.5-21.7-11.8
	c-4.6-3.7-8.1-8.6-11.9-13c-3.9-3.5-7.7-7.3-12.7-9.3c-5.6-2.4-11.5-3.5-17-6c-6.5-2.9-12.9-6.2-18.5-10.6
	c-5.2-4.1-10.6-8.2-16.2-11.8c-4.2-2.6-8.9-5-13.9-4.8c-6.1,0.5-11.2,6.6-10.5,12.7c0.7,7,4.6,13.2,7.9,19.2
	c4.9,7.6,10.4,15,17.1,21.2c6.1,5.2,13.1,9.2,20.2,12.8c8.2,3.8,16.9,6.6,25.9,8.2c10.2,1.9,20.5,3.1,30.3,6.5
	c5,1.8,10,3.8,14.8,6.2c6.3,2.9,12.6,5.6,19.1,8c10.8,3.3,22.2,7.6,33.5,4.3c1.6-5.4,3.2-11.5,8.4-14.6c3.1-2.5,7.3-2.8,11.1-2.9
	c8,0.3,14.6,7.7,15,15.5c10.4,0.3,20.8-0.1,31.1,0c1.6,0.1,3.4-0.1,4.9,0.8c13,8.4,24.5,19.1,37.6,27.4c0.4,0.6,1.1,1.8,1.5,2.4
	c2.2-7.3,14.6-9.2,17.4-1.6c1.6,3.2,2.5,7.8-0.4,10.6c-3.5,4.7-11.6,4.7-15.1,0.1c-2.1-2.5-2.6-6-2.6-9.2c-2.3-2.2-5.1-3.9-7.8-5.7
	c-10.1-7.2-19.4-15.4-29.8-22.1c-4.3-1.9-9.1-1.5-13.7-1.6c-7.7-0.1-15.5,0.2-23.2,0.1c-0.3,9.4-9.8,16.9-18.9,16
	c-5-0.4-9.1-3.4-13.9-4.7c-7.8-2.2-15.1-5.5-23-7.4c-21.7-5-42.1-14.3-64-18.2c-12.3-2-24.8-4.1-36.4-8.9c-5-1.8-9.8-4.4-15.2-5
	c0.4,3.9,2.4,7.4,4.4,10.7c4.9,7.9,10.5,15.4,17.2,21.8c3,2.7,6.8,5.1,10.9,4.4c4-0.6,7.5-2.8,11.2-4.3c1-0.4,2-0.7,3-1.1
	c1.9-0.5,3.9-0.8,5.9-1c7.6,0.7,14.9,3.1,21.9,6.1c3.7,1.6,7.1,3.8,10.7,5.5c8.6,4.8,16.2,11,24.6,16.2c7,3.9,14.5,6.8,22.3,8.9
	c6.2,1.7,12.4,3.8,18.9,3.8c1.7-2.1,4.3-3.1,6.1-5c3.4-3.2,6.7-6.6,10.4-9.5c3.5-2.8,6.3-6.4,9.9-9.1c-3.7,3.3-6.9,7-10.8,10.1
	c-5,4.3-9.3,9.4-14.9,13c0.2,0.5,0.5,1.5,0.7,2.1c16.8,4.3,34,5.9,51,9.1c2.5,0.4,5.1,0.6,7.7,0.1c-0.4,2.7,3.4,2.1,3.7,4.6
	c-2.4-1-4.6-2.1-7-3.2c-14.9-1.9-29.8-4.7-44.8-6.4c2.5,3.7,6.4,5.9,9.5,9l-0.2,0.2c-0.8-1.1-2-1-3.2-0.9l1.3-1
	c-2.7-2.1-5.8-4.1-7.5-7.1c-4-1.3-8.2-2.2-12.2-3.5c-8.1-1.4-16.1-3.4-23.9-6c-7.2-2.4-14.4-5.1-20.8-9.1
	c-12.1-7.8-23.8-16.6-37.5-21.6c-5.9-2.2-12.3-4.5-18.6-2.9c-4.9,1.5-9.6,4.3-12.5,8.6c-1.6,2.8,0.9,5.6,2.8,7.5
	c8.5,7.7,18.2,13.9,27.3,20.8c8.7,7.3,18,13.7,28,19c1.4,0.6,2.7,1.3,4.1,1.9c4.5,2,9.3,3.4,14,5c2.7,0.6,5.4,1.2,8.1,1.9
	c1.7,0.2,3.3,0.6,4.9,1c8.7,1.2,17.7,2,26,5c2.6,0.5,3.7,3,4.9,5.1c1.8,3.1,4.1,5.9,6.7,8.4c4.5,2.7,9,5.4,13.4,8.4
	c-4.2-1.6-7.9-6.6-12.8-5.2c1.2,2.7,2.5,5.3,4.1,7.8c4.1,6.2,7.4,13.2,12.8,18.4c8.3,7.3,15.9,15.3,23.7,23.1
	c-8.3-7.2-15.5-15.8-24.2-22.6c-4-3.1-6.5-7.7-9.3-11.8c-4.2-6.5-8-13.2-12.1-19.8c-3.1-4.3-6.5-8.8-11.9-10.3
	c-9.2-2.8-18.9-3.2-28.3-5.5c-1.4-0.3-2.7-0.7-4-1c-5.3-1.6-10.8-2.8-15.9-5.2c-13.5-4.8-24-14.9-36.2-22c-2.5-1.8-1.3,1.3-1.4,2.3
	c6.1,10.6,12.2,21.3,18.1,32.1c4.7,7.1,7.9,16.2,16.1,20c11.4,5.1,22.9,10.1,34.2,15.3c0.5-0.1,1.4-0.2,1.8-0.3
	c-0.4,0.4-1.2,1.2-1.7,1.6c1,3.9,3.2,7.4,4.5,11.2c-2.1-3.3-3.4-7-5.2-10.4c-1.6-1.9-4.1-2.8-6.3-3.8c-8.1-3.6-16.2-7-24.4-10.4
	c-2-1-4.3-1.2-6.6-1.1c0.7,12.5,4.3,24.6,6,37c1.9,5.4,1.6,11.3,3.9,16.5c2.2,11.6,1.3,23.5,1.4,35.3c-0.8-11,1.5-22.5-2-33.1
	c0.1-5.1-1.7-10-3-14.8c0.5-4.2-2.4-7.9-2-12c-1.5-9.1-3.2-18.3-5.2-27.3c-11.6-19.2-22.5-38.8-34.2-57.9c-2.1-3.8-4.5-7.5-7.9-10.2
	c-7.4-6-15.5-11-22.4-17.5c-5.4-5-9.5-11.2-14.3-16.7c-6.4-8.7-12.7-17.5-18.4-26.8c-4.4-7.4-10.5-13.5-16.2-19.8
	c-4.6-5.4-8.9-11.1-14.1-15.9c-3.5-3.4-7.5-7.6-12.8-7.6c-5,0.6-8.3,5.3-9.2,9.9c7.4,0.1,14.8-0.1,22.2,0.2
	c-7.5,0.2-15.1-0.3-22.6,0.3c-1.1,10.7-2.4,21.5-4.6,32c-1.9,9.5-3.8,19.2-7.7,28.1c-1.8,4.2-3.9,8.4-3.6,13
	c1.7,2.7,3.3,5.4,5.5,7.7c0.3,0.2,1,0.7,1.3,0.9l0.1,0.6c7.5,6.1,14.8,13,19.2,21.9c2.3,3.7,4.2,7.7,6.9,11.2
	c1.8,1.7,4.2,2.5,6.3,3.7c1,0.3,2,0.7,3,1c6.5,2,13.3,3.2,20,4.4c0.9-3.7,4.5-5.9,8-6.8c5.8-1.5,12.1,3.7,12,9.7
	c5.7,0,11.4,0.2,17-0.3c-5.6,1.1-11.3,0.2-17,0.5c-0.1,2.3-0.9,4.6-2.3,6.5c7,7.8,13.9,15.7,21.6,22.8c3.6,3.7,7.3,7.3,11.5,10.3
	c12.5,5.2,25.5,9.3,38.3,13.6c-11.2-3.3-22.2-7.1-33.1-11c-2.3-0.9-5.1-0.8-7-2.6c-7-6-13.3-12.7-20-19.1
	c-4.3-4.1-7.4-9.5-12.7-12.5c-4.1,1.5-9.2,1.8-12.5-1.5c-2.4-1.9-3.6-4.9-4.3-7.8c-4.2-0.6-8.4-1.2-12.4-2.4
	c-5.8-1.2-11.5-2.8-17.1-4.9c-3.5-3.8-5.2-8.8-7.9-13.2c-2.3-3.6-4.6-7.3-7.4-10.6c-5-5.7-11.2-10.1-16.2-15.9
	c-1.3-1.5-3.1-2.6-3.7-4.6c-4.7,10-11.4,19-14.6,29.7c-2.4,7.2-3.5,15.1-1.4,22.5c3.1,8.2,10.1,14,16.9,19.1
	c-0.6-6.4-0.1-12.8-0.2-19.2c-0.2-16-0.5-31.9-0.1-47.9c0.1-0.3,0.4-1.1,0.6-1.4c1,14.7,0.3,29.5,0.6,44.3
	c-0.1,8.1,0.3,16.2-0.4,24.2c12.5,9.3,27.5,14.9,38.8,25.8c4.1,4.3,6.6,10.6,12.5,12.9c2.6,1.1,5.1,2.3,7.5,3.8
	c-3.2-1.5-6.4-3.1-9.7-4.3c0.3,2.5,1,4.9,1.9,7.3c2.6,6.5,5.8,12.8,8.8,19.2c-4.2-6.4-6.9-13.6-10-20.6c-0.3-1.1-0.7-2.2-1-3.3
	c-0.5-1.2-1-2.3-1.5-3.4c-3.4-4-6.1-8.5-9.9-12.1c-3.9-3.2-8-6.2-12.3-8.8c-2.3-1.3-4.6-2.7-6.9-4.1c-3-1.6-6-3.3-9-4.8
	c1.9,5.6,4.1,11.2,6.1,16.8c1.2,3.7,2,7.5,3.9,10.9c3,0.9,7.3,2.5,6.7,6.4c0.4,4.8-5.9,7.8-9.4,4.6c-3.6-3.1-1.5-8.9,2.4-10.7
	c-3.6-8.8-6-18.1-9.8-26.8c-2.4-2.4-5.6-3.8-8.6-5.2c-0.2,15.4,0.2,30.8,0.2,46.2c0,36,0,71.9,0.1,107.9c-0.3,0-0.8-0.1-1.1-0.1
	c-0.3-51.6,0-103.2-0.2-154.8c-4.8-3.2-9-7.1-13-11.2c2,14.2-1.7,28.6-8.5,41c-1.5,3.4-3.2,6.8-5,10.1c-1.8,4.4-4.8,8.4-6.1,13
	c-0.1,34.1,0.3,68.2-0.1,102.2c1.2,2.7,2.1,5.5,2.1,8.5c-1.3-1.5-2.2-4-4.6-2.7c0.4-1.9-0.1-4.7,2.6-4.8c-2-2.6-1-6-1.2-9
	c0.1-31,0.2-62,0.1-93.1c0-3.3,1.9-6.1,3.4-8.9c2.5-5.7,5.4-11.3,8.1-16.9c1-2.4,2-4.7,3.1-7.1c4-9.9,5.2-20.8,4-31.4
	c-0.8-2.1-1.9-4-3-5.9c-3.4-5.2-5.2-11.6-4.5-17.8c1-10.2,5.2-19.7,9.4-28.9c1.6-3.7,3.5-7.3,5.1-11.1c0.8-1.8,1.7-3.6,2.6-5.3
	c1.3-2.4,2.4-5,3.5-7.5c2.5-12.9,1.9-26.1,2.1-39.2c-0.2-5.7,0.6-11.5-1.1-17.1c-3.2-3.5-7.2-6.7-12.2-6.6
	c-5.9-0.2-10.5,4.4-13.4,9.2c-5,8.4-8.9,17.5-14.5,25.5c-6.4,9.2-13.4,18.1-19.3,27.7c-6.9,11.7-13.2,23.7-22,34.1
	c-5,6.3-10.6,12.1-15.8,18.1c-9.9,10.2-20.5,20.1-27.2,32.9c-5.6,10.6-7.1,22.5-8.2,34.2c-0.1,1.3-0.3,2.6-0.9,3.8
	c-0.7,3.7,0.3,7.5-0.2,11.3c-0.2-2.6-0.2-5.2-0.2-7.8l-1.2,0c-0.8,3.6-1.8,7.7-5.3,9.5c-5.9,5.3-13.6,9.2-17.2,16.6
	c-0.5,0.9-1,1.8-1.5,2.6c0.9-2.8,3.1-5,3.3-8.1c-5.5,3.6-11.4,6.6-17.1,9.9c3.3-2.3,6.9-4.2,10.5-6.1c3.1-1.7,5.7-4.1,9-5.4l0-0.6
	c5.6-5.1,12.8-9.3,15.6-16.7c2.4-5.7,2.9-12,4.1-18c0.1-2.4,0.3-4.7,0.9-7c1.9-13.4,8.7-25.6,17-36.1c15.5-17.2,32.9-33.1,44.4-53.5
	c2.2-4.2,4.8-8.3,5.2-13.1c-4.8,0.3-9.2,2.1-13.6,3.7c-9,3.6-18,7.2-26.8,11.2c-0.2,0.5-0.8,1.6-1,2.2c0.4,3.2,0.4,6.4,0.2,9.6
	c-0.3-3.6,0.5-7.6-1.2-11c-5,2.8-10.7,5.3-13.6,10.6c-4.4,8.7-9.7,17.6-18.1,23c-10.7,7.2-24.1,8.4-35.2,14.8
	c-10.4,6.2-14,18.9-15.3,30.1c4.2,3.5,8.2,8.6,7.4,14.4c-0.3,4.2-3.4,7.6-6.8,9.8c-3.1,1.4-6.6,2.1-9.8,0.8c-8-2.4-11.5-13.5-6.3-20
	c2.4-3.5,6.7-4.6,10.6-5.2c0.2-3.6,1.8-6.9,2.9-10.3c0.3-1,0.6-2.1,1-3.1c1.3-5,5.5-9.1,5.3-14.3c-3.3-1.7-7-1.4-10.6-0.8
	c-12.2,2.4-24.2,6-35.3,11.8c-3.2,1.8-6.8,3-9.5,5.6c-4.5,1.3-7.9,4.8-12.3,6.5c-5.8,3.7-12.3,6.3-18.3,9.7c-1.6,2.1-1.1,5-1.9,7.5
	c-1.3,4.7-1.7,9.6-3.7,14c-0.3,1.1-1.4,1.8-2.5,1.8c0.6-0.7,1.2-1.3,1.8-1.9c0.6-2.2,1.5-4.4,2.4-6.4c1.5-4.9,2.3-10.1,3.1-15.1
	c-27.4,7.9-55.6,12.4-83.6,17.5c19.3-3.9,38.7-7.2,57.9-11.5c9-2.7,18.6-4,27.2-7.9c2.2-1.2,4.4-2.4,6.5-3.6
	c9-4.8,17.7-10.2,26.4-15.5c2.6-1.5,5.2-2.9,8-4.1c7-3.5,14.3-6.2,21.8-8.4c2.1-0.5,4.1-1.1,6.2-1.6c2.6-0.9,5.2-1.6,7.9-2.1
	c9.5-2.5,19.4-3.5,28.9-6c6.1-1.7,12.3-3.5,18.2-5.9c6.6-2.9,12.3-7.7,16.2-13.7c3-4.2,4.9-9,7.9-13.2c2.8-4,6.9-6.6,10.9-9
	c1.3-0.7,2.5-1.3,3.8-2c14.5-8.4,30.7-13.7,43.8-24.4c4.7-3.9,8-9.2,10.3-14.8c4.2-9.4,8.3-19.5,7.1-30.1c-1.8-4.7-6.2-8.4-11.4-8.1
	c-5.9,0.8-11.2,3.8-16.2,6.9c-7.3,4.8-14.9,9.1-22.4,13.5c-2.9,1.7-6.5,3-7.9,6.3c-1.5,3.5-1.6,7.3-2.4,11
	c-1.9,10.4-5.5,20.5-10.6,29.8c-6.3,9.5-15.3,17-24.5,23.5c-1.3,0.7-2.6,1.4-3.9,2.1c-1,0.4-2,0.7-3.1,1c-1.3,0.3-2.6,0.6-3.9,1
	c-1.7,0.4-3.4,0.7-5,1c-4.6,1-9.3,1.4-14,2.1c-8.5,1-16.8,3.2-25,5.3c-12,2.6-23.9,5.3-36,7.6c-2.3,1.1-5.6-0.2-7.1,2
	c-0.4,10-0.1,20.1-0.2,30.2c-0.4-10.3-0.2-20.5-0.1-30.8c-4.2,0.9-8.4,1.7-12.6,2.5c-8.5,2-16.6,5.3-24.3,9.5
	c-1.2,0.6-2.2,1.6-3.2,2.5l0.4-1.9c-10.6,3.6-21.5,7.7-32.9,7.7c-1.1,0.1-2-0.2-2.9-0.9c-12.3-3.3-24.8-6.3-37.1-9.5
	c12.1,2.3,23.9,6.1,36.1,8.3c9.5,2.1,18.9-2.1,27.9-4.5c1.7-0.6,3.5-1.3,5.2-1.9c8.3-3.3,16.2-7.8,24.9-10.1c6-2,12.3-2.5,18.4-3.9
	c-0.2-7.8-0.1-15.5,0-23.3c-0.6-0.3-1.7-0.8-2.2-1c-8.4-3.1-16.5-7-25.1-9.2c-6.5,0.3-10.8,6.1-15.9,9.4c4-4.4,9.4-7.1,13.8-10.9
	c-3.9-3.4-9-5.3-13.7-7.4c-2.7-1.3-5.6,0.2-8.2,1.2c-10.9,4.9-21.6,10.3-32.8,14.4c-8.2,2.9-16.8,3.8-25.4,4.3
	c-0.4,4.8-3.8,9.2-8.2,10.9c-3.6,0.6-7.6,0.8-10.6-1.5c-3.4-2.3-5.2-6.4-5.3-10.5c-12.8,2.1-24.9,7.2-37.8,9.3
	c12.7-2.4,24.8-7.3,37.6-9.5c1-1.4,0.8-3.4,1.8-4.8c3.4-5.5,11.8-7.7,17.1-3.6c2.5,2,4.5,4.7,5.3,7.8c7.5,0.3,15.1-0.4,22.3-2.4
	c10.6-3.7,20.9-8.2,30.9-13.2c3.1-1.5,6.2-3.1,9.5-4.3c2.6-1,5.1,0.7,7.4,1.5c0.5,0.2,1.6,0.7,2.1,1c1.7,1,3.6,1.7,5.4,2.5l0.1,0.7
	c0.6,0.2,1.8,0.6,2.4,0.8c2.9,1.5,6,2.7,8.9,4c6.1,2.3,12.2,4.4,18.1,7.1c1,0.3,2,0.6,3,0.9c1,0.2,2,0.6,3,1
	c6.2,1.3,12.5,2.7,19,2.2c0-1.7-0.6-3.2-1.9-4.2c-7.6-7.7-16.5-14-23.9-22c7.1,6.2,14.1,12.4,21.3,18.5c3.2,2.8,5.8,6.5,9.8,8.3
	c4,2,8.3,3,12.6,4.3c3.1,0.5,6.2,1.1,9.1,2.1c5.6,0.9,10-4.2,11.6-9.1c3.4-11.6,5.2-23.7,8.5-35.3c2.1-5.7,8.3-7.9,13.2-10.7
	c3-1.5,6-3.2,8.8-5.1c-0.4-2-2.4-1.5-3.8-1.8c-6.1-0.4-12.1,0.4-18.1,1.1c-7.9,0.4-16,0.6-23.9-0.5c-8.4-0.9-16.8-3.4-25.3-2.2
	c-5.8,2-11,5.4-16.9,7.1c-6.6,2-13,5.3-20,5.9c7.1-1.6,13.6-4.9,20.5-7.1c3.9-1.3,7.6-3.3,11.2-5.3c-0.1-0.4-0.2-1.2-0.2-1.6
	c-2-0.1-3.7-1-5.4-2.1c-12.1-1.9-24.2-4.2-36.1-7.2c-10.7-1.4-21.3,1.7-31.8,3.6c-5.1,0.9-10.2,2-15.2,3.5c2.8-1.3,5.9-1.8,8.9-2.5
	c11.5-2.2,23-4.8,34.7-5.6c-3.8-4.5-10.3-5.6-15.7-7.3c4.2,0.3,8,2.4,11.9,3.9c1.5,0.7,3.6,1.3,3.9,3.3c13.5,3.5,27.2,6.1,41.1,7.4
	c0.3,0.1,0.8,0.3,1.1,0.4c2.8,0.1,5.5,0,8.3-0.1c0.9-0.5,1.8-0.7,2.8-0.7c13.3,1.4,26.5,5,40,4.2c6.6-0.4,13.2-0.5,19.8-1.1
	c-0.1-0.5-0.2-1.4-0.2-1.8c-0.6-0.2-1.9-0.7-2.5-0.9c-14.4-5.7-30.1-5.8-44.9-9.9c-4.2-0.9-8.3-2.4-12.4-3.7
	c-8.8-9.1-20-15.4-30.4-22.6c-9.9-6.1-19.8-12.8-31.2-15.7c-3.8-0.8-7.6-1.5-11.4-1.1c-2.1,2.2-3,5.5-5.7,7.1
	c-4.4,3.1-10,0.8-14.8-0.1c-4.8-0.4-9.4-2-14.1-2.9c-2.7-0.5-5.4-1.2-8-2c-9.2-2.2-18.9-3.2-28.1-1c-10.8,2.7-18.8,11-29,15
	c-14.6,4.7-29.5,8.7-44,13.7c-3.4,1.1-6.7,2.3-10.2,3.2c15.6-5.6,31.4-10.9,47.2-15.8c7-2.1,13.3-5.7,19.1-9.8
	c1.8-1.9,5.1-2.7,5.7-5.5c-8-0.4-16.1-0.5-23.9-2.8c-13.8-3.9-26.9-10-40-15.7c13.3,5.2,26.2,11.7,40.1,15.2
	c8.5,2.1,17.4,2.2,26.1,1.9c9.8-3.4,20.6-3.9,30.7-2.2c9.1,1.5,18.2,3,27,5.2c0.5,0.1,1.6,0.2,2.1,0.3c-0.4-0.3-1.2-1-1.6-1.3
	c-0.1-3.9-0.1-8.2,2.8-11.1c2.7-3.4,7.5-3.4,11.4-2.7c3.2,2,4.7,5.6,6.1,8.9c3.4,0.1,6.9-0.2,10.3,0.7c1.7,0.2,3.3,0.5,4.9,1
	c7.1,1.8,13.3,6,19.8,9.2c9.6,5.6,18.9,11.6,27.9,18.1c6,4.1,11.4,9.4,18.4,11.7c13.7,4.8,28.4,5.1,42.4,8.7
	c9.8,3.3,20.1,6.8,30.5,5c5-0.1,9.6-2.8,14.6-2.4l-0.2-1.3c0.8,0.1,2.4,0.3,3.2,0.4l-0.4-1.4c1.6-0.3,3.2-0.6,4.8-1
	c1.3-1.8,3.7-2,5.7-1.7l-0.4-1.2c3.1-1,5.9-3.8,9.3-2.6c-0.1-0.4-0.3-1.3-0.4-1.7c12.6-7.4,24.7-16.3,33.8-27.9c2.3-3.2,4-7,3.6-11
	c0-5.1-4.5-9.3-9.4-10.2c-8.4-0.4-16.2,3.3-23.8,6.5c-14.5,6.2-29.5,11.7-45.3,13.3c-4.3,0.4-8.7,0-13,0.4c0-0.3,0.1-1,0.2-1.3
	c6.3-0.1,12.6-0.8,18.9-1.2c-6-0.3-12.1,0.3-18.1,0.8c-1.4-0.1-2.5,0.7-3.6,1.4c-11.1-1.3-22.2-3-33.4-2.9
	c-4.4-0.1-8.6-0.9-12.9-1.7c-10.2-1.8-19.8-6-28.7-11.2c-0.2,0.2-0.6,0.6-0.8,0.8c-0.2-0.4-0.6-1.3-0.9-1.7
	c-7.1-4.5-14-9.6-20.6-14.8c-5.4-3.8-10.6-9.1-17.7-9.1c0.1,0.6,0.4,1.9,0.5,2.5c-0.6,0-1.8,0.1-2.4,0.2c0.5-0.9,1.4-1.5,1.5-2.5
	c-2.2-0.7-4.6-0.6-6.9-0.8c5.5-0.1,11.4-0.3,16.3,2.8c6.8,4.2,12.9,9.5,19.7,13.9c9.4,7,19.8,12.7,31,16.1c10.5,2.8,21.4,4,32.3,4.1
	c-0.8-0.9-2.3-2.6-3-3.5c8.2,3.3,17.1,3.5,25.8,4.4c17.5,0.8,35-3.6,50.6-11.4c6.7-3.3,13.8-5.8,20-10c2.5-1.6,4.4-4.1,5.6-6.8
	c-2-6.5-9.5-7.4-15.2-8c-26.3-1.8-51.8,7-78,7.9c-14.8,0.9-29.5-5.2-40.5-14.8c-4.1,3.9-9.9,6.3-15.6,4.8c-5.2-0.8-8.5-5.1-12.4-8
	c-7.7-3.7-15.4-7.4-23.1-11.1c-7.6-3.3-16-6.5-24.4-4.9c-4.4,0.8-8.7,2.3-13.1,3.2c-8.2,2.4-16.7,3.8-25,5.8
	c-3.8,2.4-8.1,3.9-12.2,5.8c-10.2,4.8-20.2,10.1-30.8,14.2c12.1-5.4,23.9-11.4,35.9-16.9c1.9-1.1,4.5-1.7,5.2-4
	c-3.4-0.6-6.7-1.1-10-2c-5.1-0.4-10.1-1.8-15.1-2.7c-22.6-5.4-44.8-12.6-67.1-19c-1.6-0.4-3.2-0.7-4.8-1c2,0.1,4.1,0.4,6,1.1
	c27.1,7.7,54,16.5,82,20.8c6,0.8,12.1,1,18-0.5c10.4-2,20.6-5,30.9-7.5c-0.2-1.8-1.2-2.8-3-3c2.9,1.1,6,1.5,9,2
	c11.5,1.3,22.2,5.9,32.9,10.1c2.4,0.7,4.9,1.5,7.3,2.3c0.2-1.5,0.5-2.9,0.8-4.4c0.9-1.9,1.7-3.8,2.7-5.7c2.3-2.4,4.9-4.7,8.1-5.7
	c0-0.3-0.1-1-0.1-1.4c-6.5-7.2-13.4-14-21.4-19.6c-4.1-2.1-8.6-4.1-13.3-4.1c-6.3,0-12.6-0.2-18.7,1.2c-4.8,3.6-8.2,8.6-13.1,12.1
	c4-4.2,8.5-8,11.7-12.9c-7-4-12-10.5-18.1-15.6c-7.1-6.7-14.2-13.3-22.3-18.7c-4.9-3-9.9-5.9-14.9-8.8c-0.3,0.2-0.8,0.5-1,0.7
	c0-0.4-0.1-1.3-0.1-1.7c-5.6-3.3-10.5-7.5-16.1-10.8c4.4,2.1,8.1,5.2,12.1,7.7c9.1,6.4,19.7,10.4,28.3,17.5c9.4,7.5,18,16,27.2,23.8
	c2.6,1.4,5.1,3.5,8.1,3.4c6.1,0,12.2-0.7,18.2-1.5c1.1-0.7,2.3-1.4,3.6-1.8c-0.4-4.9-4.2-8.4-7-12.1c-14.7-18.1-30.6-35.1-45.3-53.2
	c-4.3,3.3-10.1,5.6-15.4,3.1c-8.6-2.8-10.2-15.3-3.9-21.1c4.8-3.4,12-3.7,16.6,0.4c4.8,3.6,5.4,10.4,4.1,15.8c0.8,1.5,1.5,3,2.5,4.4
	c12.2,14.8,24.9,29.2,37.5,43.8c9.4,9.4,15.4,21.7,26.1,29.8c6.5,5.6,13.1,11.2,18.1,18.1c0.5,0.2,1.4,0.6,1.9,0.8
	c1.7,0.1,3.4,0.3,5,0.8c5.6,1.8,9.7,7,10.7,12.8c0.4,2.7,0.6,5.4,1.2,8.1c3.3,1.3,6,3.6,9.4,4.9c3.8,1.9,7.9,3,11.9,4.3
	c7.2,1.8,14.7,3.1,22.1,2.6c9.4-0.4,18.7-2.3,28-3.9c7.2-1.5,14.6-3.1,21.1-6.7c-2.4-2.1-6.2-1.8-9-3.2c-8.6-1.5-16.8-5.2-24.2-9.8
	c-4.5-3.6-6.1-9.7-10.4-13.6c-5-5.3-12.9-5.9-18.2-10.8c-6.4-5.8-12.6-11.7-19.3-17.1c-1.9,0.7-4,0.9-6,1.1c1.9-0.5,3.8-0.9,5.6-1.3
	c-1.8-2.5-4-4.7-6.3-6.7c-5-4.1-9.6-8.5-15.1-11.9c-1.4-0.3-2.8-0.5-4.1-0.9c-1.7-0.2-3.3-0.4-4.9-1c-5.1-0.8-9.9-3.8-15.1-2.2
	c1.5-0.4,2.9-0.9,4.4-1.3c-8.9-4.3-16.1-11.2-24.3-16.6c-2.5-0.9-4.3-2.8-6-4.8c7.8,5.5,15.4,11.3,23.2,16.8
	c3.5,2.4,7.4,4.1,11.5,5.3c2.7,0.7,5.5,1,8.1,2c2.3,0.2,4.7,0.4,7,0.6c-0.7-1.6-1.3-3.2-1.9-4.8c2.5,5.9,8.2,9.1,12.8,13.2
	c8.8,6.8,16.4,15,25.1,21.9c5.6,5.1,11.9,10.7,20,10.7c-0.5-1.7-1.1-3.3-1.6-5c-1.7-3.9-3.9-7.5-5.8-11.2
	c-6.7-13.8-17.2-25.3-27.6-36.4c-2.6-3-6.2-5.2-8.1-8.7c-2.5-9.1-3.4-18.5-5.2-27.7c-1.5-0.1-2.9-0.4-4.3-1
	C293,328.7,282,322,270,317.2c-0.9-0.9-1.9-0.3-2.6,0.4c-0.1-0.4-0.3-1.3-0.5-1.7c-13.2-5.5-26.3-11.7-40-16.1
	c-7.3-2.8-14.8-4.7-22.1-7.5c-0.5,0.1-1.4,0.2-1.8,0.2c0.6-0.3,1.8-0.9,2.4-1.1c-1.3-2.4-2.5-4.8-3.4-7.3c1,2.5,2.7,4.6,3.7,7.1
	c1.5,0.9,3.1,1.8,4.7,2.4c13.3,4.4,26.7,8.7,39.7,14.2c10.1,4,19.9,9.2,30.4,12.2c-2.8-3.9-4.9-8.4-6.5-12.9c2.2,4.5,3.7,9.8,7.8,13
	c7.9,4.5,16.1,8.7,25,11c1.3,0.2,2.6,0.6,3.9,1.1c1.4,0.3,2.8,0.5,4.1,1c1.7,0.2,3.3,0.5,4.9,1c4.1,0.3,8.1,1.5,12.2,1
	c1-0.5,2.1-0.9,3.3-1.1c1.3-5.1-2.4-9.5-3.9-14.2c-5.6-14.5-9-30.6-20-42.4c-3.4-2.7-4.2-7.5-8.1-9.7c-12.4-8.1-25.6-15.5-40.2-18.8
	c-4.4-0.5-9.1-1-13.3,0.7c-2.5,4.1-4.2,9-8.3,11.9c-5.4,4.5-13.8,4.5-19.4,0.3c-2.5-1.6-3.7-4.4-5.2-6.8c-1-3.9-0.9-8,0.1-11.9
	c3.3-9.2,14.9-12.6,23.3-8.5c3.2,2.3,5.8,5.3,7.7,8.8c1.4,0.2,2.7,0.5,4,0.7c16.2,0.5,30.9,8.5,44.9,16.1c2.9,1.9,7.6,2.8,8.1,6.8
	c0.2-0.2,0.5-0.6,0.7-0.7c-2.6-4.8-4.5-9.9-7.4-14.5c-7.5-10.5-17.2-19.2-25.2-29.3c-2.6-0.2-4.8-1.9-6.9-3.3c2.3,1,4.4,2.6,6.9,2.9
	c-1.7-4.5-4.5-8.5-5.8-13.1c3,7.4,7,14.4,12.9,19.9c6.7,7.7,14.6,14.5,20.2,23.2c0.6-1.5,2-4.4,2.6-5.8c0.6,3.3-1.6,7.3,0.4,10.4
	c2.7,4.9,5,10.1,8.5,14.6c4.3,5.8,8.9,11.3,12.2,17.8c4.7,8.6,6.9,18.2,10.8,27.2c3.6,7.9,8.5,15.4,15.6,20.6
	c8.5,6.3,19.3,7.6,28.8,11.9c5.5,2.6,11.7,4.5,15.8,9.4c0.7,1.6,1.5,3.3,2.1,5c1.1,5.7,2.2,11.3,2.9,17c0.5,2,0.8,4,1,6
	c1.1,3.9,1.9,8.1,4.8,11.2c2.5,3.1,6.6,3.9,10.3,4.7c-1.3-11,0.7-22.1-0.5-33.1c-0.3-4.3,0-8.6-0.1-12.9c0-1.6-0.2-3.6,1.2-4.8
	c-0.7,7.9,0.2,15.8-0.5,23.7c0.1,5-0.3,10.1,0.5,15.1c0.2,1.7-1,3.1-0.9,4.8c0.1,2.4,0.5,4.9,0.5,7.3c7.6,5.5,15.6,10.5,23.7,15
	c3.8,1.9,7.9,3.4,11.9,4.9c2.5,0.2,4.7,1.4,6.8,2.7c-3.1-6.7-10.5-10.5-12.6-17.8c-2.5-8.5-3.7-17.3-7.2-25.5
	c-3.6-9.5-9.3-18-15.7-25.7c-4.2-5.2-9.3-9.8-15.5-12.5c-9.6-5-19.6-9.2-28.5-15.4c-8.5-5.3-13.8-14.3-17.9-23.1
	c-1-2.3-2.2-4.6-3-6.9c-0.3-1-0.7-2.1-1-3.1c-1.3-3.5-2.5-7.1-3.1-10.9c-0.3-1.3-0.7-2.7-1-4c-0.4-2-0.7-4-0.9-6
	c-1.1-4-1.5-8-1.9-12.1c-0.6-1.8-0.8-3.6-0.8-5.4c-3.1-1.8-7.2-2.3-9.4-5.5c-5.3-6.3-1.6-17.9,7-18.7c8.1-1.7,15.1,7.1,13.1,14.6
	c-0.8,4.8-5.6,7.1-9.6,8.9c0.6,3.1,1.1,6.2,1.5,9.3c0.5,1.9,0.7,3.9,0.9,5.9c0.8,3,1.3,6,2,9.1c1.5,6.5,3.7,12.8,5.9,19
	c4.1,9.5,9.6,18.7,17.9,25.1c3.7,2.4,7.3,4.8,11.1,6.9c7.5,3.6,14.9,8.1,23.2,9.7c-0.4-1.8-0.9-3.5-1.9-5c-3.6-5.7-5.8-12-7.8-18.4
	c-5,3.7-12.7-1.4-11.8-7.4c-0.3-3,2.6-4.6,3.4-7.1c-2.5-6-5.1-12.7-11.1-16.1c2.6,0.8,5,2.5,6.2,5c2,3.6,4.1,7.2,5.6,11.1
	c3.8-0.5,8.2,0.4,10.1,4.1c2.1,3.2,0.3,6.8-0.6,10c1.5,12.3,10.2,21.8,17.8,31c9.7,10.9,17.7,23.3,23.1,36.9c3,7,4.9,14.6,8.8,21.2
	c4.3,6.5,10.5,12.3,18.2,14.5c4.4,1.6,9.9-0.2,12.5-4.1c2.6-3.6,3-8.2,3.6-12.4c0.6-8.2,0.2-16.6-2.9-24.3
	c-3.2-9.3-9.2-17.2-14.6-25.2c-15.6-24-35-45.4-51-69.2c-7.1-9.8-15.4-19-19.6-30.5c-0.4-1-0.7-2-1-3c-3.5-10.7-3.5-22.1-5.9-33
	c-0.3-1-0.6-2.1-0.9-3.1c-1.6-1.1-3.1-2.2-4.5-3.4c-0.6,0.1-1.7,0.3-2.2,0.5l0.7-1.2c-6.7-5.2-13.8-9.9-20-15.7
	c5.7,5,12,9.2,17.9,13.9c2.9,1.5,5.6,4.7,9.2,3.7c0.1-2.4,1.1-5.2-0.9-7.1c-9.5-12.4-20-24.1-29.6-36.5c-9-10.5-17.4-21.5-26.7-31.8
	c-0.5,0.1-1.6,0.2-2.1,0.3l1.8-0.6c-2.3-3.2-4.6-6.5-6.8-9.8c2.3,2.7,4,5.8,6.4,8.5c17.2,19.6,33.6,39.8,50.3,59.7
	c5.8,6.2,10.6,13.3,16.9,19.1c3.2,2.8,5.6,6.7,9.5,8.6c0.4-1.8,1.1-3.5,2-5.1c0.2-1,0.6-1.9,1.2-2.8c0.4-3.1,0.3-6.1,0-9.2
	c-4.4-14.5-5.2-29.8-8.4-44.6c-2-10.8-4.3-21.6-6.5-32.3c4.6,19.1,8.6,38.5,11.5,58c1.1,6.1,2.3,12.2,4,18.1c0.7,2.6,1.2,5.3,1.8,8
	c3.9-5,7.4-10.3,10.9-15.6c3.8-6.1,7.9-12.1,10.2-18.9c-0.4-0.1-1.3-0.4-1.7-0.6c1.9,0,2.2-1.6,2.7-3c-0.2,5.8-3.5,10.9-6.2,15.8
	c-4.6,8.5-9.6,16.7-15.2,24.6c-2,2.9-3.2,6.2-4.6,9.4c0.6,15.4,0.8,31,3.2,46.3c0.3,1,0.6,2,1,3c2.6,5.5,6.4,10.3,9.7,15.3
	c2,2.8,3.9,5.8,6.6,7.9c0.3-2.8,0.2-5.6,1.1-8.2c0.4-5.4,0.8-10.7,1.3-16c-0.2,5.6,0.2,11.3-0.9,16.8c-0.2,2.8-0.1,5.6-0.1,8.5
	c7,9.9,15.5,18.6,22.7,28.4c6.9,9.2,13.4,18.7,19.9,28.1c5.1,8.1,11,15.8,14.2,24.9c3.4,8.7,4.5,18.1,5.5,27.4
	c0.8,4.8,2,9.9,5.9,13.2c2.7,1.8,6.5,1.6,9.2,0c3.9-2.3,5.2-7.1,5.5-11.3c0.8-15.3,2.6-30.7,1.6-46c-0.9-11.5-4-22.7-6-34
	c-0.9-3.6-1-7.6-3.2-10.8c-3.5-5.5-8.5-10.1-10.8-16.2c-1-2-2.1-4-2.9-6.1c-4.7-8.9-8.1-19.6-17.6-24.6c1.4,0,4.3,0.1,5.7,0.1
	c-1-0.4-2-0.6-3.1-0.8c0-1.2-0.1-2.4-0.1-3.6c-2.9-11.1-5.7-22.2-10-32.8c-3.8-8.3-8.7-15.9-13.3-23.8c-2.9-3.7-5.3-7.7-6.6-12.2
	c4.4,6.9,7.8,14.2,12.2,21.1c5.3,8.5,9.8,17.6,13.4,26.9c3.9,10.3,4.9,22.1,12,30.9c3.2,4.7,5.7,9.9,8,15.1c1.4,2.7,2.7,5.4,3.9,8.1
	c2.2,5.3,6.1,9.6,9.6,14.1c0.6-11.9-0.2-23.9-3.2-35.5c-0.4-1-0.7-2-1-3c-3.6-9.2-9.5-17.1-14.4-25.6c-3.1-5.9-6.7-11.4-9.6-17.4
	c-0.7-1.6-1.5-3.3-2-5c-4.7-13.5-1.6-27.9-2.5-41.9c-0.2-1.5-0.9-2.8-1.3-4.2c-0.9-1.5-1.7-3.1-2.6-4.6c-0.5-1.1-1.1-2.2-1.6-3.3
	c-5.9-10.9-8.8-23.1-15.3-33.7c-12.5-18.5-23.5-37.9-35-57C422.8,82.5,421.8,80.8,421,78.8 M395.6,209.9c-0.1,3.1,0,6.2,0.7,9.2
	c1.7,8.3,3,16.7,4.6,25c1.6,5.9,3.8,11.8,6.8,17.1c2.5,4.2,5.9,7.8,8,12.2c-0.1-2.2-0.1-4.4-0.4-6.6c-1.4-4.2-0.5-8.7-1.2-13
	c-1.2-8.3-0.2-16.7-1.3-25c-0.2-2.5-2.5-4-4-5.7C404.1,219,400.4,213.9,395.6,209.9 M512.2,233.6c-1.1,4.9-2.4,9.9-2.6,14.9l-1-0.1
	c0.5,5.9-0.7,11.8-0.9,17.7c1.5,1.9,1.4,5.7,4.6,5.5c0.2-2.5,0.3-5.1,1-7.5c0.5-10.4,0.6-20.8,0.2-31.1L512.2,233.6 M310.1,334.4
	c1.3,6.6,2.6,13.1,3.8,19.7c0.4,1.4,0.7,2.7,0.9,4.1c1.6,5.2,6.1,8.5,9.8,12.3c10.2,10.6,20.2,21.7,27.1,34.8
	c2.5,5,5.9,9.6,8.4,14.7c4.2,8.6,9.5,17,17.5,22.5c7.1,4.6,15.4,6.8,23.5,9.1c3.3,0.7,6.5,2,9.9,1.8c-2-2.7-4.5-4.9-6.8-7.3
	c-2.4-2.5-3.1-5.9-4.1-9.1c-2.5-9.4-2.9-19.2-3.6-28.8c-5.1,0.4-9.9,2.6-14.9,3.7c-4.3,1.5-9,0.5-13.4,0.7c2.7-0.6,5.5,0,8.3,0
	c1.6-1.3,3.5-1.2,5.4-1.1c5.2-1.1,10-3.4,15.3-4.2c2.3-1,4.3-2.6,6.2-4.2c0.3-2.9-1.8-5.4-4.2-6.7c-7.1-3.1-13.9-6.6-20.8-10
	c-2.5-1.4-5.3-2.3-7.2-4.5c-2.1,2.6-5.9,2.4-8.7,1.6c-3.4-1.8-3.3-6.1-2.2-9.2c0.9-0.7,1.8-1.3,2.6-2c1.6,0,3.3-0.1,4.9,0.1
	c1.7,0.6,2.3,2.4,3.3,3.7c0.5,2,1.1,3.9,1.5,5.9c5.4,3.4,11.3,5.9,16.9,8.8c3.6,2,7.4,3.5,11.2,4.8c-0.6-4.6-2.1-9-2.5-13.7
	c-1.2-5.3-2-10.7-3-16.1c-0.6-1.6-1.3-3.3-2-4.9c-4.6-4.3-10.6-6.5-16.4-8.6c-10.8-3.6-21.9-6-32.8-8.9
	C332.6,340.6,321.6,336.7,310.1,334.4 M726.3,373.2c-6.2,3.7-13.2,6.5-18.5,11.6c-4.1,4.4-7.4,9.5-11,14.3c-5.3,6.9-10.4,14-15.7,21
	c-3.2,4.5-8.6,6.3-13.3,8.7c-8.5,4.3-18.2,5.3-27,9.1c-5.3,2.7-10.6,5.5-16,8c-5.8,2.7-11.6,5.4-17.7,7.2c4.6,4,10.9,5.8,16.8,7
	c11.8,2.5,24.5,4.1,36.2,0.2c7.6-2.7,14-7.7,19.8-13.2c8.5-8.2,17.2-16.1,26.3-23.7c10.9-8.7,21.2-18.2,31.8-27.2
	c11.9-9.4,26.1-15.1,39.7-21.6c-0.6-7.1,0-14.2-0.9-21.2c-2.3,0.2-4.5,0.4-6.8,0.7C755,359.4,740.1,365.1,726.3,373.2 M400.8,406.8
	c-1.3,0.3-2,1.5-3.4,1.8c0.1,5.5,1.1,10.9,1.3,16.4c1.4,8.9,3.4,19.5,12,24.3c11,4.9,23.3,6,35.2,4.7c4.8-0.8,10-1.2,14.1-4
	c6.1-4.3,7-14.3,1.3-19.3c-4.4-3.2-9.9-4.3-14.8-6.3c-12.6-5-22.7-14.8-35.5-19.5C407.4,403.7,403.8,404.5,400.8,406.8 M518.6,462.7
	c-1.2,3-1.2,6.3-0.9,9.5c1.5,4.4,4.7,8.1,9,10c1.1,0.4,2.1,0.7,3.2,1.1c1.7,0,3.4,0,5.1,0c2.1-1.2,4.4-2.2,6-4.2
	c3-4,3.7-9.8,1.4-14.3c-2.4-4.7-6.8-8.8-12.4-8.5C525.1,455.6,521.4,459.2,518.6,462.7 M477.4,468.6l-1.1-0.1c0,2.2,0.1,4.5,0.3,6.7
	c1.5,2.8,2.7,6.1,5.8,7.5c3.1,1.8,6.8,0.8,10.2,0.8l-0.3-0.9c2.6-0.9,5-2.4,6.9-4.5c4.8-5.6,4.3-15.1-1.8-19.6
	c-2.5-1.5-5.3-3-8.3-2.4C483,457.1,477.7,462.4,477.4,468.6 M527.3,559c0.2,6.4-0.6,12.8,0.1,19.2c1.2-7,2.2-14.1,2-21.2
	c0-7.2,0.2-14.5-1.8-21.5C526.6,543.3,527.6,551.2,527.3,559 M400.3,555.3c-7.8,2.9-16.1,4.5-24.5,4.4c-5.7,2.9-11.5,5.6-16.9,9.1
	c-2.3,1.4-4.3,3.4-5.1,6c-3.7,11.9-5.4,24.2-9.3,36.1c-0.9,2.8-3.9,4.4-4.3,7.4c6.9,0.5,14,0.7,20.8-0.6c4.8-0.9,9.9-1.9,14-4.7
	c4.4-3.9,8-8.6,12.3-12.7c3.6-3.4,8.1-5.8,12.9-7.1c4.9-2.7,6.7-8.3,9-13.1c1.5-4,2.8-8,3.9-12.1c1-4.3,2.1-8.7,2.3-13.2
	c-0.6-1-1-2.1-1.3-3.2C409.3,551.7,404.9,554,400.3,555.3 M390.8,599.7c-4.2,3.7-8.3,7.6-10.9,12.7c-0.4,0.1-1.3,0.4-1.8,0.5
	c-1,1.1-2,2.2-3,3.3c1.5-1,2.9-2.2,4.5-3c3.3-2.2,6.4-4.6,9.6-7c3.9-3.3,7.7-6.7,10.9-10.7C396.6,595.7,393.5,597.6,390.8,599.7
	 M283.8,611.4c-0.3,7.6-0.1,15.3-0.1,23c5.7-1.4,11.5-2.3,17.3-3.5c8.1-1.3,16-3.6,24.1-4.9c3.7-0.9,7.8-1.2,11.1-3.5
	c4.5,0.3,8.6-1.7,12.9-2.1c-1.8,0.1-3.7,0.1-5.4,0.6c-1.5,0.3-4.2,1.9-4.2-1c0.1,0.5,0.2,1.5,0.3,2c-6-0.9-12-1.6-17.7-3.5
	C309.5,614.8,296.5,614,283.8,611.4 M493.2,834.2c-1.5,0.6-1.5,1.2-0.1,1.9C494.5,835.4,494.5,834.8,493.2,834.2z"/>
<path d="M630.1,205.9c0.2-4.4,5.9-5.7,9-3.2c0.3,0.5,1,1.6,1.3,2.2c0.5,2.8-0.2,6.3-3.2,7.4C633.3,214.3,629.1,209.8,630.1,205.9z"
	/>
<path d="M538.1,227.1c5.9-2.1,12.6,2.1,14.4,7.9c0.5,3.5,0.9,7.7-1.8,10.5c-4.1,5.5-13.6,6.1-17.9,0.6c-3.2-3.8-3.2-9.5-1.2-13.8
	C533.4,230.2,535.2,227.7,538.1,227.1z"/>
<path d="M373.9,277.9c1.6-1,3.5-0.5,5.3-0.6c3.3,1.9,4,5.7,3.4,9.2c-2.3,1.8-5.4,3.5-8.3,2.1C370.1,286.9,369.9,280,373.9,277.9z"/>
<path d="M664.1,352.1c5.5-5.1,10.7-10.6,15.9-16.1c-6.5,8.6-15.4,14.9-21.9,23.5c3.8,4.2,4.7,11.1,1.2,15.8
	c-3.9,5.7-12.2,7.3-18.1,3.6c-4.7-3.7-6.3-10.3-4.2-15.9c2.7-6.7,11.7-9.6,17.8-5.9c1,0.6,2.1,1.3,3.2,1.9
	C659.3,356.2,661.9,354.3,664.1,352.1z"/>
<path d="M817.3,387.3c1.6-4.3,8.8-4.1,10.3,0.2c1.5,2.9-0.2,6.6-3.1,7.9c-2,0.7-4.1,0-6-0.9C817.1,392.4,815.9,389.7,817.3,387.3z"
	/>
<path d="M587.7,412.6c1.7-5.6,7.4-9.9,13.3-9.1c6.2,0.3,9.8,6.6,10.8,12.1c4.9,0.1,9.3-2.1,14.2-2.4c-4.8,0.8-9.3,2.7-14.2,2.6
	c-1.3,3.4-2.4,7.2-5.8,9.1c-5,3.6-11.8,2-16.2-1.7C587.9,420,587.1,416.3,587.7,412.6z"/>
<path d="M191.6,551c0-7.2,11-10.4,15-4.5c4.4,4,1.5,11.9-3.8,13.4c-2.2,0.9-4.5,0.3-6.7-0.1C193.3,557.8,191.1,554.5,191.6,551z"/>
<path d="M570.4,571.5c5.6-1.6,12.1,1.3,14.2,6.8c1.8,4.9-0.5,10.5-4.5,13.5c-6.2,4.3-16.6,0.1-16.8-7.8
	C562.3,578.8,565.1,572.9,570.4,571.5z"/>
<path d="M460.2,637.2c5.4-2.1,11.5,0.1,15.5,4c6.6,6.8,5.2,19.7-3.5,24.1c-7,4.4-16.9,1.7-20.9-5.4c-2-3.9-2.5-8.6-1.4-12.8
	C451.5,642.3,455.4,638.5,460.2,637.2z"/>
<path d="M422.2,719c2-6.4,9.3-10.2,15.7-9c8.4,1.1,13.8,11,10.6,18.8c-2.6,6.6-10.8,10.5-17.5,8c-3.5-0.9-6.1-3.6-8.2-6.4
	c-1.9,1.1-3.8,2.5-5.2,4.3c-0.9,1.4-3,0.8-3.9,2.2c-0.3,2.4-0.2,4.8-0.3,7.2c-0.1-2.7,0-5.4,0.3-8c1.6-0.6,2.2-2.3,3.5-3.3
	c1.9-0.4,3.6-1.4,5.3-2.4C421.5,726.6,420.9,722.6,422.2,719z"/>
<path d="M587,738.6c2.8-0.2,6.3-0.1,8,2.5c1.7,3.1,0.5,7.9-3.1,9.2c-2.8,0.8-5.8-0.9-7.1-3.4C584,743.9,585.8,741.2,587,738.6z"/>
<path d="M669.4,761.5c2.4-0.4,5.5-0.5,7,1.9c3,3.5,0.2,9.7-4.5,9.4C666.1,773,663.9,763.9,669.4,761.5z"/>
<path d="M509.3,815.9c2.1,0.1,3.1,2,4,3.6c3.6,6.2,6.7,12.6,10.2,18.7c1.2,2.7,4.3,1.8,6.6,2.3c-3.8,0.9-7.4-1.1-11.2-0.7
	c-5,0.4-10,1-15,0.1c-2.7-0.5-5.4,1-8,0c0.9-1.1,1.8-2.3,2.6-3.4C501.6,829.3,506.3,823,509.3,815.9 M503.1,837.8
	c5.3,0.1,10.6-0.6,15.9,0c-3.9-4.6-5.8-10.3-9.1-15.3C507.6,827.7,505.4,832.8,503.1,837.8z"/>
<path d="M525.1,832.3c1.2,0,2.4,0,3.5,0c-0.2,1.9,0.1,3.7,0.6,5.6c-0.5,0.2-1.4,0.6-1.9,0.8C526.6,836.5,525.8,834.4,525.1,832.3z"
	/>
<path d="M408,840.1l0.7-0.1c0.2,2.6,0.8,5.2,1.9,7.5c1.2,0.2,2.4,0.4,3.6,0.6c0.2-0.7,0.6-2,0.8-2.7c-1.2-0.4-2.4-0.7-3.6-1.1
	c-0.5-1.4-1.1-3.4,1.2-3.1c0-0.4-0.1-1.2-0.2-1.6l2.7-0.6c-0.1,1.9-0.3,3.8-0.6,5.7l1.8-1.1c-0.5,1.6-1.1,3.2-1.6,4.8
	c-1.4-0.2-3-0.1-4.3-0.7C408.5,845.7,408.4,842.8,408,840.1z"/>
<path d="M419.1,842.3c20.3,0.3,40.6,0.1,60.9,0.2c1.2-0.2,2.1,0.2,2.8,1.2c-21.2-0.2-42.4-0.2-63.6-0.1
	C419.1,843.3,419.1,842.6,419.1,842.3z"/>
<path d="M487.2,842c3.2-0.4,6.5-0.2,9.7,0.1c11.9,0.1,23.9-0.1,35.8,0.2c1.5,0.9,2.4,2.6,3.5,3.9c-0.2,0.3-0.7,0.9-0.9,1.3
	c2.4-1.1,2.4,2,2.5,3.6c0.3,2.5-1,4.7-2.5,6.5c-4.7,1.3-9.5,0-14.2,0.7c-10.7,0.1-21.3,0.7-32,0.1c-3.4-0.1-6.9-2.6-6.7-6.2
	C481.7,848,484.1,844.4,487.2,842 M489.1,845c-0.1,0.4-0.4,1.1-0.5,1.5c-3.3,1.1-4.5,6.4-0.9,7.9c1.3-0.2,2.5-0.5,3.8-0.9
	c-0.4-1.9-0.8-3.8-1.4-5.7C489.8,846.8,489.4,845.9,489.1,845 M502.5,854.5c2,1.9,4.7-0.5,6.8-1.2c0.1-2.3,0.2-4.6,0.1-6.9
	c-2.1-0.9-4.4-0.9-6.7-0.8C500.9,848.2,500.5,852,502.5,854.5 M528.8,849.2c0,1.9-0.2,4.6,2.2,5.1c4.2,0.8,5-7,1-7.3
	C530.6,847.1,529.8,848.5,528.8,849.2 M513.8,848.7c0,1.5-0.2,3.1-0.4,4.6c2.3-0.2,4.7-0.3,7-0.2c-0.5-1.5-1-3-1.4-4.4
	C517.3,848.5,515.5,848.5,513.8,848.7z"/>
<path d="M537.2,842.3c28.5,0.1,57,0.2,85.4,0.2c0,0.2,0,0.7,0,1c-28.4,0.4-56.9-0.2-85.3,0.1C537.2,843.2,537.2,842.6,537.2,842.3z"
	/>
<path d="M502.6,847.2c1.8-0.1,3.8-0.2,5.3,1c-0.3,2.1-0.8,5.6-3.5,5.5C502.7,852,503.1,849.3,502.6,847.2z"/>
<path d="M359.3,873.5c99.2,0,198.4,0,297.5,0c5.4,0,9,5.4,8.8,10.4c-0.2,13.7-0.1,27.4-0.2,41.1c0.2,4.4-3.2,8.1-7.5,8.6
	c-99.2-0.1-198.5-0.1-297.7,0c-5,0.9-9.5-3.7-9.3-8.6c-0.1-13.7,0-27.4-0.1-41.1c-0.2-2.7,0.6-5.3,1.9-7.7
	C354.5,874.5,356.7,873.4,359.3,873.5 M635.9,875.5c-92.6,0-185.1,0-277.7,0c-3.6,0.3-5.5,4.3-5.3,7.5c0.1,14-0.1,28,0,42
	c0,3.3,2.8,6.8,6.3,6.4c99.9-0.2,199.8,0.1,299.7-0.1c1.6-1.2,3.1-2.6,4.3-4.1c0-14.7,0.1-29.4,0.1-44.1c0.2-3-1.7-5.3-3.6-7.3
	C651.9,874.9,643.9,875.7,635.9,875.5z"/>
<path d="M356.3,882.5c0.5,0,1.6-0.1,2.1-0.1c0.5,0.3,1.5,1,2,1.4c0.2,0.5,0.7,1.6,0.9,2.2c-1.1,1.2-2.4,2.1-4.1,2.3
	c1.2-1.6,3.5-3.5,1-5.2c-0.6,0.2-1.8,0.7-2.4,1c0.2,1.2,0.7,2.4,1.3,3.5C354.9,886.6,355.2,884.2,356.3,882.5z"/>
<path d="M651.9,887.1c-2-1.9,0.7-4.6,2.8-4.8c0.7,0.8,1.2,1.7,1.8,2.6c-0.3,1-0.7,1.9-1,2.9C654.3,887.7,652.8,888.2,651.9,887.1
	 M654.3,886.3c1.4-0.8,1.3-1.7-0.2-2.7C652.8,884.5,652.9,885.4,654.3,886.3z"/>
<path d="M651.2,921.5c1.2-0.4,2.3-0.8,3.5-1.2c1.1,1.5,0.9,3.3,0.8,5.1c-1.5,1.2-3,0.7-4.2-0.5C651.3,923.8,651.3,922.7,651.2,921.5
	 M652.5,924.6c1.3,1.1,2.5-1.6,1.5-2.4C652.5,921,651.5,923.6,652.5,924.6z"/>
<text transform="matrix(1 0 0 1 378.2294 915.9355)" class="st0 st1">UNDER CONSTRUCTION</text>
<path d="M356.4,925.3c-2-1.9,0.7-4.6,2.8-4.8c0.7,0.8,1.2,1.7,1.8,2.6c-0.3,1-0.7,1.9-1,2.9C358.8,925.9,357.3,926.4,356.4,925.3
	 M358.9,924.6c1.4-0.8,1.3-1.7-0.2-2.7C357.4,922.7,357.5,923.6,358.9,924.6z"/>
</svg>
